SplineFontDB: 3.0
FontName: LiberationMono-BoldItalic
FullName: Liberation Mono Bold Italic
FamilyName: Liberation Mono
Weight: Bold
Copyright: Copyright (c) 2007 Red Hat, Inc. All rights reserved. LIBERATION is a trademark of Red Hat, Inc.
Version: 1.07.1
ItalicAngle: -12
UnderlinePosition: -375
UnderlineWidth: 205
Ascent: 1638
Descent: 410
LayerCount: 2
Layer: 0 1 "Back"  1
Layer: 1 1 "Fore"  0
XUID: [1021 131 222397055 8302692]
FSType: 0
OS2Version: 3
OS2_WeightWidthSlopeOnly: 0
OS2_UseTypoMetrics: 1
CreationTime: 1095817380
ModificationTime: 1328172358
PfmFamily: 17
TTFWeight: 700
TTFWidth: 5
LineGap: 0
VLineGap: 0
Panose: 2 7 7 9 2 2 5 9 4 4
OS2TypoAscent: -341
OS2TypoAOffset: 1
OS2TypoDescent: -18
OS2TypoDOffset: 1
OS2TypoLinegap: 466
OS2WinAscent: 0
OS2WinAOffset: 1
OS2WinDescent: 0
OS2WinDOffset: 1
HheadAscent: 0
HheadAOffset: 1
HheadDescent: 0
HheadDOffset: 1
OS2SubXSize: 1434
OS2SubYSize: 1331
OS2SubXOff: 30
OS2SubYOff: 285
OS2SupXSize: 1434
OS2SupYSize: 1331
OS2SupXOff: 80
OS2SupYOff: 865
OS2StrikeYSize: 102
OS2StrikeYPos: 530
OS2FamilyClass: 2053
OS2Vendor: '1ASC'
OS2CodePages: 6000009f.dfd70000
OS2UnicodeRanges: a00002af.400078fb.00000000.00000000
Lookup: 1 0 0 "'locl' Localized Forms lookup 0"  {"'locl' Localized Forms lookup 0-1"  } ['locl' ('cyrl' <'SRB ' > 'cyrl' <'MKD ' > ) ]
MarkAttachClasses: 1
DEI: 91125
TtTable: prep
NPUSHB
 55
 16
 253
 1
 241
 70
 28
 31
 240
 70
 28
 31
 207
 237
 1
 63
 235
 1
 232
 229
 36
 31
 231
 229
 40
 31
 230
 229
 36
 31
 160
 229
 1
 192
 229
 208
 229
 2
 227
 226
 34
 31
 80
 226
 96
 226
 224
 226
 3
 225
 224
 39
 31
 223
 224
 1
PUSHW_5
 276
 62
 274
 85
 275
NPUSHB
 11
 61
 3
 85
 223
 61
 221
 85
 222
 61
 220
 85
NPUSHW
 16
 278
 1
 277
 85
 32
 277
 1
 15
 277
 1
 0
 274
 48
 274
 2
 274
PUSHB_3
 1
 3
 85
PUSHW_1
 273
NPUSHB
 63
 3
 255
 31
 221
 1
 220
 85
 32
 220
 1
 15
 220
 1
 187
 186
 25
 31
 80
 183
 128
 183
 2
 15
 179
 1
 80
 173
 96
 173
 224
 173
 240
 173
 4
 172
 170
 16
 31
 80
 170
 96

StartChar: .notdef
Encoding: 1114112 -1 0
Width: 1229
Flags: W
LayerCount: 2
Fore
SplineSet
68 0 m 1,0,-1
 68 1365 l 1,1,-1
 612 1365 l 1,2,-1
 612 0 l 1,3,-1
 68 0 l 1,0,-1
136 68 m 1,4,-1
 544 68 l 1,5,-1
 544 1297 l 1,6,-1
 136 1297 l 1,7,-1
 136 68 l 1,4,-1
EndSplineSet
EndChar

StartChar: exclam
Encoding: 33 33 4
Width: 1229
Flags: W
LayerCount: 2
Fore
SplineSet
708 426 m 1,0,-1
 478 426 l 1,1,-1
 625 1349 l 1,2,-1
 919 1349 l 1,3,-1
 708 426 l 1,0,-1
363 0 m 1,4,-1
 415 270 l 1,5,-1
 703 270 l 1,6,-1
 651 0 l 1,7,-1
 363 0 l 1,4,-1
EndSplineSet
EndChar

StartChar: quotedbl
Encoding: 34 34 5
Width: 1229
Flags: W
LayerCount: 2
Fore
SplineSet
1001 844 m 1,0,-1
 802 844 l 1,1,-1
 890 1485 l 1,2,-1
 1165 1485 l 1,3,-1
 1001 844 l 1,0,-1
545 844 m 1,4,-1
 346 844 l 1,5,-1
 434 1485 l 1,6,-1
 707 1485 l 1,7,-1
 545 844 l 1,4,-1
EndSplineSet
EndChar

StartChar: numbersign
Encoding: 35 35 6
Width: 1229
Flags: W
LayerCount: 2
Fore
SplineSet
1008 835 m 1,0,-1
 876 511 l 1,1,-1
 1113 511 l 1,2,-1
 1084 362 l 1,3,-1
 814 362 l 1,4,-1
 666 0 l 1,5,-1
 511 0 l 1,6,-1
 660 362 l 1,7,-1
 351 362 l 1,8,-1
 203 0 l 1,9,-1
 50 0 l 1,10,-1
 198 362 l 1,11,-1
 24 362 l 1,12,-1
 53 511 l 1,13,-1
 259 511 l 1,14,-1
 392 835 l 1,15,-1
 165 835 l 1,16,-1
 194 983 l 1,17,-1
 453 983 l 1,18,-1
 603 1349 l 1,19,-1
 756 1349 l 1,20,-1
 607 983 l 1,21,-1
 915 983 l 1,22,-1
 1065 1349 l 1,23,-1
 1218 1349 l 1,24,-1
 1069 983 l 1,25,-1
 1254 983 l 1,26,-1
 1225 835 l 1,27,-1
 1008 835 l 1,0,-1
545 835 m 1,28,-1
 412 511 l 1,29,-1
 721 511 l 1,30,-1
 854 835 l 1,31,-1
 545 835 l 1,28,-1
EndSplineSet
EndChar

StartChar: dollar
Encoding: 36 36 7
Width: 1229
Flags: W
LayerCount: 2
Fore
SplineSet
1123 393 m 0,0,1
 1107 308 1107 308 1065.5 238.5 c 128,-1,2
 1024 169 1024 169 955.5 118.5 c 128,-1,3
 887 68 887 68 790.5 38.5 c 128,-1,4
 694 9 694 9 567 4 c 1,5,-1
 533 -171 l 1,6,-1
 424 -171 l 1,7,-1
 457 1 l 1,8,9
 344 5 344 5 265 32 c 128,-1,10
 186 59 186 59 136 108 c 128,-1,11
 86 157 86 157 63 227.5 c 128,-1,12
 40 298 40 298 40 389 c 1,13,-1
 305 436 l 1,14,15
 304 388 304 388 311.5 348.5 c 128,-1,16
 319 309 319 309 340.5 280 c 128,-1,17
 362 251 362 251 399.5 232.5 c 128,-1,18
 437 214 437 214 497 208 c 1,19,-1
 573 599 l 1,20,21
 571 601 571 601 559.5 603.5 c 128,-1,22
 548 606 548 606 544 606 c 0,23,24
 478 622 478 622 416 644.5 c 128,-1,25
 354 667 354 667 306 702.5 c 128,-1,26
 258 738 258 738 228.5 790.5 c 128,-1,27
 199 843 199 843 199 920 c 0,28,29
 199 964 199 964 209 1011 c 0,30,31
 227 1102 227 1102 272 1167.5 c 128,-1,32
 317 1233 317 1233 384.5 1276 c 128,-1,33
 452 1319 452 1319 538 1341 c 128,-1,34
 624 1363 624 1363 723 1367 c 1,35,-1
 749 1501 l 1,36,-1
 858 1501 l 1,37,-1
 832 1367 l 1,38,39
 937 1363 937 1363 1008.5 1339 c 128,-1,40
 1080 1315 1080 1315 1124.5 1271.5 c 128,-1,41
 1169 1228 1169 1228 1190 1164.5 c 128,-1,42
 1211 1101 1211 1101 1215 1017 c 1,43,-1
 943 978 l 1,44,45
 946 1150 946 1150 794 1171 c 1,46,-1
 725 819 l 1,47,48
 730 817 730 817 735.5 817 c 128,-1,49
 741 817 741 817 746 815 c 0,50,51
 819 797 819 797 888.5 774.5 c 128,-1,52
 958 752 958 752 1012.5 715 c 128,-1,53
 1067 678 1067 678 1100 623 c 128,-1,54
 1133 568 1133 568 1133 485 c 0,55,56
 1133 464 1133 464 1130.5 441 c 128,-1,57
 1128 418 1128 418 1123 393 c 0,0,1
685 1175 m 1,58,59
 631 1171 631 1171 593.5 1157 c 128,-1,60
 556 1143 556 1143 530.5 1121.5 c 128,-1,61
 505 1100 505 1100 491 1072.5 c 128,-1,62
 477 1045 477 1045 471 1015 c 0,63,64
 467 996 467 996 467 977 c 0,65,66
 467 946 467 946 479 925.5 c 128,-1,67
 491 905 491 905 511.5 890.5 c 128,-1,68
 532 876 532 876 560 865.5 c 128,-1,69
 588 855 588 855 621 843 c 1,70,-1
 685 1175 l 1,58,59
863 389 m 0,71,72
 867 408 867 408 867 428 c 0,73,74
 867 464 867 464 852 487 c 128,-1,75
 837 510 837 510 811 526 c 128,-1,76
 785 542 785 542 751 552.5 c 128,-1,77
 717 563 717 563 678 575 c 1,78,-1
 606 208 l 1,79,80
 714 215 714 215 780 258 c 128,-1,81
 846 301 846 301 863 389 c 0,71,72
EndSplineSet
EndChar

StartChar: percent
Encoding: 37 37 8
Width: 1229
Flags: W
LayerCount: 2
Fore
SplineSet
131 0 m 1,0,-1
 -44 0 l 1,1,-1
 1151 1353 l 1,2,-1
 1328 1353 l 1,3,-1
 131 0 l 1,0,-1
451 1361 m 0,4,5
 499 1361 499 1361 541 1350.5 c 128,-1,6
 583 1340 583 1340 614 1314.5 c 128,-1,7
 645 1289 645 1289 662.5 1247 c 128,-1,8
 680 1205 680 1205 680 1141 c 0,9,10
 680 1091 680 1091 668 1025 c 0,11,12
 650 929 650 929 614.5 864 c 128,-1,13
 579 799 579 799 532.5 759 c 128,-1,14
 486 719 486 719 430.5 701.5 c 128,-1,15
 375 684 375 684 315 684 c 0,16,17
 265 684 265 684 222 696 c 128,-1,18
 179 708 179 708 148 735 c 128,-1,19
 117 762 117 762 99.5 805.5 c 128,-1,20
 82 849 82 849 82 912 c 0,21,22
 82 962 82 962 94 1025 c 0,23,24
 113 1124 113 1124 148 1188.5 c 128,-1,25
 183 1253 183 1253 229.5 1291.5 c 128,-1,26
 276 1330 276 1330 332.5 1345.5 c 128,-1,27
 389 1361 389 1361 451 1361 c 0,4,5
492 1025 m 0,28,29
 498 1054 498 1054 500.5 1078.5 c 128,-1,30
 503 1103 503 1103 503 1123 c 0,31,32
 503 1180 503 1180 482 1203 c 128,-1,33
 461 1226 461 1226 422 1226 c 0,34,35
 366 1226 366 1226 329 1180.5 c 128,-1,36
 292 1135 292 1135 270 1025 c 0,37,38
 265 997 265 997 262 974 c 128,-1,39
 259 951 259 951 259 931 c 0,40,41
 259 874 259 874 280.5 849 c 128,-1,42
 302 824 302 824 344 824 c 0,43,44
 394 824 394 824 432.5 870.5 c 128,-1,45
 471 917 471 917 492 1025 c 0,28,29
971 665 m 0,46,47
 1019 665 1019 665 1061 654.5 c 128,-1,48
 1103 644 1103 644 1134 618.5 c 128,-1,49
 1165 593 1165 593 1183 550.5 c 128,-1,50
 1201 508 1201 508 1201 444 c 0,51,52
 1201 394 1201 394 1189 329 c 0,53,54
 1170 233 1170 233 1135 168 c 128,-1,55
 1100 103 1100 103 1053.5 63 c 128,-1,56
 1007 23 1007 23 951.5 5.5 c 128,-1,57
 896 -12 896 -12 836 -12 c 0,58,59
 786 -12 786 -12 743 0 c 128,-1,60
 700 12 700 12 669 39 c 128,-1,61
 638 66 638 66 620.5 109.5 c 128,-1,62
 603 153 603 153 603 216 c 0,63,64
 603 266 603 266 615 329 c 0,65,66
 634 428 634 428 669 492.5 c 128,-1,67
 704 557 704 557 750.5 595.5 c 128,-1,68
 797 634 797 634 853 649.5 c 128,-1,69
 909 665 909 665 971 665 c 0,46,47
1013 329 m 0,70,71
 1019 358 1019 358 1021.5 382.5 c 128,-1,72
 1024 407 1024 407 1024 427 c 0,73,74
 1024 484 1024 484 1003 507 c 128,-1,75
 982 530 982 530 943 530 c 0,76,77
 887 530 887 530 850 484.5 c 128,-1,78
 813 439 813 439 791 329 c 0,79,80
 786 301 786 301 783 278 c 128,-1,81
 780 255 780 255 780 235 c 0,82,83
 780 178 780 178 801.5 153 c 128,-1,84
 823 128 823 128 865 128 c 0,85,86
 915 128 915 128 953.5 174.5 c 128,-1,87
 992 221 992 221 1013 329 c 0,70,71
EndSplineSet
EndChar

StartChar: ampersand
Encoding: 38 38 9
Width: 1229
Flags: W
LayerCount: 2
Fore
SplineSet
-9 369 m 0,0,1
 5 439 5 439 40.5 500.5 c 128,-1,2
 76 562 76 562 127 614 c 128,-1,3
 178 666 178 666 241 707.5 c 128,-1,4
 304 749 304 749 372 779 c 1,5,6
 359 821 359 821 352 866.5 c 128,-1,7
 345 912 345 912 345 958 c 0,8,9
 345 981 345 981 347 1003 c 128,-1,10
 349 1025 349 1025 353 1046 c 0,11,12
 365 1109 365 1109 395.5 1165.5 c 128,-1,13
 426 1222 426 1222 477.5 1264.5 c 128,-1,14
 529 1307 529 1307 602.5 1332 c 128,-1,15
 676 1357 676 1357 775 1357 c 0,16,17
 840 1357 840 1357 893 1342 c 128,-1,18
 946 1327 946 1327 984 1298 c 128,-1,19
 1022 1269 1022 1269 1042.5 1227.5 c 128,-1,20
 1063 1186 1063 1186 1063 1132 c 0,21,22
 1063 1105 1063 1105 1057 1073 c 0,23,24
 1044 1004 1044 1004 1002 949.5 c 128,-1,25
 960 895 960 895 900 851 c 128,-1,26
 840 807 840 807 767 770.5 c 128,-1,27
 694 734 694 734 619 702 c 1,28,29
 650 620 650 620 687.5 546 c 128,-1,30
 725 472 725 472 775 400 c 1,31,32
 829 477 829 477 871.5 557.5 c 128,-1,33
 914 638 914 638 946 724 c 1,34,-1
 1144 697 l 1,35,36
 1102 585 1102 585 1041.5 473.5 c 128,-1,37
 981 362 981 362 905 262 c 1,38,39
 940 225 940 225 980.5 207 c 128,-1,40
 1021 189 1021 189 1060 189 c 0,41,42
 1083 189 1083 189 1110 193.5 c 128,-1,43
 1137 198 1137 198 1156 206 c 1,44,-1
 1118 10 l 1,45,46
 1096 -1 1096 -1 1068.5 -6 c 128,-1,47
 1041 -11 1041 -11 1019 -11 c 0,48,49
 970 -11 970 -11 929 -1.5 c 128,-1,50
 888 8 888 8 854 23.5 c 128,-1,51
 820 39 820 39 792 60 c 128,-1,52
 764 81 764 81 741 104 c 1,53,54
 705 80 705 80 662 57.5 c 128,-1,55
 619 35 619 35 571 18 c 128,-1,56
 523 1 523 1 469.5 -9 c 128,-1,57
 416 -19 416 -19 358 -19 c 0,58,59
 258 -19 258 -19 186.5 2.5 c 128,-1,60
 115 24 115 24 69.5 63 c 128,-1,61
 24 102 24 102 2.5 156 c 128,-1,62
 -19 210 -19 210 -19 275 c 0,63,64
 -19 298 -19 298 -16.5 321 c 128,-1,65
 -14 344 -14 344 -9 369 c 0,0,1
612 239 m 1,66,67
 555 321 555 321 505.5 411 c 128,-1,68
 456 501 456 501 420 599 c 1,69,70
 387 582 387 582 357 559 c 128,-1,71
 327 536 327 536 302 507.5 c 128,-1,72
 277 479 277 479 259.5 445 c 128,-1,73
 242 411 242 411 235 373 c 0,74,75
 232 359 232 359 231 346 c 128,-1,76
 230 333 230 333 230 320 c 0,77,78
 230 286 230 286 240 257 c 128,-1,79
 250 228 250 228 271.5 207 c 128,-1,80
 293 186 293 186 326 174.5 c 128,-1,81
 359 163 359 163 404 163 c 0,82,83
 435 163 435 163 464.5 170 c 128,-1,84
 494 177 494 177 520.5 187.5 c 128,-1,85
 547 198 547 198 570.5 212 c 128,-1,86
 594 226 594 226 612 239 c 1,66,67
842 1071 m 0,87,88
 845 1088 845 1088 845 1102 c 0,89,90
 845 1144 845 1144 819.5 1169.5 c 128,-1,91
 794 1195 794 1195 741 1195 c 0,92,93
 667 1195 667 1195 620.5 1153.5 c 128,-1,94
 574 1112 574 1112 561 1044 c 0,95,96
 558 1030 558 1030 557 1015.5 c 128,-1,97
 556 1001 556 1001 556 986 c 0,98,99
 556 953 556 953 561.5 920.5 c 128,-1,100
 567 888 567 888 577 859 c 1,101,102
 627 880 627 880 671.5 901.5 c 128,-1,103
 716 923 716 923 751.5 948 c 128,-1,104
 787 973 787 973 811 1003.5 c 128,-1,105
 835 1034 835 1034 842 1071 c 0,87,88
EndSplineSet
EndChar

StartChar: quotesingle
Encoding: 39 39 10
Width: 1229
Flags: W
LayerCount: 2
Fore
SplineSet
773 844 m 1,0,-1
 574 844 l 1,1,-1
 662 1485 l 1,2,-1
 935 1485 l 1,3,-1
 773 844 l 1,0,-1
EndSplineSet
EndChar

StartChar: parenleft
Encoding: 40 40 11
Width: 1229
Flags: W
LayerCount: 2
Fore
SplineSet
453 -425 m 1,0,1
 379 -277 379 -277 342 -129.5 c 128,-1,2
 305 18 305 18 305 181 c 0,3,4
 305 263 305 263 314.5 349.5 c 128,-1,5
 324 436 324 436 342 531 c 0,6,7
 370 674 370 674 411.5 798.5 c 128,-1,8
 453 923 453 923 512 1038.5 c 128,-1,9
 571 1154 571 1154 648 1263.5 c 128,-1,10
 725 1373 725 1373 824 1484 c 1,11,-1
 1105 1484 l 1,12,13
 1003 1368 1003 1368 924 1255 c 128,-1,14
 845 1142 845 1142 786 1026 c 128,-1,15
 727 910 727 910 686 787.5 c 128,-1,16
 645 665 645 665 619 530 c 0,17,18
 602 439 602 439 593 356 c 128,-1,19
 584 273 584 273 584 193 c 0,20,21
 584 32 584 32 621 -118.5 c 128,-1,22
 658 -269 658 -269 734 -425 c 1,23,-1
 453 -425 l 1,0,1
EndSplineSet
EndChar

StartChar: parenright
Encoding: 41 41 12
Width: 1229
Flags: W
LayerCount: 2
Fore
SplineSet
119 -425 m 1,0,1
 222 -308 222 -308 301 -195.5 c 128,-1,2
 380 -83 380 -83 439 33 c 128,-1,3
 498 149 498 149 539 271.5 c 128,-1,4
 580 394 580 394 606 530 c 0,5,6
 623 620 623 620 632 703 c 128,-1,7
 641 786 641 786 641 866 c 0,8,9
 641 1028 641 1028 604 1178 c 128,-1,10
 567 1328 567 1328 490 1484 c 1,11,-1
 771 1484 l 1,12,13
 808 1410 808 1410 836 1336.5 c 128,-1,14
 864 1263 864 1263 882.5 1189 c 128,-1,15
 901 1115 901 1115 910.5 1038 c 128,-1,16
 920 961 920 961 920 880 c 256,17,18
 920 799 920 799 911 712.5 c 128,-1,19
 902 626 902 626 883 531 c 0,20,21
 856 389 856 389 814 263.5 c 128,-1,22
 772 138 772 138 713 22 c 128,-1,23
 654 -94 654 -94 576.5 -204 c 128,-1,24
 499 -314 499 -314 400 -425 c 1,25,-1
 119 -425 l 1,0,1
EndSplineSet
EndChar

StartChar: asterisk
Encoding: 42 42 13
Width: 1229
Flags: W
LayerCount: 2
Fore
SplineSet
836 1209 m 1,0,-1
 1091 1313 l 1,1,-1
 1121 1116 l 1,2,-1
 859 1055 l 1,3,-1
 1004 842 l 1,4,-1
 796 721 l 1,5,-1
 699 973 l 1,6,-1
 501 721 l 1,7,-1
 339 844 l 1,8,-1
 570 1055 l 1,9,-1
 332 1116 l 1,10,-1
 438 1313 l 1,11,-1
 657 1209 l 1,12,-1
 692 1483 l 1,13,-1
 907 1483 l 1,14,-1
 836 1209 l 1,0,-1
EndSplineSet
EndChar

StartChar: plus
Encoding: 43 43 14
Width: 1229
Flags: W
LayerCount: 2
Fore
SplineSet
726 569 m 1,0,-1
 726 161 l 1,1,-1
 500 161 l 1,2,-1
 500 569 l 1,3,-1
 101 569 l 1,4,-1
 101 793 l 1,5,-1
 500 793 l 1,6,-1
 500 1201 l 1,7,-1
 726 1201 l 1,8,-1
 726 793 l 1,9,-1
 1128 793 l 1,10,-1
 1128 569 l 1,11,-1
 726 569 l 1,0,-1
EndSplineSet
EndChar

StartChar: comma
Encoding: 44 44 15
Width: 1229
Flags: W
LayerCount: 2
Fore
SplineSet
82 -363 m 1,0,-1
 380 299 l 1,1,-1
 695 299 l 1,2,-1
 255 -363 l 1,3,-1
 82 -363 l 1,0,-1
EndSplineSet
EndChar

StartChar: uni00AD
Encoding: 173 173 16
AltUni2: 00002d.ffffffff.0 00002d.ffffffff.0 00002d.ffffffff.0 00002d.ffffffff.0 00002d.ffffffff.0 00002d.ffffffff.0 00002d.ffffffff.0
Width: 1229
Flags: W
LayerCount: 2
Fore
SplineSet
299 409 m 1,0,-1
 346 653 l 1,1,-1
 926 653 l 1,2,-1
 879 409 l 1,3,-1
 299 409 l 1,0,-1
EndSplineSet
EndChar

StartChar: period
Encoding: 46 46 17
Width: 1229
Flags: W
LayerCount: 2
Fore
SplineSet
365 0 m 1,0,-1
 424 305 l 1,1,-1
 713 305 l 1,2,-1
 654 0 l 1,3,-1
 365 0 l 1,0,-1
EndSplineSet
EndChar

StartChar: slash
Encoding: 47 47 18
Width: 1229
Flags: W
LayerCount: 2
Fore
SplineSet
-20 -20 m 1,0,-1
 1093 1484 l 1,1,-1
 1321 1484 l 1,2,-1
 212 -20 l 1,3,-1
 -20 -20 l 1,0,-1
EndSplineSet
EndChar

StartChar: zero
Encoding: 48 48 19
Width: 1229
Flags: W
LayerCount: 2
Fore
SplineSet
1137 675 m 0,0,1
 1100 484 1100 484 1035.5 351.5 c 128,-1,2
 971 219 971 219 888 136.5 c 128,-1,3
 805 54 805 54 706.5 17 c 128,-1,4
 608 -20 608 -20 502 -20 c 0,5,6
 417 -20 417 -20 345.5 3.5 c 128,-1,7
 274 27 274 27 222.5 78 c 128,-1,8
 171 129 171 129 142.5 210.5 c 128,-1,9
 114 292 114 292 114 408 c 0,10,11
 114 466 114 466 121 532.5 c 128,-1,12
 128 599 128 599 143 675 c 0,13,14
 182 876 182 876 245.5 1010 c 128,-1,15
 309 1144 309 1144 391 1224 c 128,-1,16
 473 1304 473 1304 571.5 1337 c 128,-1,17
 670 1370 670 1370 780 1370 c 0,18,19
 862 1370 862 1370 933 1349 c 128,-1,20
 1004 1328 1004 1328 1056.5 1279.5 c 128,-1,21
 1109 1231 1109 1231 1138.5 1150.5 c 128,-1,22
 1168 1070 1168 1070 1168 952 c 0,23,24
 1168 833 1168 833 1137 675 c 0,0,1
855 675 m 0,25,26
 891 859 891 859 891 963 c 0,27,28
 891 1015 891 1015 880.5 1051 c 128,-1,29
 870 1087 870 1087 850 1109 c 128,-1,30
 830 1131 830 1131 801.5 1140.5 c 128,-1,31
 773 1150 773 1150 736 1150 c 0,32,33
 677 1150 677 1150 631 1127 c 128,-1,34
 585 1104 585 1104 548 1049 c 128,-1,35
 511 994 511 994 481 902.5 c 128,-1,36
 451 811 451 811 424 675 c 1,37,38
 407 584 407 584 398 515 c 128,-1,39
 389 446 389 446 389 393 c 0,40,41
 389 288 389 288 430 244.5 c 128,-1,42
 471 201 471 201 547 201 c 0,43,44
 602 201 602 201 647 224.5 c 128,-1,45
 692 248 692 248 729.5 303.5 c 128,-1,46
 767 359 767 359 798 450 c 128,-1,47
 829 541 829 541 855 675 c 0,25,26
511 555 m 1,48,-1
 559 804 l 1,49,-1
 774 804 l 1,50,-1
 726 555 l 1,51,-1
 511 555 l 1,48,-1
EndSplineSet
EndChar

StartChar: one
Encoding: 49 49 20
Width: 1229
Flags: W
LayerCount: 2
Fore
SplineSet
44 0 m 1,0,-1
 85 209 l 1,1,-1
 474 209 l 1,2,-1
 647 1100 l 1,3,4
 620 1060 620 1060 573 1024.5 c 128,-1,5
 526 989 526 989 467 963 c 128,-1,6
 408 937 408 937 341.5 921.5 c 128,-1,7
 275 906 275 906 209 906 c 1,8,-1
 251 1120 l 1,9,10
 325 1120 325 1120 392.5 1137 c 128,-1,11
 460 1154 460 1154 518.5 1184.5 c 128,-1,12
 577 1215 577 1215 625.5 1257 c 128,-1,13
 674 1299 674 1299 710 1349 c 1,14,-1
 976 1349 l 1,15,-1
 755 209 l 1,16,-1
 1078 209 l 1,17,-1
 1037 0 l 1,18,-1
 44 0 l 1,0,-1
EndSplineSet
EndChar

StartChar: two
Encoding: 50 50 21
Width: 1229
Flags: W
LayerCount: 2
Fore
SplineSet
18 0 m 1,0,-1
 56 195 l 1,1,2
 125 300 125 300 210.5 385 c 128,-1,3
 296 470 296 470 385 540.5 c 128,-1,4
 474 611 474 611 560 670 c 128,-1,5
 646 729 646 729 716 782.5 c 128,-1,6
 786 836 786 836 832.5 887 c 128,-1,7
 879 938 879 938 890 992 c 0,8,9
 893 1010 893 1010 893 1027 c 0,10,11
 893 1083 893 1083 853.5 1114.5 c 128,-1,12
 814 1146 814 1146 735 1146 c 0,13,14
 645 1146 645 1146 588 1097.5 c 128,-1,15
 531 1049 531 1049 498 952 c 1,16,-1
 218 968 l 1,17,18
 244 1051 244 1051 289.5 1124 c 128,-1,19
 335 1197 335 1197 403 1252 c 128,-1,20
 471 1307 471 1307 563.5 1338.5 c 128,-1,21
 656 1370 656 1370 776 1370 c 0,22,23
 877 1370 877 1370 953.5 1348 c 128,-1,24
 1030 1326 1030 1326 1081 1287 c 128,-1,25
 1132 1248 1132 1248 1158 1193.5 c 128,-1,26
 1184 1139 1184 1139 1184 1074 c 0,27,28
 1184 1038 1184 1038 1177 1004 c 0,29,30
 1160 915 1160 915 1106.5 841.5 c 128,-1,31
 1053 768 1053 768 979.5 703.5 c 128,-1,32
 906 639 906 639 820.5 581 c 128,-1,33
 735 523 735 523 654 467 c 128,-1,34
 573 411 573 411 504 353.5 c 128,-1,35
 435 296 435 296 395 231 c 1,36,-1
 1049 231 l 1,37,-1
 1004 0 l 1,38,-1
 18 0 l 1,0,-1
EndSplineSet
EndChar

StartChar: three
Encoding: 51 51 22
Width: 1229
Flags: W
LayerCount: 2
Fore
SplineSet
1093 376 m 0,0,1
 1075 286 1075 286 1028 212 c 128,-1,2
 981 138 981 138 906 86 c 128,-1,3
 831 34 831 34 730.5 5.5 c 128,-1,4
 630 -23 630 -23 506 -23 c 0,5,6
 377 -23 377 -23 291.5 6 c 128,-1,7
 206 35 206 35 154 83.5 c 128,-1,8
 102 132 102 132 80.5 195.5 c 128,-1,9
 59 259 59 259 59 329 c 0,10,11
 59 339 59 339 59 348.5 c 128,-1,12
 59 358 59 358 60 368 c 1,13,-1
 350 393 l 1,14,15
 345 302 345 302 392 253.5 c 128,-1,16
 439 205 439 205 549 205 c 0,17,18
 599 205 599 205 642.5 217.5 c 128,-1,19
 686 230 686 230 720 254 c 128,-1,20
 754 278 754 278 776.5 313 c 128,-1,21
 799 348 799 348 808 393 c 0,22,23
 810 402 810 402 811 411 c 128,-1,24
 812 420 812 420 812 428 c 0,25,26
 812 473 812 473 787.5 501.5 c 128,-1,27
 763 530 763 530 726 545.5 c 128,-1,28
 689 561 689 561 645 566.5 c 128,-1,29
 601 572 601 572 563 572 c 2,30,-1
 465 572 l 1,31,-1
 509 799 l 1,32,-1
 601 799 l 2,33,34
 643 799 643 799 689.5 806.5 c 128,-1,35
 736 814 736 814 777 834 c 128,-1,36
 818 854 818 854 848.5 888 c 128,-1,37
 879 922 879 922 889 975 c 0,38,39
 892 993 892 993 892 1009 c 0,40,41
 892 1071 892 1071 848 1108.5 c 128,-1,42
 804 1146 804 1146 722 1146 c 0,43,44
 635 1146 635 1146 572 1105.5 c 128,-1,45
 509 1065 509 1065 483 977 c 1,46,-1
 206 997 l 1,47,48
 237 1096 237 1096 293.5 1166.5 c 128,-1,49
 350 1237 350 1237 424.5 1282 c 128,-1,50
 499 1327 499 1327 587.5 1348.5 c 128,-1,51
 676 1370 676 1370 770 1370 c 0,52,53
 879 1370 879 1370 958 1347 c 128,-1,54
 1037 1324 1037 1324 1088 1284 c 128,-1,55
 1139 1244 1139 1244 1163 1190.5 c 128,-1,56
 1187 1137 1187 1137 1187 1076 c 0,57,58
 1187 1059 1187 1059 1185 1043 c 128,-1,59
 1183 1027 1183 1027 1180 1010 c 0,60,61
 1169 953 1169 953 1141.5 902.5 c 128,-1,62
 1114 852 1114 852 1069 811 c 128,-1,63
 1024 770 1024 770 961.5 740 c 128,-1,64
 899 710 899 710 818 695 c 1,65,-1
 817 691 l 1,66,67
 891 682 891 682 944.5 659 c 128,-1,68
 998 636 998 636 1032.5 602 c 128,-1,69
 1067 568 1067 568 1083 525 c 128,-1,70
 1099 482 1099 482 1099 435 c 0,71,72
 1099 406 1099 406 1093 376 c 0,0,1
EndSplineSet
EndChar

StartChar: four
Encoding: 52 52 23
Width: 1229
Flags: W
LayerCount: 2
Fore
SplineSet
931 287 m 1,0,-1
 875 0 l 1,1,-1
 607 0 l 1,2,-1
 663 287 l 1,3,-1
 22 287 l 1,4,-1
 63 498 l 1,5,-1
 823 1349 l 1,6,-1
 1137 1349 l 1,7,-1
 971 496 l 1,8,-1
 1159 496 l 1,9,-1
 1119 287 l 1,10,-1
 931 287 l 1,0,-1
783 907 m 2,11,12
 786 924 786 924 792.5 951.5 c 128,-1,13
 799 979 799 979 805.5 1008 c 128,-1,14
 812 1037 812 1037 819 1063.5 c 128,-1,15
 826 1090 826 1090 831 1105 c 1,16,17
 824 1094 824 1094 808.5 1073.5 c 128,-1,18
 793 1053 793 1053 775 1029.5 c 128,-1,19
 757 1006 757 1006 738.5 983 c 128,-1,20
 720 960 720 960 705 943 c 2,21,-1
 298 496 l 1,22,-1
 703 496 l 1,23,-1
 783 907 l 2,11,12
EndSplineSet
EndChar

StartChar: five
Encoding: 53 53 24
Width: 1229
Flags: W
LayerCount: 2
Fore
SplineSet
1106 454 m 0,0,1
 1087 354 1087 354 1036 267 c 128,-1,2
 985 180 985 180 907 116.5 c 128,-1,3
 829 53 829 53 724.5 16.5 c 128,-1,4
 620 -20 620 -20 492 -20 c 0,5,6
 377 -20 377 -20 296 7.5 c 128,-1,7
 215 35 215 35 164 83 c 128,-1,8
 113 131 113 131 90 196 c 128,-1,9
 67 261 67 261 67 336 c 2,10,-1
 67 352 l 1,11,-1
 353 375 l 1,12,13
 354 342 354 342 363 311 c 128,-1,14
 372 280 372 280 393 256 c 128,-1,15
 414 232 414 232 449 217.5 c 128,-1,16
 484 203 484 203 538 203 c 0,17,18
 591 203 591 203 636.5 219 c 128,-1,19
 682 235 682 235 718 266 c 128,-1,20
 754 297 754 297 779 343 c 128,-1,21
 804 389 804 389 816 448 c 0,22,23
 822 478 822 478 822 506 c 0,24,25
 822 585 822 585 774.5 631 c 128,-1,26
 727 677 727 677 637 677 c 0,27,28
 567 677 567 677 516.5 650.5 c 128,-1,29
 466 624 466 624 428 586 c 1,30,-1
 154 586 l 1,31,-1
 351 1349 l 1,32,-1
 1198 1349 l 1,33,-1
 1158 1140 l 1,34,-1
 566 1140 l 1,35,-1
 479 814 l 1,36,37
 529 851 529 851 598 877.5 c 128,-1,38
 667 904 667 904 752 904 c 0,39,40
 841 904 841 904 909 879.5 c 128,-1,41
 977 855 977 855 1023 810 c 128,-1,42
 1069 765 1069 765 1093 702 c 128,-1,43
 1117 639 1117 639 1117 562 c 0,44,45
 1117 512 1117 512 1106 454 c 0,0,1
EndSplineSet
EndChar

StartChar: six
Encoding: 54 54 25
Width: 1229
Flags: W
LayerCount: 2
Fore
SplineSet
1097 446 m 0,0,1
 1077 345 1077 345 1030.5 259.5 c 128,-1,2
 984 174 984 174 912 112 c 128,-1,3
 840 50 840 50 744.5 15 c 128,-1,4
 649 -20 649 -20 532 -20 c 0,5,6
 432 -20 432 -20 356 11.5 c 128,-1,7
 280 43 280 43 229 102.5 c 128,-1,8
 178 162 178 162 152.5 247.5 c 128,-1,9
 127 333 127 333 127 442 c 0,10,11
 127 548 127 548 151 672 c 0,12,13
 185 849 185 849 245 980 c 128,-1,14
 305 1111 305 1111 388 1198 c 128,-1,15
 471 1285 471 1285 577 1327.5 c 128,-1,16
 683 1370 683 1370 809 1370 c 0,17,18
 893 1370 893 1370 959 1352.5 c 128,-1,19
 1025 1335 1025 1335 1071 1296 c 128,-1,20
 1117 1257 1117 1257 1143 1195.5 c 128,-1,21
 1169 1134 1169 1134 1175 1046 c 1,22,-1
 903 1009 l 1,23,24
 898 1083 898 1083 858.5 1115.5 c 128,-1,25
 819 1148 819 1148 760 1148 c 0,26,27
 646 1148 646 1148 561 1039.5 c 128,-1,28
 476 931 476 931 435 722 c 1,29,30
 495 797 495 797 582.5 837 c 128,-1,31
 670 877 670 877 771 877 c 0,32,33
 851 877 851 877 913.5 854.5 c 128,-1,34
 976 832 976 832 1019 790.5 c 128,-1,35
 1062 749 1062 749 1085 689 c 128,-1,36
 1108 629 1108 629 1108 554 c 0,37,38
 1108 528 1108 528 1105 501.5 c 128,-1,39
 1102 475 1102 475 1097 446 c 0,0,1
813 438 m 0,40,41
 817 455 817 455 818.5 471.5 c 128,-1,42
 820 488 820 488 820 503 c 0,43,44
 820 579 820 579 778 624.5 c 128,-1,45
 736 670 736 670 650 670 c 0,46,47
 613 670 613 670 573.5 658 c 128,-1,48
 534 646 534 646 500.5 621 c 128,-1,49
 467 596 467 596 441.5 558 c 128,-1,50
 416 520 416 520 406 468 c 0,51,52
 402 450 402 450 400.5 432.5 c 128,-1,53
 399 415 399 415 399 398 c 0,54,55
 399 356 399 356 410 319.5 c 128,-1,56
 421 283 421 283 442 256 c 128,-1,57
 463 229 463 229 494 214 c 128,-1,58
 525 199 525 199 566 199 c 0,59,60
 613 199 613 199 653.5 216 c 128,-1,61
 694 233 694 233 726 264.5 c 128,-1,62
 758 296 758 296 780.5 340 c 128,-1,63
 803 384 803 384 813 438 c 0,40,41
EndSplineSet
EndChar

StartChar: seven
Encoding: 55 55 26
Width: 1229
Flags: W
LayerCount: 2
Fore
SplineSet
1206 1126 m 1,0,1
 1077 987 1077 987 966 851.5 c 128,-1,2
 855 716 855 716 766.5 578 c 128,-1,3
 678 440 678 440 616 296.5 c 128,-1,4
 554 153 554 153 524 0 c 1,5,-1
 231 0 l 1,6,7
 261 152 261 152 326.5 297 c 128,-1,8
 392 442 392 442 485 581 c 128,-1,9
 578 720 578 720 694.5 854 c 128,-1,10
 811 988 811 988 943 1118 c 1,11,-1
 243 1118 l 1,12,-1
 288 1349 l 1,13,-1
 1249 1349 l 1,14,-1
 1206 1126 l 1,0,1
EndSplineSet
EndChar

StartChar: eight
Encoding: 56 56 27
Width: 1229
Flags: W
LayerCount: 2
Fore
SplineSet
1089 382 m 0,0,1
 1073 297 1073 297 1028.5 223.5 c 128,-1,2
 984 150 984 150 911.5 96 c 128,-1,3
 839 42 839 42 738 11 c 128,-1,4
 637 -20 637 -20 506 -20 c 0,5,6
 392 -20 392 -20 309.5 3.5 c 128,-1,7
 227 27 227 27 173.5 69 c 128,-1,8
 120 111 120 111 94.5 169 c 128,-1,9
 69 227 69 227 69 296 c 0,10,11
 69 337 69 337 78 380 c 0,12,13
 92 451 92 451 127 508 c 128,-1,14
 162 565 162 565 210 606 c 128,-1,15
 258 647 258 647 314.5 672.5 c 128,-1,16
 371 698 371 698 428 707 c 1,17,-1
 429 711 l 1,18,19
 331 734 331 734 279.5 800 c 128,-1,20
 228 866 228 866 228 953 c 0,21,22
 228 982 228 982 234 1012 c 0,23,24
 249 1091 249 1091 292 1156.5 c 128,-1,25
 335 1222 335 1222 403.5 1269.5 c 128,-1,26
 472 1317 472 1317 564.5 1343.5 c 128,-1,27
 657 1370 657 1370 772 1370 c 0,28,29
 879 1370 879 1370 957 1349 c 128,-1,30
 1035 1328 1035 1328 1085.5 1290.5 c 128,-1,31
 1136 1253 1136 1253 1160 1201 c 128,-1,32
 1184 1149 1184 1149 1184 1086 c 0,33,34
 1184 1068 1184 1068 1182 1049 c 128,-1,35
 1180 1030 1180 1030 1176 1010 c 0,36,37
 1166 960 1166 960 1139.5 912 c 128,-1,38
 1113 864 1113 864 1072 823.5 c 128,-1,39
 1031 783 1031 783 978 754 c 128,-1,40
 925 725 925 725 863 713 c 1,41,-1
 862 709 l 1,42,43
 914 701 914 701 957 680.5 c 128,-1,44
 1000 660 1000 660 1031 627.5 c 128,-1,45
 1062 595 1062 595 1079 551.5 c 128,-1,46
 1096 508 1096 508 1096 454 c 0,47,48
 1096 417 1096 417 1089 382 c 0,0,1
884 995 m 0,49,50
 886 1009 886 1009 887.5 1022 c 128,-1,51
 889 1035 889 1035 889 1047 c 0,52,53
 889 1074 889 1074 881 1097.5 c 128,-1,54
 873 1121 873 1121 855 1137.5 c 128,-1,55
 837 1154 837 1154 807.5 1163.5 c 128,-1,56
 778 1173 778 1173 734 1173 c 0,57,58
 682 1173 682 1173 644.5 1159 c 128,-1,59
 607 1145 607 1145 581 1121 c 128,-1,60
 555 1097 555 1097 539.5 1064.5 c 128,-1,61
 524 1032 524 1032 517 995 c 0,62,63
 515 982 515 982 513.5 969.5 c 128,-1,64
 512 957 512 957 512 943 c 0,65,66
 512 917 512 917 519 892.5 c 128,-1,67
 526 868 526 868 543 849.5 c 128,-1,68
 560 831 560 831 590 819.5 c 128,-1,69
 620 808 620 808 665 808 c 0,70,71
 725 808 725 808 765 826 c 128,-1,72
 805 844 805 844 829.5 871.5 c 128,-1,73
 854 899 854 899 866 932 c 128,-1,74
 878 965 878 965 884 995 c 0,49,50
803 405 m 0,75,76
 809 432 809 432 809 460 c 0,77,78
 809 490 809 490 800 517.5 c 128,-1,79
 791 545 791 545 770 565.5 c 128,-1,80
 749 586 749 586 713 598.5 c 128,-1,81
 677 611 677 611 623 611 c 0,82,83
 563 611 563 611 518.5 593 c 128,-1,84
 474 575 474 575 444 545 c 128,-1,85
 414 515 414 515 396.5 477.5 c 128,-1,86
 379 440 379 440 371 401 c 0,87,88
 364 367 364 367 364 333 c 256,89,90
 364 299 364 299 373.5 270 c 128,-1,91
 383 241 383 241 405 221 c 128,-1,92
 427 201 427 201 461.5 189.5 c 128,-1,93
 496 178 496 178 547 178 c 0,94,95
 610 178 610 178 654 195.5 c 128,-1,96
 698 213 698 213 728 243.5 c 128,-1,97
 758 274 758 274 776 315.5 c 128,-1,98
 794 357 794 357 803 405 c 0,75,76
EndSplineSet
EndChar

StartChar: nine
Encoding: 57 57 28
Width: 1229
Flags: W
LayerCount: 2
Fore
SplineSet
1136 697 m 0,0,1
 1102 521 1102 521 1041 387 c 128,-1,2
 980 253 980 253 895.5 162.5 c 128,-1,3
 811 72 811 72 704 26 c 128,-1,4
 597 -20 597 -20 471 -20 c 0,5,6
 380 -20 380 -20 311.5 -1 c 128,-1,7
 243 18 243 18 196.5 58 c 128,-1,8
 150 98 150 98 124.5 161 c 128,-1,9
 99 224 99 224 94 311 c 1,10,-1
 366 348 l 1,11,12
 371 273 371 273 409.5 237 c 128,-1,13
 448 201 448 201 517 201 c 0,14,15
 630 201 630 201 716.5 306 c 128,-1,16
 803 411 803 411 845 619 c 1,17,18
 817 580 817 580 778 550 c 128,-1,19
 739 520 739 520 694 500 c 128,-1,20
 649 480 649 480 600 469.5 c 128,-1,21
 551 459 551 459 503 459 c 0,22,23
 425 459 425 459 364 482.5 c 128,-1,24
 303 506 303 506 260.5 549.5 c 128,-1,25
 218 593 218 593 196 655 c 128,-1,26
 174 717 174 717 174 794 c 0,27,28
 174 850 174 850 186 913 c 0,29,30
 207 1020 207 1020 257 1104.5 c 128,-1,31
 307 1189 307 1189 381.5 1248 c 128,-1,32
 456 1307 456 1307 553.5 1338.5 c 128,-1,33
 651 1370 651 1370 767 1370 c 0,34,35
 961 1370 961 1370 1062 1265 c 128,-1,36
 1163 1160 1163 1160 1163 945 c 0,37,38
 1163 835 1163 835 1136 697 c 0,0,1
875 879 m 0,39,40
 879 899 879 899 881 918 c 128,-1,41
 883 937 883 937 883 955 c 0,42,43
 883 997 883 997 873 1032.5 c 128,-1,44
 863 1068 863 1068 842.5 1094 c 128,-1,45
 822 1120 822 1120 791 1135 c 128,-1,46
 760 1150 760 1150 718 1150 c 0,47,48
 671 1150 671 1150 630.5 1132.5 c 128,-1,49
 590 1115 590 1115 558 1083.5 c 128,-1,50
 526 1052 526 1052 503.5 1008 c 128,-1,51
 481 964 481 964 471 911 c 0,52,53
 464 879 464 879 464 845 c 0,54,55
 464 807 464 807 474 774.5 c 128,-1,56
 484 742 484 742 504 718.5 c 128,-1,57
 524 695 524 695 554 681.5 c 128,-1,58
 584 668 584 668 625 668 c 0,59,60
 664 668 664 668 704 681 c 128,-1,61
 744 694 744 694 778.5 720.5 c 128,-1,62
 813 747 813 747 839 786.5 c 128,-1,63
 865 826 865 826 875 879 c 0,39,40
EndSplineSet
EndChar

StartChar: colon
Encoding: 58 58 29
Width: 1229
Flags: W
LayerCount: 2
Fore
SplineSet
365 0 m 1,0,-1
 424 305 l 1,1,-1
 713 305 l 1,2,-1
 654 0 l 1,3,-1
 365 0 l 1,0,-1
517 780 m 1,4,-1
 576 1085 l 1,5,-1
 865 1085 l 1,6,-1
 806 780 l 1,7,-1
 517 780 l 1,4,-1
EndSplineSet
EndChar

StartChar: uni037E
Encoding: 894 894 30
AltUni2: 00003b.ffffffff.0 00003b.ffffffff.0 00003b.ffffffff.0 00003b.ffffffff.0 00003b.ffffffff.0 00003b.ffffffff.0 00003b.ffffffff.0
Width: 1229
Flags: W
LayerCount: 2
Fore
SplineSet
526 780 m 1,0,-1
 585 1085 l 1,1,-1
 874 1085 l 1,2,-1
 815 780 l 1,3,-1
 526 780 l 1,0,-1
150 -363 m 1,4,-1
 448 299 l 1,5,-1
 763 299 l 1,6,-1
 323 -363 l 1,7,-1
 150 -363 l 1,4,-1
EndSplineSet
EndChar

StartChar: less
Encoding: 60 60 31
Width: 1229
Flags: W
LayerCount: 2
Fore
SplineSet
101 516 m 1,0,-1
 101 838 l 1,1,-1
 1128 1229 l 1,2,-1
 1128 1001 l 1,3,-1
 295 676 l 1,4,-1
 1128 352 l 1,5,-1
 1128 125 l 1,6,-1
 101 516 l 1,0,-1
EndSplineSet
EndChar

StartChar: equal
Encoding: 61 61 32
Width: 1229
Flags: W
LayerCount: 2
Fore
SplineSet
101 842 m 1,0,-1
 101 1065 l 1,1,-1
 1128 1065 l 1,2,-1
 1128 842 l 1,3,-1
 101 842 l 1,0,-1
101 291 m 1,4,-1
 101 512 l 1,5,-1
 1128 512 l 1,6,-1
 1128 291 l 1,7,-1
 101 291 l 1,4,-1
EndSplineSet
EndChar

StartChar: greater
Encoding: 62 62 33
Width: 1229
Flags: W
LayerCount: 2
Fore
SplineSet
101 125 m 1,0,-1
 101 352 l 1,1,-1
 933 676 l 1,2,-1
 101 1001 l 1,3,-1
 101 1229 l 1,4,-1
 1128 838 l 1,5,-1
 1128 516 l 1,6,-1
 101 125 l 1,0,-1
EndSplineSet
EndChar

StartChar: question
Encoding: 63 63 34
Width: 1229
Flags: W
LayerCount: 2
Fore
SplineSet
1200 986 m 0,0,1
 1184 906 1184 906 1142.5 848 c 128,-1,2
 1101 790 1101 790 1046 745 c 128,-1,3
 991 700 991 700 930.5 663.5 c 128,-1,4
 870 627 870 627 816 589 c 128,-1,5
 762 551 762 551 721.5 508 c 128,-1,6
 681 465 681 465 667 406 c 1,7,-1
 400 406 l 1,8,9
 416 470 416 470 445 520 c 128,-1,10
 474 570 474 570 510.5 609.5 c 128,-1,11
 547 649 547 649 589 680 c 128,-1,12
 631 711 631 711 673.5 738.5 c 128,-1,13
 716 766 716 766 756 791.5 c 128,-1,14
 796 817 796 817 828.5 844 c 128,-1,15
 861 871 861 871 883.5 902.5 c 128,-1,16
 906 934 906 934 914 974 c 0,17,18
 917 991 917 991 917 1005 c 0,19,20
 917 1065 917 1065 868.5 1104.5 c 128,-1,21
 820 1144 820 1144 726 1144 c 0,22,23
 675 1144 675 1144 629 1128.5 c 128,-1,24
 583 1113 583 1113 545 1085 c 128,-1,25
 507 1057 507 1057 478.5 1017 c 128,-1,26
 450 977 450 977 435 929 c 1,27,-1
 152 941 l 1,28,29
 181 1030 181 1030 233.5 1108 c 128,-1,30
 286 1186 286 1186 362.5 1244 c 128,-1,31
 439 1302 439 1302 540 1336 c 128,-1,32
 641 1370 641 1370 766 1370 c 0,33,34
 873 1370 873 1370 955 1347.5 c 128,-1,35
 1037 1325 1037 1325 1093 1284.5 c 128,-1,36
 1149 1244 1149 1244 1178 1186.5 c 128,-1,37
 1207 1129 1207 1129 1207 1058 c 0,38,39
 1207 1021 1207 1021 1200 986 c 0,0,1
313 0 m 1,40,-1
 365 270 l 1,41,-1
 654 270 l 1,42,-1
 602 0 l 1,43,-1
 313 0 l 1,40,-1
EndSplineSet
EndChar

StartChar: at
Encoding: 64 64 35
Width: 1229
Flags: W
LayerCount: 2
Fore
SplineSet
1231 755 m 0,0,1
 1203 611 1203 611 1159 491.5 c 128,-1,2
 1115 372 1115 372 1059 286 c 128,-1,3
 1003 200 1003 200 937 152 c 128,-1,4
 871 104 871 104 799 104 c 0,5,6
 774 104 774 104 752.5 109.5 c 128,-1,7
 731 115 731 115 715.5 128 c 128,-1,8
 700 141 700 141 691 161.5 c 128,-1,9
 682 182 682 182 682 212 c 0,10,11
 682 223 682 223 683 235 c 128,-1,12
 684 247 684 247 687 261 c 0,13,14
 687 263 687 263 688.5 270 c 128,-1,15
 690 277 690 277 692 284.5 c 128,-1,16
 694 292 694 292 695.5 299 c 128,-1,17
 697 306 697 306 698 309 c 1,18,-1
 692 309 l 1,19,20
 670 270 670 270 639.5 233 c 128,-1,21
 609 196 609 196 574 167.5 c 128,-1,22
 539 139 539 139 499 121.5 c 128,-1,23
 459 104 459 104 417 104 c 0,24,25
 371 104 371 104 339.5 122 c 128,-1,26
 308 140 308 140 288.5 171 c 128,-1,27
 269 202 269 202 260 244.5 c 128,-1,28
 251 287 251 287 251 336 c 0,29,30
 251 372 251 372 255 410.5 c 128,-1,31
 259 449 259 449 267 489 c 0,32,33
 282 565 282 565 308 640 c 128,-1,34
 334 715 334 715 369.5 783 c 128,-1,35
 405 851 405 851 448 909.5 c 128,-1,36
 491 968 491 968 540.5 1010.5 c 128,-1,37
 590 1053 590 1053 643.5 1077 c 128,-1,38
 697 1101 697 1101 753 1101 c 0,39,40
 790 1101 790 1101 815.5 1088 c 128,-1,41
 841 1075 841 1075 856.5 1052 c 128,-1,42
 872 1029 872 1029 878.5 997.5 c 128,-1,43
 885 966 885 966 883 928 c 1,44,-1
 888 928 l 1,45,-1
 951 1079 l 1,46,-1
 1086 1079 l 1,47,-1
 888 572 l 2,48,49
 872 530 872 530 857 489.5 c 128,-1,50
 842 449 842 449 829 412.5 c 128,-1,51
 816 376 816 376 807 345.5 c 128,-1,52
 798 315 798 315 794 294 c 0,53,54
 791 276 791 276 791 264 c 0,55,56
 791 239 791 239 802 232.5 c 128,-1,57
 813 226 813 226 830 226 c 0,58,59
 868 226 868 226 906 264 c 128,-1,60
 944 302 944 302 979 371 c 128,-1,61
 1014 440 1014 440 1045 537.5 c 128,-1,62
 1076 635 1076 635 1099 753 c 0,63,64
 1120 861 1120 861 1120 958 c 0,65,66
 1120 1046 1120 1046 1102 1119.5 c 128,-1,67
 1084 1193 1084 1193 1048 1246 c 128,-1,68
 1012 1299 1012 1299 957.5 1328.5 c 128,-1,69
 903 1358 903 1358 829 1358 c 0,70,71
 711 1358 711 1358 607 1292 c 128,-1,72
 503 1226 503 1226 418 1111.5 c 128,-1,73
 333 997 333 997 271 843 c 128,-1,74
 209 689 209 689 175 514 c 0,75,76
 162 449 162 449 156 389.5 c 128,-1,77
 150 330 150 330 150 275 c 0,78,79
 150 176 150 176 170.5 96.5 c 128,-1,80
 191 17 191 17 231 -39 c 128,-1,81
 271 -95 271 -95 331 -125 c 128,-1,82
 391 -155 391 -155 469 -155 c 0,83,84
 528 -155 528 -155 581 -142.5 c 128,-1,85
 634 -130 634 -130 683 -109 c 128,-1,86
 732 -88 732 -88 778 -59 c 128,-1,87
 824 -30 824 -30 869 3 c 1,88,-1
 921 -94 l 1,89,90
 870 -131 870 -131 815 -165 c 128,-1,91
 760 -199 760 -199 699.5 -225.5 c 128,-1,92
 639 -252 639 -252 573 -267.5 c 128,-1,93
 507 -283 507 -283 434 -283 c 0,94,95
 332 -283 332 -283 253 -246.5 c 128,-1,96
 174 -210 174 -210 120.5 -141 c 128,-1,97
 67 -72 67 -72 39 26.5 c 128,-1,98
 11 125 11 125 11 249 c 0,99,100
 11 310 11 310 18 376 c 128,-1,101
 25 442 25 442 39 514 c 0,102,103
 80 723 80 723 156 900.5 c 128,-1,104
 232 1078 232 1078 337.5 1208 c 128,-1,105
 443 1338 443 1338 574 1411 c 128,-1,106
 705 1484 705 1484 855 1484 c 0,107,108
 959 1484 959 1484 1034.5 1446.5 c 128,-1,109
 1110 1409 1110 1409 1159 1342 c 128,-1,110
 1208 1275 1208 1275 1231.5 1184.5 c 128,-1,111
 1255 1094 1255 1094 1255 987 c 0,112,113
 1255 875 1255 875 1231 755 c 0,0,1
802 784 m 0,114,115
 812 834 812 834 812 873 c 0,116,117
 812 979 812 979 731 979 c 0,118,119
 680 979 680 979 632 934 c 128,-1,120
 584 889 584 889 542.5 818.5 c 128,-1,121
 501 748 501 748 470 661.5 c 128,-1,122
 439 575 439 575 422 491 c 0,123,124
 414 450 414 450 409 411 c 128,-1,125
 404 372 404 372 404 339 c 0,126,127
 404 291 404 291 417.5 260.5 c 128,-1,128
 431 230 431 230 466 230 c 0,129,130
 503 230 503 230 540 255 c 128,-1,131
 577 280 577 280 612.5 327.5 c 128,-1,132
 648 375 648 375 681.5 442.5 c 128,-1,133
 715 510 715 510 744 595 c 0,134,135
 751 614 751 614 760 640 c 128,-1,136
 769 666 769 666 777 693 c 128,-1,137
 785 720 785 720 792 744.5 c 128,-1,138
 799 769 799 769 802 784 c 0,114,115
EndSplineSet
EndChar

StartChar: A
Encoding: 65 65 36
Width: 1229
Flags: W
LayerCount: 2
Fore
SplineSet
1124 0 m 1,0,-1
 830 0 l 1,1,-1
 802 330 l 1,2,-1
 346 330 l 1,3,-1
 190 0 l 1,4,-1
 -105 0 l 1,5,-1
 600 1349 l 1,6,-1
 944 1349 l 1,7,-1
 1124 0 l 1,0,-1
737 1167 m 1,8,9
 733 1157 733 1157 722.5 1132 c 128,-1,10
 712 1107 712 1107 698 1075 c 128,-1,11
 684 1043 684 1043 667 1005.5 c 128,-1,12
 650 968 650 968 633 932 c 2,13,-1
 451 552 l 1,14,-1
 783 552 l 1,15,-1
 749 932 l 2,16,17
 746 968 746 968 744 1005.5 c 128,-1,18
 742 1043 742 1043 740.5 1075 c 128,-1,19
 739 1107 739 1107 738 1132 c 128,-1,20
 737 1157 737 1157 737 1167 c 1,8,9
EndSplineSet
EndChar

StartChar: B
Encoding: 66 66 37
Width: 1229
Flags: W
LayerCount: 2
Fore
SplineSet
1156 385 m 0,0,1
 1136 282 1136 282 1084 209 c 128,-1,2
 1032 136 1032 136 959 89.5 c 128,-1,3
 886 43 886 43 797 21.5 c 128,-1,4
 708 0 708 0 614 0 c 2,5,-1
 32 0 l 1,6,-1
 294 1349 l 1,7,-1
 819 1349 l 2,8,9
 910 1349 910 1349 981.5 1333 c 128,-1,10
 1053 1317 1053 1317 1102.5 1285 c 128,-1,11
 1152 1253 1152 1253 1178 1203.5 c 128,-1,12
 1204 1154 1204 1154 1204 1088 c 0,13,14
 1204 1070 1204 1070 1202 1050.5 c 128,-1,15
 1200 1031 1200 1031 1196 1010 c 0,16,17
 1174 895 1174 895 1092.5 816.5 c 128,-1,18
 1011 738 1011 738 869 709 c 1,19,20
 1014 693 1014 693 1088.5 627.5 c 128,-1,21
 1163 562 1163 562 1163 453 c 0,22,23
 1163 419 1163 419 1156 385 c 0,0,1
892 970 m 0,24,25
 897 998 897 998 897 1017 c 0,26,27
 897 1078 897 1078 859.5 1104 c 128,-1,28
 822 1130 822 1130 756 1130 c 2,29,-1
 547 1130 l 1,30,-1
 485 811 l 1,31,-1
 696 811 l 2,32,33
 860 811 860 811 892 970 c 0,24,25
864 410 m 0,34,35
 869 438 869 438 869 457 c 0,36,37
 869 495 869 495 855 521 c 128,-1,38
 841 547 841 547 817 563 c 128,-1,39
 793 579 793 579 760.5 586 c 128,-1,40
 728 593 728 593 692 593 c 2,41,-1
 442 593 l 1,42,-1
 370 219 l 1,43,-1
 627 219 l 2,44,45
 667 219 667 219 705 228 c 128,-1,46
 743 237 743 237 774.5 258.5 c 128,-1,47
 806 280 806 280 829.5 317 c 128,-1,48
 853 354 853 354 864 410 c 0,34,35
EndSplineSet
EndChar

StartChar: C
Encoding: 67 67 38
Width: 1229
Flags: W
LayerCount: 2
Fore
SplineSet
407 681 m 0,0,1
 386 572 386 572 386 486 c 0,2,3
 386 352 386 352 437.5 282 c 128,-1,4
 489 212 489 212 595 212 c 0,5,6
 640 212 640 212 680.5 230 c 128,-1,7
 721 248 721 248 757 280.5 c 128,-1,8
 793 313 793 313 824.5 358 c 128,-1,9
 856 403 856 403 883 456 c 1,10,-1
 1146 404 l 1,11,12
 1095 305 1095 305 1033.5 226.5 c 128,-1,13
 972 148 972 148 897.5 93.5 c 128,-1,14
 823 39 823 39 736 9.5 c 128,-1,15
 649 -20 649 -20 547 -20 c 0,16,17
 425 -20 425 -20 337 12.5 c 128,-1,18
 249 45 249 45 192.5 106 c 128,-1,19
 136 167 136 167 109.5 254 c 128,-1,20
 83 341 83 341 83 449 c 256,21,22
 83 557 83 557 107 681 c 0,23,24
 140 848 140 848 199 976 c 128,-1,25
 258 1104 258 1104 345 1192 c 128,-1,26
 432 1280 432 1280 548 1325 c 128,-1,27
 664 1370 664 1370 809 1370 c 0,28,29
 913 1370 913 1370 988 1341 c 128,-1,30
 1063 1312 1063 1312 1113.5 1260.5 c 128,-1,31
 1164 1209 1164 1209 1192 1137.5 c 128,-1,32
 1220 1066 1220 1066 1230 981 c 1,33,-1
 945 915 l 1,34,35
 941 963 941 963 928.5 1004 c 128,-1,36
 916 1045 916 1045 894 1075 c 128,-1,37
 872 1105 872 1105 840.5 1121.5 c 128,-1,38
 809 1138 809 1138 768 1138 c 0,39,40
 632 1138 632 1138 541.5 1022.5 c 128,-1,41
 451 907 451 907 407 681 c 0,0,1
EndSplineSet
EndChar

StartChar: D
Encoding: 68 68 39
Width: 1229
Flags: W
LayerCount: 2
Fore
SplineSet
1177 685 m 0,0,1
 1144 517 1144 517 1079.5 389 c 128,-1,2
 1015 261 1015 261 922 174.5 c 128,-1,3
 829 88 829 88 710 44 c 128,-1,4
 591 0 591 0 451 0 c 2,5,-1
 30 0 l 1,6,-1
 292 1349 l 1,7,-1
 653 1349 l 2,8,9
 786 1349 786 1349 888 1321.5 c 128,-1,10
 990 1294 990 1294 1059 1237.5 c 128,-1,11
 1128 1181 1128 1181 1163.5 1094.5 c 128,-1,12
 1199 1008 1199 1008 1199 889 c 0,13,14
 1199 795 1199 795 1177 685 c 0,0,1
880 685 m 0,15,16
 898 778 898 778 898 849 c 0,17,18
 898 993 898 993 824.5 1057 c 128,-1,19
 751 1121 751 1121 604 1121 c 2,20,-1
 543 1121 l 1,21,-1
 369 228 l 1,22,-1
 471 228 l 2,23,24
 633 228 633 228 734 342.5 c 128,-1,25
 835 457 835 457 880 685 c 0,15,16
EndSplineSet
EndChar

StartChar: E
Encoding: 69 69 40
Width: 1229
Flags: W
LayerCount: 2
Fore
SplineSet
32 0 m 1,0,-1
 294 1349 l 1,1,-1
 1262 1349 l 1,2,-1
 1218 1121 l 1,3,-1
 545 1121 l 1,4,-1
 482 797 l 1,5,-1
 1094 797 l 1,6,-1
 1050 569 l 1,7,-1
 438 569 l 1,8,-1
 371 228 l 1,9,-1
 1085 228 l 1,10,-1
 1041 0 l 1,11,-1
 32 0 l 1,0,-1
EndSplineSet
EndChar

StartChar: F
Encoding: 70 70 41
Width: 1229
Flags: W
LayerCount: 2
Fore
SplineSet
575 1121 m 1,0,-1
 500 737 l 1,1,-1
 1121 737 l 1,2,-1
 1077 509 l 1,3,-1
 456 509 l 1,4,-1
 357 0 l 1,5,-1
 62 0 l 1,6,-1
 324 1349 l 1,7,-1
 1263 1349 l 1,8,-1
 1219 1121 l 1,9,-1
 575 1121 l 1,0,-1
EndSplineSet
EndChar

StartChar: G
Encoding: 71 71 42
Width: 1229
Flags: W
LayerCount: 2
Fore
SplineSet
1059 185 m 1,0,1
 1015 153 1015 153 957 117 c 128,-1,2
 899 81 899 81 831 50.5 c 128,-1,3
 763 20 763 20 686 0 c 128,-1,4
 609 -20 609 -20 526 -20 c 0,5,6
 412 -20 412 -20 328.5 14.5 c 128,-1,7
 245 49 245 49 191 112 c 128,-1,8
 137 175 137 175 110.5 263.5 c 128,-1,9
 84 352 84 352 84 460 c 0,10,11
 84 512 84 512 90 567 c 128,-1,12
 96 622 96 622 107 681 c 0,13,14
 140 848 140 848 197.5 976.5 c 128,-1,15
 255 1105 255 1105 340.5 1192.5 c 128,-1,16
 426 1280 426 1280 540 1325 c 128,-1,17
 654 1370 654 1370 799 1370 c 0,18,19
 899 1370 899 1370 969 1343 c 128,-1,20
 1039 1316 1039 1316 1085 1266.5 c 128,-1,21
 1131 1217 1131 1217 1155.5 1148 c 128,-1,22
 1180 1079 1180 1079 1188 995 c 1,23,-1
 904 941 l 1,24,25
 896 1041 896 1041 858.5 1089.5 c 128,-1,26
 821 1138 821 1138 757 1138 c 0,27,28
 685 1138 685 1138 629 1108.5 c 128,-1,29
 573 1079 573 1079 531 1021.5 c 128,-1,30
 489 964 489 964 458.5 878.5 c 128,-1,31
 428 793 428 793 406 681 c 0,32,33
 385 570 385 570 385 483 c 0,34,35
 385 352 385 352 434.5 284 c 128,-1,36
 484 216 484 216 587 216 c 0,37,38
 625 216 625 216 660 224.5 c 128,-1,39
 695 233 695 233 724 244.5 c 128,-1,40
 753 256 753 256 775 268.5 c 128,-1,41
 797 281 797 281 809 290 c 1,42,-1
 855 525 l 1,43,-1
 581 525 l 1,44,-1
 623 743 l 1,45,-1
 1167 743 l 1,46,-1
 1059 185 l 1,0,1
EndSplineSet
EndChar

StartChar: H
Encoding: 72 72 43
Width: 1229
Flags: W
LayerCount: 2
Fore
SplineSet
691 0 m 1,0,-1
 803 574 l 1,1,-1
 440 574 l 1,2,-1
 328 0 l 1,3,-1
 33 0 l 1,4,-1
 295 1349 l 1,5,-1
 590 1349 l 1,6,-1
 487 818 l 1,7,-1
 850 818 l 1,8,-1
 953 1349 l 1,9,-1
 1248 1349 l 1,10,-1
 986 0 l 1,11,-1
 691 0 l 1,0,-1
EndSplineSet
EndChar

StartChar: I
Encoding: 73 73 44
Width: 1229
Flags: W
LayerCount: 2
Fore
SplineSet
314 1349 m 1,0,-1
 1230 1349 l 1,1,-1
 1186 1121 l 1,2,-1
 870 1121 l 1,3,-1
 696 228 l 1,4,-1
 1012 228 l 1,5,-1
 968 0 l 1,6,-1
 52 0 l 1,7,-1
 96 228 l 1,8,-1
 412 228 l 1,9,-1
 586 1121 l 1,10,-1
 270 1121 l 1,11,-1
 314 1349 l 1,0,-1
EndSplineSet
EndChar

StartChar: J
Encoding: 74 74 45
Width: 1229
Flags: W
LayerCount: 2
Fore
SplineSet
455 -20 m 0,0,1
 265 -20 265 -20 169.5 81.5 c 128,-1,2
 74 183 74 183 74 370 c 0,3,4
 74 378 74 378 74.5 386 c 128,-1,5
 75 394 75 394 75 402 c 1,6,-1
 374 445 l 1,7,8
 371 327 371 327 405 269 c 128,-1,9
 439 211 439 211 502 211 c 0,10,11
 575 211 575 211 629.5 270 c 128,-1,12
 684 329 684 329 705 439 c 2,13,-1
 837 1118 l 1,14,-1
 536 1118 l 1,15,-1
 581 1349 l 1,16,-1
 1176 1349 l 1,17,-1
 1001 446 l 2,18,19
 980 339 980 339 932.5 252.5 c 128,-1,20
 885 166 885 166 814.5 105.5 c 128,-1,21
 744 45 744 45 653.5 12.5 c 128,-1,22
 563 -20 563 -20 455 -20 c 0,0,1
EndSplineSet
EndChar

StartChar: K
Encoding: 75 75 46
Width: 1229
Flags: W
LayerCount: 2
Fore
SplineSet
776 0 m 1,0,-1
 561 557 l 1,1,-1
 407 415 l 1,2,-1
 326 0 l 1,3,-1
 31 0 l 1,4,-1
 293 1349 l 1,5,-1
 588 1349 l 1,6,-1
 472 750 l 1,7,-1
 1024 1349 l 1,8,-1
 1367 1349 l 1,9,-1
 795 770 l 1,10,-1
 1124 0 l 1,11,-1
 776 0 l 1,0,-1
EndSplineSet
EndChar

StartChar: L
Encoding: 76 76 47
Width: 1229
Flags: W
LayerCount: 2
Fore
SplineSet
106 0 m 1,0,-1
 368 1349 l 1,1,-1
 663 1349 l 1,2,-1
 445 228 l 1,3,-1
 1061 228 l 1,4,-1
 1017 0 l 1,5,-1
 106 0 l 1,0,-1
EndSplineSet
EndChar

StartChar: M
Encoding: 77 77 48
Width: 1229
Flags: W
LayerCount: 2
Fore
SplineSet
803 0 m 1,0,-1
 972 868 l 2,1,2
 982 919 982 919 1007 1019.5 c 128,-1,3
 1032 1120 1032 1120 1046 1169 c 1,4,5
 938 897 938 897 905 828 c 1,6,-1
 690 360 l 1,7,-1
 472 360 l 1,8,-1
 437 828 l 2,9,10
 433 889 433 889 429 1029 c 1,11,-1
 427 1169 l 1,12,13
 399 949 399 949 383 868 c 2,14,-1
 214 0 l 1,15,-1
 -6 0 l 1,16,-1
 256 1349 l 1,17,-1
 603 1349 l 1,18,-1
 641 850 l 2,19,20
 643 817 643 817 643 803 c 0,21,22
 643 760 643 760 634 619 c 1,23,24
 650 666 650 666 679 744.5 c 128,-1,25
 708 823 708 823 719 849 c 1,26,-1
 952 1349 l 1,27,-1
 1287 1349 l 1,28,-1
 1025 0 l 1,29,-1
 803 0 l 1,0,-1
EndSplineSet
EndChar

StartChar: N
Encoding: 78 78 49
Width: 1229
Flags: W
LayerCount: 2
Fore
SplineSet
643 0 m 1,0,-1
 455 1010 l 1,1,2
 450 938 450 938 443 872 c 0,3,4
 440 844 440 844 436.5 814 c 128,-1,5
 433 784 433 784 429.5 755.5 c 128,-1,6
 426 727 426 727 422.5 701.5 c 128,-1,7
 419 676 419 676 415 656 c 2,8,-1
 287 0 l 1,9,-1
 30 0 l 1,10,-1
 292 1349 l 1,11,-1
 629 1349 l 1,12,-1
 821 312 l 1,13,14
 826 379 826 379 833 445 c 0,15,16
 839 502 839 502 846.5 564.5 c 128,-1,17
 854 627 854 627 864 677 c 2,18,-1
 994 1349 l 1,19,-1
 1251 1349 l 1,20,-1
 989 0 l 1,21,-1
 643 0 l 1,0,-1
EndSplineSet
EndChar

StartChar: O
Encoding: 79 79 50
Width: 1229
Flags: W
LayerCount: 2
Fore
SplineSet
1184 679 m 0,0,1
 1117 334 1117 334 942.5 157 c 128,-1,2
 768 -20 768 -20 506 -20 c 0,3,4
 293 -20 293 -20 183.5 95.5 c 128,-1,5
 74 211 74 211 74 440 c 0,6,7
 74 494 74 494 80 553.5 c 128,-1,8
 86 613 86 613 99 679 c 0,9,10
 166 1024 166 1024 340 1197 c 128,-1,11
 514 1370 514 1370 776 1370 c 0,12,13
 988 1370 988 1370 1098.5 1257 c 128,-1,14
 1209 1144 1209 1144 1209 917 c 0,15,16
 1209 863 1209 863 1203 804 c 128,-1,17
 1197 745 1197 745 1184 679 c 0,0,1
885 679 m 0,18,19
 909 802 909 802 909 892 c 0,20,21
 909 1138 909 1138 731 1138 c 0,22,23
 610 1138 610 1138 526.5 1023.5 c 128,-1,24
 443 909 443 909 398 679 c 0,25,26
 374 558 374 558 374 466 c 0,27,28
 374 340 374 340 418.5 276 c 128,-1,29
 463 212 463 212 551 212 c 0,30,31
 672 212 672 212 756 330.5 c 128,-1,32
 840 449 840 449 885 679 c 0,18,19
EndSplineSet
EndChar

StartChar: P
Encoding: 80 80 51
Width: 1229
Flags: W
LayerCount: 2
Fore
SplineSet
1216 923 m 0,0,1
 1198 832 1198 832 1152 750.5 c 128,-1,2
 1106 669 1106 669 1031.5 608 c 128,-1,3
 957 547 957 547 853 511.5 c 128,-1,4
 749 476 749 476 616 476 c 2,5,-1
 419 476 l 1,6,-1
 326 0 l 1,7,-1
 31 0 l 1,8,-1
 293 1349 l 1,9,-1
 773 1349 l 2,10,11
 890 1349 890 1349 975.5 1327 c 128,-1,12
 1061 1305 1061 1305 1117 1263.5 c 128,-1,13
 1173 1222 1173 1222 1200 1162 c 128,-1,14
 1227 1102 1227 1102 1227 1026 c 0,15,16
 1227 1002 1227 1002 1224 976 c 128,-1,17
 1221 950 1221 950 1216 923 c 0,0,1
918 918 m 0,18,19
 924 948 924 948 924 973 c 0,20,21
 924 1052 924 1052 866.5 1086 c 128,-1,22
 809 1120 809 1120 696 1120 c 2,23,-1
 544 1120 l 1,24,-1
 463 703 l 1,25,-1
 623 703 l 2,26,27
 755 703 755 703 826.5 757.5 c 128,-1,28
 898 812 898 812 918 918 c 0,18,19
EndSplineSet
EndChar

StartChar: Q
Encoding: 81 81 52
Width: 1229
Flags: W
LayerCount: 2
Fore
SplineSet
1184 679 m 0,0,1
 1128 391 1128 391 998.5 221 c 128,-1,2
 869 51 869 51 674 0 c 1,3,4
 683 -55 683 -55 703.5 -91 c 128,-1,5
 724 -127 724 -127 753 -148 c 128,-1,6
 782 -169 782 -169 820.5 -177.5 c 128,-1,7
 859 -186 859 -186 904 -186 c 0,8,9
 933 -186 933 -186 965.5 -182 c 128,-1,10
 998 -178 998 -178 1029 -173 c 1,11,-1
 990 -375 l 1,12,13
 933 -387 933 -387 873 -395 c 128,-1,14
 813 -403 813 -403 743 -403 c 0,15,16
 648 -403 648 -403 582.5 -374 c 128,-1,17
 517 -345 517 -345 474 -292.5 c 128,-1,18
 431 -240 431 -240 408.5 -167 c 128,-1,19
 386 -94 386 -94 376 -7 c 1,20,21
 226 25 226 25 150 137 c 128,-1,22
 74 249 74 249 74 439 c 0,23,24
 74 493 74 493 80 553 c 128,-1,25
 86 613 86 613 99 679 c 0,26,27
 166 1024 166 1024 340 1197 c 128,-1,28
 514 1370 514 1370 776 1370 c 0,29,30
 988 1370 988 1370 1098.5 1257 c 128,-1,31
 1209 1144 1209 1144 1209 917 c 0,32,33
 1209 863 1209 863 1203 804 c 128,-1,34
 1197 745 1197 745 1184 679 c 0,0,1
885 679 m 0,35,36
 909 802 909 802 909 892 c 0,37,38
 909 1138 909 1138 731 1138 c 0,39,40
 610 1138 610 1138 526.5 1023.5 c 128,-1,41
 443 909 443 909 398 679 c 0,42,43
 374 558 374 558 374 466 c 0,44,45
 374 340 374 340 418.5 276 c 128,-1,46
 463 212 463 212 551 212 c 0,47,48
 672 212 672 212 756 330.5 c 128,-1,49
 840 449 840 449 885 679 c 0,35,36
EndSplineSet
EndChar

StartChar: R
Encoding: 82 82 53
Width: 1229
Flags: W
LayerCount: 2
Fore
SplineSet
790 0 m 1,0,-1
 600 515 l 1,1,-1
 427 515 l 1,2,-1
 327 0 l 1,3,-1
 32 0 l 1,4,-1
 294 1349 l 1,5,-1
 788 1349 l 2,6,7
 1018 1349 1018 1349 1132 1270.5 c 128,-1,8
 1246 1192 1246 1192 1246 1043 c 0,9,10
 1246 1021 1246 1021 1243.5 997.5 c 128,-1,11
 1241 974 1241 974 1236 949 c 0,12,13
 1222 875 1222 875 1189.5 815 c 128,-1,14
 1157 755 1157 755 1111 709.5 c 128,-1,15
 1065 664 1065 664 1007.5 631.5 c 128,-1,16
 950 599 950 599 886 581 c 1,17,-1
 1122 0 l 1,18,-1
 790 0 l 1,0,-1
937 937 m 0,19,20
 939 950 939 950 940.5 961 c 128,-1,21
 942 972 942 972 942 983 c 0,22,23
 942 1059 942 1059 882.5 1089.5 c 128,-1,24
 823 1120 823 1120 713 1120 c 2,25,-1
 545 1120 l 1,26,-1
 472 744 l 1,27,-1
 648 744 l 2,28,29
 780 744 780 744 849.5 793.5 c 128,-1,30
 919 843 919 843 937 937 c 0,19,20
EndSplineSet
EndChar

StartChar: S
Encoding: 83 83 54
Width: 1229
Flags: W
LayerCount: 2
Fore
SplineSet
1136 391 m 0,0,1
 1119 303 1119 303 1070 227.5 c 128,-1,2
 1021 152 1021 152 941.5 97 c 128,-1,3
 862 42 862 42 752 11 c 128,-1,4
 642 -20 642 -20 502 -20 c 0,5,6
 385 -20 385 -20 293.5 5 c 128,-1,7
 202 30 202 30 138.5 79 c 128,-1,8
 75 128 75 128 41 200.5 c 128,-1,9
 7 273 7 273 4 367 c 1,10,-1
 297 404 l 1,11,12
 302 310 302 310 364 255.5 c 128,-1,13
 426 201 426 201 553 201 c 0,14,15
 613 201 613 201 662.5 210 c 128,-1,16
 712 219 712 219 749.5 239 c 128,-1,17
 787 259 787 259 812 292.5 c 128,-1,18
 837 326 837 326 846 374 c 0,19,20
 849 389 849 389 849 403 c 0,21,22
 849 448 849 448 821 477 c 128,-1,23
 793 506 793 506 750 526 c 128,-1,24
 707 546 707 546 654.5 559.5 c 128,-1,25
 602 573 602 573 554 586 c 0,26,27
 493 603 493 603 427.5 626.5 c 128,-1,28
 362 650 362 650 308 687 c 128,-1,29
 254 724 254 724 219 778.5 c 128,-1,30
 184 833 184 833 184 914 c 0,31,32
 184 948 184 948 192 991 c 0,33,34
 211 1089 211 1089 267 1160.5 c 128,-1,35
 323 1232 323 1232 403 1278.5 c 128,-1,36
 483 1325 483 1325 579.5 1347.5 c 128,-1,37
 676 1370 676 1370 776 1370 c 0,38,39
 1000 1370 1000 1370 1109 1281.5 c 128,-1,40
 1218 1193 1218 1193 1219 1007 c 1,41,-1
 927 978 l 1,42,43
 923 1069 923 1069 875 1115 c 128,-1,44
 827 1161 827 1161 730 1161 c 0,45,46
 667 1161 667 1161 622.5 1148.5 c 128,-1,47
 578 1136 578 1136 549 1114.5 c 128,-1,48
 520 1093 520 1093 504 1065.5 c 128,-1,49
 488 1038 488 1038 482 1008 c 0,50,51
 479 993 479 993 479 979 c 0,52,53
 479 940 479 940 501 914 c 128,-1,54
 523 888 523 888 559 869.5 c 128,-1,55
 595 851 595 851 640.5 838 c 128,-1,56
 686 825 686 825 734 812 c 0,57,58
 779 800 779 800 827 785.5 c 128,-1,59
 875 771 875 771 920.5 752 c 128,-1,60
 966 733 966 733 1006.5 707.5 c 128,-1,61
 1047 682 1047 682 1077.5 648 c 128,-1,62
 1108 614 1108 614 1126 570 c 128,-1,63
 1144 526 1144 526 1144 469 c 0,64,65
 1144 451 1144 451 1142 431.5 c 128,-1,66
 1140 412 1140 412 1136 391 c 0,0,1
EndSplineSet
EndChar

StartChar: T
Encoding: 84 84 55
Width: 1229
Flags: W
LayerCount: 2
Fore
SplineSet
875 1121 m 1,0,-1
 657 0 l 1,1,-1
 362 0 l 1,2,-1
 580 1121 l 1,3,-1
 174 1121 l 1,4,-1
 218 1349 l 1,5,-1
 1325 1349 l 1,6,-1
 1281 1121 l 1,7,-1
 875 1121 l 1,0,-1
EndSplineSet
EndChar

StartChar: U
Encoding: 85 85 56
Width: 1229
Flags: W
LayerCount: 2
Fore
SplineSet
490 -20 m 0,0,1
 400 -20 400 -20 329 -2 c 128,-1,2
 258 16 258 16 208 57 c 128,-1,3
 158 98 158 98 131.5 165 c 128,-1,4
 105 232 105 232 105 330 c 0,5,6
 105 418 105 418 127 528 c 2,7,-1
 286 1349 l 1,8,-1
 581 1349 l 1,9,-1
 422 531 l 2,10,11
 412 481 412 481 407.5 440.5 c 128,-1,12
 403 400 403 400 403 367 c 0,13,14
 403 282 403 282 437 246.5 c 128,-1,15
 471 211 471 211 543 211 c 0,16,17
 593 211 593 211 633.5 228.5 c 128,-1,18
 674 246 674 246 706.5 285 c 128,-1,19
 739 324 739 324 763 387 c 128,-1,20
 787 450 787 450 805 541 c 2,21,-1
 962 1349 l 1,22,-1
 1257 1349 l 1,23,-1
 1101 543 l 2,24,25
 1070 387 1070 387 1014 279.5 c 128,-1,26
 958 172 958 172 880 105.5 c 128,-1,27
 802 39 802 39 703.5 9.5 c 128,-1,28
 605 -20 605 -20 490 -20 c 0,0,1
EndSplineSet
EndChar

StartChar: V
Encoding: 86 86 57
Width: 1229
Flags: W
LayerCount: 2
Fore
SplineSet
661 0 m 1,0,-1
 362 0 l 1,1,-1
 160 1349 l 1,2,-1
 468 1349 l 1,3,-1
 551 574 l 2,4,5
 556 529 556 529 560 482 c 128,-1,6
 564 435 564 435 567 396 c 0,7,8
 571 350 571 350 573 308 c 1,9,10
 591 349 591 349 611 394 c 0,11,12
 628 432 628 432 650.5 479.5 c 128,-1,13
 673 527 673 527 697 574 c 2,14,-1
 1079 1349 l 1,15,-1
 1384 1349 l 1,16,-1
 661 0 l 1,0,-1
EndSplineSet
EndChar

StartChar: W
Encoding: 87 87 58
Width: 1229
Flags: W
LayerCount: 2
Fore
SplineSet
913 0 m 1,0,-1
 665 0 l 1,1,-1
 653 267 l 2,2,3
 652 286 652 286 650 312 c 128,-1,4
 648 338 648 338 646.5 367.5 c 128,-1,5
 645 397 645 397 643.5 428.5 c 128,-1,6
 642 460 642 460 641 490 c 0,7,8
 638 560 638 560 635 636 c 1,9,10
 602 559 602 559 571 489 c 0,11,12
 558 459 558 459 544 427.5 c 128,-1,13
 530 396 530 396 517 366.5 c 128,-1,14
 504 337 504 337 492.5 311.5 c 128,-1,15
 481 286 481 286 472 267 c 2,16,-1
 354 0 l 1,17,-1
 106 0 l 1,18,-1
 157 1349 l 1,19,-1
 416 1349 l 1,20,-1
 370 654 l 2,21,22
 368 615 368 615 361.5 569 c 128,-1,23
 355 523 355 523 349 482 c 0,24,25
 342 434 342 434 334 388 c 1,26,27
 347 424 347 424 364 464 c 0,28,29
 378 499 378 499 397 542.5 c 128,-1,30
 416 586 416 586 437 632 c 1,31,-1
 602 971 l 1,32,-1
 797 971 l 1,33,-1
 830 632 l 2,34,35
 835 575 835 575 836 522 c 128,-1,36
 837 469 837 469 837 434 c 2,37,-1
 837 388 l 1,38,39
 838 388 838 388 844.5 415 c 128,-1,40
 851 442 851 442 860.5 482 c 128,-1,41
 870 522 870 522 882.5 568.5 c 128,-1,42
 895 615 895 615 907 654 c 2,43,-1
 1126 1349 l 1,44,-1
 1385 1349 l 1,45,-1
 913 0 l 1,0,-1
EndSplineSet
EndChar

StartChar: X
Encoding: 88 88 59
Width: 1229
Flags: W
LayerCount: 2
Fore
SplineSet
814 0 m 1,0,-1
 607 493 l 1,1,-1
 207 0 l 1,2,-1
 -105 0 l 1,3,-1
 492 711 l 1,4,-1
 198 1349 l 1,5,-1
 510 1349 l 1,6,-1
 690 919 l 1,7,-1
 1035 1349 l 1,8,-1
 1345 1349 l 1,9,-1
 793 711 l 1,10,-1
 1124 0 l 1,11,-1
 814 0 l 1,0,-1
EndSplineSet
EndChar

StartChar: Y
Encoding: 89 89 60
Width: 1229
Flags: W
LayerCount: 2
Fore
SplineSet
764 556 m 1,0,-1
 656 0 l 1,1,-1
 362 0 l 1,2,-1
 470 556 l 1,3,-1
 160 1349 l 1,4,-1
 469 1349 l 1,5,-1
 659 783 l 1,6,-1
 1073 1349 l 1,7,-1
 1382 1349 l 1,8,-1
 764 556 l 1,0,-1
EndSplineSet
EndChar

StartChar: Z
Encoding: 90 90 61
Width: 1229
Flags: W
LayerCount: 2
Fore
SplineSet
1033 0 m 1,0,-1
 -18 0 l 1,1,-1
 23 209 l 1,2,-1
 870 1118 l 1,3,-1
 275 1118 l 1,4,-1
 320 1349 l 1,5,-1
 1254 1349 l 1,6,-1
 1214 1144 l 1,7,-1
 366 231 l 1,8,-1
 1078 231 l 1,9,-1
 1033 0 l 1,0,-1
EndSplineSet
EndChar

StartChar: bracketleft
Encoding: 91 91 62
Width: 1229
Flags: W
LayerCount: 2
Fore
SplineSet
185 -425 m 1,0,-1
 556 1484 l 1,1,-1
 1158 1484 l 1,2,-1
 1122 1294 l 1,3,-1
 786 1294 l 1,4,-1
 489 -234 l 1,5,-1
 825 -234 l 1,6,-1
 787 -425 l 1,7,-1
 185 -425 l 1,0,-1
EndSplineSet
EndChar

StartChar: backslash
Encoding: 92 92 63
Width: 1229
Flags: W
LayerCount: 2
Fore
SplineSet
799 -20 m 1,0,-1
 274 1484 l 1,1,-1
 502 1484 l 1,2,-1
 1031 -20 l 1,3,-1
 799 -20 l 1,0,-1
EndSplineSet
EndChar

StartChar: bracketright
Encoding: 93 93 64
Width: 1229
Flags: W
LayerCount: 2
Fore
SplineSet
66 -425 m 1,0,-1
 104 -234 l 1,1,-1
 440 -234 l 1,2,-1
 737 1294 l 1,3,-1
 401 1294 l 1,4,-1
 437 1484 l 1,5,-1
 1039 1484 l 1,6,-1
 668 -425 l 1,7,-1
 66 -425 l 1,0,-1
EndSplineSet
EndChar

StartChar: asciicircum
Encoding: 94 94 65
Width: 1229
Flags: W
LayerCount: 2
Fore
SplineSet
917 514 m 1,0,-1
 737 1266 l 1,1,-1
 267 514 l 1,2,-1
 40 514 l 1,3,-1
 605 1409 l 1,4,-1
 927 1409 l 1,5,-1
 1146 514 l 1,6,-1
 917 514 l 1,0,-1
EndSplineSet
EndChar

StartChar: underscore
Encoding: 95 95 66
Width: 1229
Flags: W
LayerCount: 2
Fore
SplineSet
-153 -220 m 1,0,-1
 -134 -124 l 1,1,-1
 1104 -124 l 1,2,-1
 1085 -220 l 1,3,-1
 -153 -220 l 1,0,-1
EndSplineSet
EndChar

StartChar: grave
Encoding: 96 96 67
Width: 1229
Flags: W
LayerCount: 2
Fore
SplineSet
812 1184 m 5,0,-1
 517 1415 l 5,1,-1
 525 1458 l 5,2,-1
 783 1458 l 5,3,-1
 988 1215 l 5,4,-1
 982 1184 l 5,5,-1
 812 1184 l 5,0,-1
EndSplineSet
EndChar

StartChar: a
Encoding: 97 97 68
Width: 1229
Flags: W
LayerCount: 2
Fore
SplineSet
330 -20 m 0,0,1
 196 -20 196 -20 123.5 42 c 128,-1,2
 51 104 51 104 51 222 c 0,3,4
 51 261 51 261 60 306 c 0,5,6
 79 402 79 402 123.5 467.5 c 128,-1,7
 168 533 168 533 232 573.5 c 128,-1,8
 296 614 296 614 376 632.5 c 128,-1,9
 456 651 456 651 545 652 c 2,10,-1
 769 656 l 1,11,-1
 779 711 l 2,12,13
 784 735 784 735 786.5 756 c 128,-1,14
 789 777 789 777 789 795 c 0,15,16
 789 864 789 864 757.5 892 c 128,-1,17
 726 920 726 920 672 920 c 0,18,19
 641 920 641 920 614 913 c 128,-1,20
 587 906 587 906 564.5 888.5 c 128,-1,21
 542 871 542 871 524 841.5 c 128,-1,22
 506 812 506 812 492 767 c 1,23,-1
 202 781 l 1,24,25
 227 852 227 852 269 910.5 c 128,-1,26
 311 969 311 969 374 1012 c 128,-1,27
 437 1055 437 1055 522.5 1078.5 c 128,-1,28
 608 1102 608 1102 719 1102 c 0,29,30
 892 1102 892 1102 981.5 1029.5 c 128,-1,31
 1071 957 1071 957 1071 816 c 0,32,33
 1071 770 1071 770 1060 712 c 2,34,-1
 984 320 l 2,35,36
 979 295 979 295 976 273.5 c 128,-1,37
 973 252 973 252 973 235 c 0,38,39
 973 198 973 198 988.5 179 c 128,-1,40
 1004 160 1004 160 1042 160 c 0,41,42
 1074 160 1074 160 1105 166 c 1,43,-1
 1076 14 l 1,44,45
 1050 8 1050 8 1029 3 c 128,-1,46
 1008 -2 1008 -2 987.5 -5 c 128,-1,47
 967 -8 967 -8 944 -10 c 128,-1,48
 921 -12 921 -12 891 -12 c 0,49,50
 796 -12 796 -12 754 29.5 c 128,-1,51
 712 71 712 71 712 152 c 0,52,53
 712 162 712 162 712.5 172 c 128,-1,54
 713 182 713 182 714 193 c 1,55,-1
 708 193 l 1,56,57
 670 143 670 143 629.5 103.5 c 128,-1,58
 589 64 589 64 543 36.5 c 128,-1,59
 497 9 497 9 444.5 -5.5 c 128,-1,60
 392 -20 392 -20 330 -20 c 0,0,1
738 501 m 1,61,-1
 604 499 l 2,62,63
 559 498 559 498 519 492.5 c 128,-1,64
 479 487 479 487 446.5 469.5 c 128,-1,65
 414 452 414 452 391.5 418.5 c 128,-1,66
 369 385 369 385 358 328 c 0,67,68
 352 298 352 298 352 274 c 0,69,70
 352 176 352 176 448 176 c 0,71,72
 502 176 502 176 548.5 199 c 128,-1,73
 595 222 595 222 631.5 259.5 c 128,-1,74
 668 297 668 297 693 346 c 128,-1,75
 718 395 718 395 728 446 c 2,76,-1
 738 501 l 1,61,-1
EndSplineSet
EndChar

StartChar: b
Encoding: 98 98 69
Width: 1229
Flags: W
LayerCount: 2
Fore
SplineSet
35 0 m 1,0,1
 43 34 43 34 58 95.5 c 128,-1,2
 73 157 73 157 89 236 c 2,3,-1
 331 1484 l 1,4,-1
 612 1484 l 1,5,-1
 536 1090 l 2,6,7
 531 1065 531 1065 525.5 1038 c 128,-1,8
 520 1011 520 1011 515 986 c 128,-1,9
 510 961 510 961 505.5 941.5 c 128,-1,10
 501 922 501 922 499 912 c 1,11,-1
 501 912 l 1,12,13
 535 965 535 965 577.5 1001.5 c 128,-1,14
 620 1038 620 1038 666.5 1060.5 c 128,-1,15
 713 1083 713 1083 761.5 1093 c 128,-1,16
 810 1103 810 1103 855 1103 c 0,17,18
 933 1103 933 1103 989.5 1077.5 c 128,-1,19
 1046 1052 1046 1052 1082.5 1004.5 c 128,-1,20
 1119 957 1119 957 1136.5 891 c 128,-1,21
 1154 825 1154 825 1154 744 c 0,22,23
 1154 697 1154 697 1148.5 646 c 128,-1,24
 1143 595 1143 595 1132 540 c 0,25,26
 1108 419 1108 419 1062 316.5 c 128,-1,27
 1016 214 1016 214 951.5 139 c 128,-1,28
 887 64 887 64 805 22 c 128,-1,29
 723 -20 723 -20 628 -20 c 0,30,31
 582 -20 582 -20 540 -9.5 c 128,-1,32
 498 1 498 1 462.5 24.5 c 128,-1,33
 427 48 427 48 400.5 85 c 128,-1,34
 374 122 374 122 360 176 c 1,35,-1
 356 176 l 1,36,37
 352 155 352 155 345.5 128 c 128,-1,38
 339 101 339 101 331.5 75 c 128,-1,39
 324 49 324 49 317.5 28.5 c 128,-1,40
 311 8 311 8 307 0 c 1,41,-1
 35 0 l 1,0,1
426 547 m 0,42,43
 410 464 410 464 410 399 c 0,44,45
 410 335 410 335 424 291 c 128,-1,46
 438 247 438 247 460 221 c 128,-1,47
 482 195 482 195 510 183.5 c 128,-1,48
 538 172 538 172 566 172 c 0,49,50
 662 172 662 172 733 264 c 128,-1,51
 804 356 804 356 839 540 c 0,52,53
 857 636 857 636 857 706 c 0,54,55
 857 814 857 814 817.5 863 c 128,-1,56
 778 912 778 912 708 912 c 0,57,58
 672 912 672 912 631.5 895 c 128,-1,59
 591 878 591 878 552.5 836.5 c 128,-1,60
 514 795 514 795 480.5 724.5 c 128,-1,61
 447 654 447 654 426 547 c 0,42,43
EndSplineSet
EndChar

StartChar: c
Encoding: 99 99 70
Width: 1229
Flags: W
LayerCount: 2
Fore
SplineSet
515 -20 m 0,0,1
 408 -20 408 -20 328.5 8 c 128,-1,2
 249 36 249 36 196.5 88 c 128,-1,3
 144 140 144 140 118.5 213.5 c 128,-1,4
 93 287 93 287 93 378 c 0,5,6
 93 415 93 415 97 454 c 128,-1,7
 101 493 101 493 109 535 c 0,8,9
 135 670 135 670 190.5 775.5 c 128,-1,10
 246 881 246 881 326.5 953.5 c 128,-1,11
 407 1026 407 1026 510.5 1064 c 128,-1,12
 614 1102 614 1102 737 1102 c 0,13,14
 841 1102 841 1102 917 1074.5 c 128,-1,15
 993 1047 993 1047 1042.5 999 c 128,-1,16
 1092 951 1092 951 1116 886 c 128,-1,17
 1140 821 1140 821 1140 746 c 2,18,-1
 1140 741 l 1,19,-1
 854 727 l 1,20,21
 859 810 859 810 820.5 859.5 c 128,-1,22
 782 909 782 909 694 909 c 0,23,24
 581 909 581 909 511 816 c 128,-1,25
 441 723 441 723 406 546 c 0,26,27
 388 455 388 455 388 385 c 0,28,29
 388 172 388 172 554 172 c 0,30,31
 634 172 634 172 698.5 222.5 c 128,-1,32
 763 273 763 273 795 373 c 1,33,-1
 1074 360 l 1,34,35
 1050 285 1050 285 1001 216.5 c 128,-1,36
 952 148 952 148 881 95.5 c 128,-1,37
 810 43 810 43 718 11.5 c 128,-1,38
 626 -20 626 -20 515 -20 c 0,0,1
EndSplineSet
EndChar

StartChar: d
Encoding: 100 100 71
Width: 1229
Flags: W
LayerCount: 2
Fore
SplineSet
712 0 m 1,0,1
 711 8 711 8 712.5 28.5 c 128,-1,2
 714 49 714 49 717 75 c 128,-1,3
 720 101 720 101 723.5 128 c 128,-1,4
 727 155 727 155 731 176 c 1,5,-1
 727 176 l 1,6,7
 690 122 690 122 650 85 c 128,-1,8
 610 48 610 48 566 24.5 c 128,-1,9
 522 1 522 1 474 -9.5 c 128,-1,10
 426 -20 426 -20 373 -20 c 0,11,12
 298 -20 298 -20 242 6.5 c 128,-1,13
 186 33 186 33 149.5 81.5 c 128,-1,14
 113 130 113 130 95 198 c 128,-1,15
 77 266 77 266 77 349 c 0,16,17
 77 394 77 394 82 441 c 128,-1,18
 87 488 87 488 97 539 c 0,19,20
 121 662 121 662 165 765 c 128,-1,21
 209 868 209 868 272.5 942.5 c 128,-1,22
 336 1017 336 1017 418.5 1058.5 c 128,-1,23
 501 1100 501 1100 602 1100 c 0,24,25
 647 1100 647 1100 690 1090 c 128,-1,26
 733 1080 733 1080 769 1057.5 c 128,-1,27
 805 1035 805 1035 832 998.5 c 128,-1,28
 859 962 859 962 872 909 c 1,29,-1
 874 909 l 1,30,31
 876 919 876 919 879.5 938.5 c 128,-1,32
 883 958 883 958 887 983 c 128,-1,33
 891 1008 891 1008 896 1035 c 128,-1,34
 901 1062 901 1062 906 1087 c 2,35,-1
 983 1484 l 1,36,-1
 1264 1484 l 1,37,-1
 1022 236 l 2,38,39
 1006 157 1006 157 997.5 95.5 c 128,-1,40
 989 34 989 34 984 0 c 1,41,-1
 712 0 l 1,0,1
805 546 m 0,42,43
 821 629 821 629 821 693 c 0,44,45
 821 756 821 756 807.5 797.5 c 128,-1,46
 794 839 794 839 771.5 863.5 c 128,-1,47
 749 888 749 888 721.5 898.5 c 128,-1,48
 694 909 694 909 665 909 c 0,49,50
 619 909 619 909 577.5 888 c 128,-1,51
 536 867 536 867 500.5 822.5 c 128,-1,52
 465 778 465 778 437 708 c 128,-1,53
 409 638 409 638 390 539 c 0,54,55
 372 448 372 448 372 378 c 0,56,57
 372 275 372 275 409.5 223.5 c 128,-1,58
 447 172 447 172 519 172 c 0,59,60
 554 172 554 172 595 190 c 128,-1,61
 636 208 636 208 676 251 c 128,-1,62
 716 294 716 294 750 366 c 128,-1,63
 784 438 784 438 805 546 c 0,42,43
EndSplineSet
EndChar

StartChar: e
Encoding: 101 101 72
Width: 1229
Flags: W
LayerCount: 2
Fore
SplineSet
517 -20 m 0,0,1
 418 -20 418 -20 338 5 c 128,-1,2
 258 30 258 30 201.5 80 c 128,-1,3
 145 130 145 130 114.5 206.5 c 128,-1,4
 84 283 84 283 84 385 c 0,5,6
 84 422 84 422 88.5 462 c 128,-1,7
 93 502 93 502 101 546 c 0,8,9
 131 701 131 701 196.5 807 c 128,-1,10
 262 913 262 913 348.5 978.5 c 128,-1,11
 435 1044 435 1044 536 1073 c 128,-1,12
 637 1102 637 1102 739 1102 c 0,13,14
 843 1102 843 1102 918.5 1072.5 c 128,-1,15
 994 1043 994 1043 1043 988.5 c 128,-1,16
 1092 934 1092 934 1116 857 c 128,-1,17
 1140 780 1140 780 1140 685 c 0,18,19
 1140 640 1140 640 1135 593 c 128,-1,20
 1130 546 1130 546 1120 495 c 1,21,-1
 1119 487 l 1,22,-1
 385 487 l 1,23,24
 375 437 375 437 375 388 c 256,25,26
 375 339 375 339 386.5 298.5 c 128,-1,27
 398 258 398 258 422 229 c 128,-1,28
 446 200 446 200 482.5 184 c 128,-1,29
 519 168 519 168 568 168 c 0,30,31
 605 168 605 168 640 176 c 128,-1,32
 675 184 675 184 705.5 199.5 c 128,-1,33
 736 215 736 215 760.5 239.5 c 128,-1,34
 785 264 785 264 801 297 c 1,35,-1
 1061 274 l 1,36,37
 1034 228 1034 228 988.5 176 c 128,-1,38
 943 124 943 124 876.5 80.5 c 128,-1,39
 810 37 810 37 721 8.5 c 128,-1,40
 632 -20 632 -20 517 -20 c 0,0,1
701 925 m 0,41,42
 658 925 658 925 614.5 910.5 c 128,-1,43
 571 896 571 896 533.5 864.5 c 128,-1,44
 496 833 496 833 466.5 783 c 128,-1,45
 437 733 437 733 421 663 c 1,46,-1
 881 663 l 1,47,48
 883 678 883 678 884 692 c 128,-1,49
 885 706 885 706 885 720 c 0,50,51
 885 822 885 822 834 873.5 c 128,-1,52
 783 925 783 925 701 925 c 0,41,42
EndSplineSet
EndChar

StartChar: f
Encoding: 102 102 73
Width: 1229
Flags: W
LayerCount: 2
Fore
SplineSet
721 892 m 1,0,-1
 548 0 l 1,1,-1
 268 0 l 1,2,-1
 441 892 l 1,3,-1
 185 892 l 1,4,-1
 222 1082 l 1,5,-1
 478 1082 l 1,6,-1
 494 1165 l 2,7,8
 506 1227 506 1227 535.5 1289 c 128,-1,9
 565 1351 565 1351 622 1401 c 128,-1,10
 679 1451 679 1451 767 1482.5 c 128,-1,11
 855 1514 855 1514 984 1514 c 0,12,13
 1086 1514 1086 1514 1167 1505 c 128,-1,14
 1248 1496 1248 1496 1306 1486 c 1,15,-1
 1270 1302 l 1,16,17
 1208 1310 1208 1310 1138 1315.5 c 128,-1,18
 1068 1321 1068 1321 996 1321 c 0,19,20
 938 1321 938 1321 898.5 1308 c 128,-1,21
 859 1295 859 1295 833 1271.5 c 128,-1,22
 807 1248 807 1248 792 1214.5 c 128,-1,23
 777 1181 777 1181 769 1139 c 2,24,-1
 758 1082 l 1,25,-1
 1201 1082 l 1,26,-1
 1164 892 l 1,27,-1
 721 892 l 1,0,-1
EndSplineSet
EndChar

StartChar: g
Encoding: 103 103 74
Width: 1229
Flags: W
LayerCount: 2
Fore
SplineSet
427 -434 m 0,0,1
 328 -434 328 -434 254.5 -412.5 c 128,-1,2
 181 -391 181 -391 133 -352.5 c 128,-1,3
 85 -314 85 -314 61 -260.5 c 128,-1,4
 37 -207 37 -207 36 -143 c 1,5,-1
 324 -110 l 1,6,7
 326 -175 326 -175 365.5 -213 c 128,-1,8
 405 -251 405 -251 470 -251 c 0,9,10
 512 -251 512 -251 552.5 -236.5 c 128,-1,11
 593 -222 593 -222 627.5 -188.5 c 128,-1,12
 662 -155 662 -155 688.5 -99.5 c 128,-1,13
 715 -44 715 -44 731 37 c 0,14,15
 737 65 737 65 743.5 95.5 c 128,-1,16
 750 126 750 126 755 152 c 0,17,18
 761 182 761 182 767 211 c 1,19,-1
 765 211 l 1,20,21
 696 106 696 106 600.5 59 c 128,-1,22
 505 12 505 12 398 12 c 0,23,24
 323 12 323 12 268 36.5 c 128,-1,25
 213 61 213 61 177 106 c 128,-1,26
 141 151 141 151 123.5 215 c 128,-1,27
 106 279 106 279 106 359 c 0,28,29
 106 444 106 444 126 550 c 0,30,31
 150 675 150 675 194.5 776 c 128,-1,32
 239 877 239 877 302.5 949 c 128,-1,33
 366 1021 366 1021 448.5 1060 c 128,-1,34
 531 1099 531 1099 631 1099 c 0,35,36
 677 1099 677 1099 720 1088.5 c 128,-1,37
 763 1078 763 1078 798.5 1055 c 128,-1,38
 834 1032 834 1032 860.5 995.5 c 128,-1,39
 887 959 887 959 900 908 c 1,40,-1
 905 908 l 1,41,42
 910 929 910 929 916.5 956.5 c 128,-1,43
 923 984 923 984 930 1009.5 c 128,-1,44
 937 1035 937 1035 943.5 1055 c 128,-1,45
 950 1075 950 1075 953 1082 c 1,46,-1
 1219 1082 l 1,47,48
 1211 1046 1211 1046 1196 981 c 128,-1,49
 1181 916 1181 916 1165 832 c 2,50,-1
 1009 33 l 2,51,52
 986 -85 986 -85 935.5 -172.5 c 128,-1,53
 885 -260 885 -260 810 -318 c 128,-1,54
 735 -376 735 -376 638.5 -405 c 128,-1,55
 542 -434 542 -434 427 -434 c 0,0,1
834 556 m 0,56,57
 849 634 849 634 849 692 c 0,58,59
 849 753 849 753 835 794 c 128,-1,60
 821 835 821 835 799 860 c 128,-1,61
 777 885 777 885 749 895.5 c 128,-1,62
 721 906 721 906 693 906 c 0,63,64
 647 906 647 906 605.5 885.5 c 128,-1,65
 564 865 564 865 528.5 821.5 c 128,-1,66
 493 778 493 778 465 711 c 128,-1,67
 437 644 437 644 419 550 c 0,68,69
 403 471 403 471 403 407 c 0,70,71
 403 305 403 305 442.5 256 c 128,-1,72
 482 207 482 207 555 207 c 0,73,74
 590 207 590 207 630.5 222 c 128,-1,75
 671 237 671 237 709.5 276.5 c 128,-1,76
 748 316 748 316 781 383.5 c 128,-1,77
 814 451 814 451 834 556 c 0,56,57
EndSplineSet
EndChar

StartChar: h
Encoding: 104 104 75
Width: 1229
Flags: W
LayerCount: 2
Fore
SplineSet
483 866 m 1,0,1
 564 990 564 990 661 1046 c 128,-1,2
 758 1102 758 1102 877 1102 c 0,3,4
 952 1102 952 1102 1004 1082.5 c 128,-1,5
 1056 1063 1056 1063 1088 1028 c 128,-1,6
 1120 993 1120 993 1134 943.5 c 128,-1,7
 1148 894 1148 894 1148 835 c 0,8,9
 1148 800 1148 800 1144 763 c 128,-1,10
 1140 726 1140 726 1132 686 c 2,11,-1
 999 0 l 1,12,-1
 719 0 l 1,13,-1
 840 621 l 2,14,15
 847 657 847 657 851 689 c 128,-1,16
 855 721 855 721 855 749 c 0,17,18
 855 818 855 818 825 854.5 c 128,-1,19
 795 891 795 891 719 891 c 0,20,21
 668 891 668 891 622 868.5 c 128,-1,22
 576 846 576 846 538.5 804.5 c 128,-1,23
 501 763 501 763 473.5 705.5 c 128,-1,24
 446 648 446 648 432 579 c 2,25,-1
 319 0 l 1,26,-1
 38 0 l 1,27,-1
 326 1484 l 1,28,-1
 607 1484 l 1,29,-1
 529 1079 l 2,30,31
 523 1047 523 1047 515.5 1014.5 c 128,-1,32
 508 982 508 982 501 953.5 c 128,-1,33
 494 925 494 925 488 902 c 128,-1,34
 482 879 482 879 479 866 c 1,35,-1
 483 866 l 1,0,1
EndSplineSet
EndChar

StartChar: i
Encoding: 105 105 76
Width: 1229
Flags: W
LayerCount: 2
Fore
SplineSet
726 190 m 1,0,-1
 1079 190 l 1,1,-1
 1042 0 l 1,2,-1
 13 0 l 1,3,-1
 50 190 l 1,4,-1
 445 190 l 1,5,-1
 581 892 l 1,6,-1
 291 892 l 1,7,-1
 328 1082 l 1,8,-1
 899 1082 l 1,9,-1
 726 190 l 1,0,-1
656 1277 m 1,10,-1
 696 1484 l 1,11,-1
 977 1484 l 1,12,-1
 937 1277 l 1,13,-1
 656 1277 l 1,10,-1
EndSplineSet
EndChar

StartChar: j
Encoding: 106 106 77
Width: 1229
Flags: W
LayerCount: 2
Fore
SplineSet
756 -13 m 2,0,1
 735 -122 735 -122 681.5 -200 c 128,-1,2
 628 -278 628 -278 554.5 -328 c 128,-1,3
 481 -378 481 -378 393.5 -401.5 c 128,-1,4
 306 -425 306 -425 217 -425 c 0,5,6
 176 -425 176 -425 135.5 -421.5 c 128,-1,7
 95 -418 95 -418 58.5 -412 c 128,-1,8
 22 -406 22 -406 -9 -398.5 c 128,-1,9
 -40 -391 -40 -391 -62 -382 c 1,10,-1
 -21 -172 l 1,11,12
 21 -183 21 -183 87.5 -194.5 c 128,-1,13
 154 -206 154 -206 235 -206 c 0,14,15
 278 -206 278 -206 316.5 -197.5 c 128,-1,16
 355 -189 355 -189 386.5 -165 c 128,-1,17
 418 -141 418 -141 442 -99 c 128,-1,18
 466 -57 466 -57 479 10 c 2,19,-1
 650 892 l 1,20,-1
 296 892 l 1,21,-1
 333 1082 l 1,22,-1
 969 1082 l 1,23,-1
 756 -13 l 2,0,1
726 1277 m 1,24,-1
 766 1484 l 1,25,-1
 1047 1484 l 1,26,-1
 1007 1277 l 1,27,-1
 726 1277 l 1,24,-1
EndSplineSet
EndChar

StartChar: k
Encoding: 107 107 78
Width: 1229
Flags: W
LayerCount: 2
Fore
SplineSet
759 0 m 1,0,-1
 565 490 l 1,1,-1
 428 406 l 1,2,-1
 349 0 l 1,3,-1
 68 0 l 1,4,-1
 356 1484 l 1,5,-1
 637 1484 l 1,6,-1
 472 634 l 1,7,-1
 945 1082 l 1,8,-1
 1247 1082 l 1,9,-1
 785 660 l 1,10,-1
 1066 0 l 1,11,-1
 759 0 l 1,0,-1
EndSplineSet
EndChar

StartChar: l
Encoding: 108 108 79
Width: 1229
Flags: W
LayerCount: 2
Fore
SplineSet
726 190 m 1,0,-1
 1079 190 l 1,1,-1
 1042 0 l 1,2,-1
 13 0 l 1,3,-1
 50 190 l 1,4,-1
 445 190 l 1,5,-1
 660 1294 l 1,6,-1
 370 1294 l 1,7,-1
 406 1484 l 1,8,-1
 977 1484 l 1,9,-1
 726 190 l 1,0,-1
EndSplineSet
EndChar

StartChar: m
Encoding: 109 109 80
Width: 1229
Flags: W
LayerCount: 2
Fore
SplineSet
396 0 m 1,0,-1
 524 658 l 2,1,2
 535 718 535 718 541 761 c 128,-1,3
 547 804 547 804 547 835 c 0,4,5
 547 883 547 883 532.5 903 c 128,-1,6
 518 923 518 923 488 923 c 0,7,8
 463 923 463 923 438 898.5 c 128,-1,9
 413 874 413 874 390 829.5 c 128,-1,10
 367 785 367 785 347 722 c 128,-1,11
 327 659 327 659 312 582 c 2,12,-1
 199 0 l 1,13,-1
 -30 0 l 1,14,-1
 135 851 l 2,15,16
 142 885 142 885 148.5 922.5 c 128,-1,17
 155 960 155 960 160.5 993.5 c 128,-1,18
 166 1027 166 1027 170 1051 c 128,-1,19
 174 1075 174 1075 174 1082 c 1,20,-1
 383 1082 l 1,21,22
 383 1077 383 1077 380 1056.5 c 128,-1,23
 377 1036 377 1036 373 1009.5 c 128,-1,24
 369 983 369 983 364 955 c 128,-1,25
 359 927 359 927 355 907 c 1,26,-1
 357 907 l 1,27,28
 378 946 378 946 402.5 981.5 c 128,-1,29
 427 1017 427 1017 458 1044 c 128,-1,30
 489 1071 489 1071 527 1086.5 c 128,-1,31
 565 1102 565 1102 611 1102 c 0,32,33
 699 1102 699 1102 733.5 1054 c 128,-1,34
 768 1006 768 1006 767 906 c 1,35,-1
 769 906 l 1,36,37
 796 953 796 953 824.5 989.5 c 128,-1,38
 853 1026 853 1026 886 1051 c 128,-1,39
 919 1076 919 1076 957.5 1089 c 128,-1,40
 996 1102 996 1102 1043 1102 c 0,41,42
 1131 1102 1131 1102 1171 1056 c 128,-1,43
 1211 1010 1211 1010 1211 910 c 0,44,45
 1211 871 1211 871 1205.5 824.5 c 128,-1,46
 1200 778 1200 778 1189 721 c 2,47,-1
 1049 0 l 1,48,-1
 821 0 l 1,49,-1
 949 658 l 2,50,51
 960 718 960 718 966 761 c 128,-1,52
 972 804 972 804 972 835 c 0,53,54
 972 883 972 883 957.5 903 c 128,-1,55
 943 923 943 923 913 923 c 0,56,57
 862 923 862 923 817 842.5 c 128,-1,58
 772 762 772 762 741 601 c 2,59,-1
 624 0 l 1,60,-1
 396 0 l 1,0,-1
EndSplineSet
EndChar

StartChar: n
Encoding: 110 110 81
Width: 1229
Flags: W
LayerCount: 2
Fore
SplineSet
719 0 m 1,0,-1
 839 619 l 2,1,2
 854 693 854 693 854 746 c 0,3,4
 854 821 854 821 822 856.5 c 128,-1,5
 790 892 790 892 721 892 c 0,6,7
 670 892 670 892 624 869.5 c 128,-1,8
 578 847 578 847 539.5 805.5 c 128,-1,9
 501 764 501 764 473.5 706.5 c 128,-1,10
 446 649 446 649 432 580 c 2,11,-1
 319 0 l 1,12,-1
 38 0 l 1,13,-1
 201 840 l 2,14,15
 208 875 208 875 214.5 912 c 128,-1,16
 221 949 221 949 226.5 982.5 c 128,-1,17
 232 1016 232 1016 235.5 1042.5 c 128,-1,18
 239 1069 239 1069 240 1082 c 1,19,-1
 508 1082 l 1,20,21
 508 1070 508 1070 505 1043.5 c 128,-1,22
 502 1017 502 1017 498 985 c 128,-1,23
 494 953 494 953 489 921 c 128,-1,24
 484 889 484 889 480 867 c 1,25,-1
 484 867 l 1,26,27
 564 990 564 990 661.5 1046.5 c 128,-1,28
 759 1103 759 1103 877 1103 c 0,29,30
 1018 1103 1018 1103 1083 1031.5 c 128,-1,31
 1148 960 1148 960 1148 830 c 0,32,33
 1148 765 1148 765 1133 687 c 2,34,-1
 999 0 l 1,35,-1
 719 0 l 1,0,-1
EndSplineSet
EndChar

StartChar: o
Encoding: 111 111 82
Width: 1229
Flags: W
LayerCount: 2
Fore
SplineSet
1137 542 m 0,0,1
 1113 418 1113 418 1062 315 c 128,-1,2
 1011 212 1011 212 932 137.5 c 128,-1,3
 853 63 853 63 745.5 21.5 c 128,-1,4
 638 -20 638 -20 501 -20 c 0,5,6
 392 -20 392 -20 311.5 8.5 c 128,-1,7
 231 37 231 37 179 89.5 c 128,-1,8
 127 142 127 142 101.5 216.5 c 128,-1,9
 76 291 76 291 76 383 c 0,10,11
 76 421 76 421 80 460.5 c 128,-1,12
 84 500 84 500 92 542 c 0,13,14
 116 663 116 663 166 765.5 c 128,-1,15
 216 868 216 868 294 943 c 128,-1,16
 372 1018 372 1018 479.5 1060 c 128,-1,17
 587 1102 587 1102 725 1102 c 0,18,19
 843 1102 843 1102 925 1074.5 c 128,-1,20
 1007 1047 1007 1047 1058.5 997 c 128,-1,21
 1110 947 1110 947 1133 876 c 128,-1,22
 1156 805 1156 805 1156 719 c 0,23,24
 1156 677 1156 677 1151 633.5 c 128,-1,25
 1146 590 1146 590 1137 542 c 0,0,1
843 542 m 0,26,27
 853 593 853 593 858 636 c 128,-1,28
 863 679 863 679 863 715 c 0,29,30
 863 816 863 816 822 862.5 c 128,-1,31
 781 909 781 909 692 909 c 0,32,33
 630 909 630 909 581.5 887.5 c 128,-1,34
 533 866 533 866 496 821 c 128,-1,35
 459 776 459 776 432.5 707 c 128,-1,36
 406 638 406 638 387 542 c 0,37,38
 369 448 369 448 369 378 c 0,39,40
 369 271 369 271 411 221.5 c 128,-1,41
 453 172 453 172 535 172 c 0,42,43
 597 172 597 172 646 193.5 c 128,-1,44
 695 215 695 215 732.5 260 c 128,-1,45
 770 305 770 305 797 375 c 128,-1,46
 824 445 824 445 843 542 c 0,26,27
EndSplineSet
EndChar

StartChar: p
Encoding: 112 112 83
Width: 1229
Flags: W
LayerCount: 2
Fore
SplineSet
517 1082 m 1,0,1
 518 1075 518 1075 516.5 1054 c 128,-1,2
 515 1033 515 1033 512.5 1007 c 128,-1,3
 510 981 510 981 506 954 c 128,-1,4
 502 927 502 927 498 906 c 1,5,-1
 502 906 l 1,6,7
 539 960 539 960 582 997.5 c 128,-1,8
 625 1035 625 1035 670.5 1058.5 c 128,-1,9
 716 1082 716 1082 763 1092.5 c 128,-1,10
 810 1103 810 1103 856 1103 c 0,11,12
 931 1103 931 1103 987 1076 c 128,-1,13
 1043 1049 1043 1049 1079.5 1000 c 128,-1,14
 1116 951 1116 951 1134 882.5 c 128,-1,15
 1152 814 1152 814 1152 731 c 0,16,17
 1152 687 1152 687 1147.5 640.5 c 128,-1,18
 1143 594 1143 594 1133 543 c 0,19,20
 1109 420 1109 420 1065 317 c 128,-1,21
 1021 214 1021 214 957 139 c 128,-1,22
 893 64 893 64 810.5 22 c 128,-1,23
 728 -20 728 -20 627 -20 c 0,24,25
 582 -20 582 -20 539 -10 c 128,-1,26
 496 0 496 0 460 22.5 c 128,-1,27
 424 45 424 45 397.5 81.5 c 128,-1,28
 371 118 371 118 357 171 c 1,29,-1
 355 171 l 1,30,31
 353 161 353 161 349.5 141.5 c 128,-1,32
 346 122 346 122 342 97 c 128,-1,33
 338 72 338 72 333 45 c 128,-1,34
 328 18 328 18 323 -7 c 2,35,-1
 241 -425 l 1,36,-1
 -40 -425 l 1,37,-1
 207 846 l 2,38,39
 223 925 223 925 231.5 986.5 c 128,-1,40
 240 1048 240 1048 245 1082 c 1,41,-1
 517 1082 l 1,0,1
424 536 m 0,42,43
 408 453 408 453 408 390 c 256,44,45
 408 327 408 327 421.5 285 c 128,-1,46
 435 243 435 243 457.5 217.5 c 128,-1,47
 480 192 480 192 508 181.5 c 128,-1,48
 536 171 536 171 564 171 c 0,49,50
 610 171 610 171 651.5 192 c 128,-1,51
 693 213 693 213 728.5 258 c 128,-1,52
 764 303 764 303 792.5 373.5 c 128,-1,53
 821 444 821 444 840 543 c 0,54,55
 849 589 849 589 853 628.5 c 128,-1,56
 857 668 857 668 857 703 c 0,57,58
 857 807 857 807 819.5 859 c 128,-1,59
 782 911 782 911 710 911 c 0,60,61
 675 911 675 911 634 893 c 128,-1,62
 593 875 593 875 553 832 c 128,-1,63
 513 789 513 789 479 716.5 c 128,-1,64
 445 644 445 644 424 536 c 0,42,43
EndSplineSet
EndChar

StartChar: q
Encoding: 113 113 84
Width: 1229
Flags: W
LayerCount: 2
Fore
SplineSet
1194 1082 m 1,0,1
 1186 1048 1186 1048 1171 986.5 c 128,-1,2
 1156 925 1156 925 1140 846 c 2,3,-1
 893 -425 l 1,4,-1
 612 -425 l 1,5,-1
 694 -7 l 2,6,7
 699 18 699 18 704.5 45 c 128,-1,8
 710 72 710 72 715 97 c 128,-1,9
 720 122 720 122 724 141.5 c 128,-1,10
 728 161 728 161 730 171 c 1,11,-1
 728 171 l 1,12,13
 694 118 694 118 651.5 81.5 c 128,-1,14
 609 45 609 45 562.5 22.5 c 128,-1,15
 516 0 516 0 467.5 -10 c 128,-1,16
 419 -20 419 -20 374 -20 c 0,17,18
 296 -20 296 -20 239.5 5.5 c 128,-1,19
 183 31 183 31 147 78 c 128,-1,20
 111 125 111 125 93.5 191 c 128,-1,21
 76 257 76 257 76 338 c 0,22,23
 76 386 76 386 81.5 436.5 c 128,-1,24
 87 487 87 487 98 543 c 0,25,26
 121 664 121 664 167 766.5 c 128,-1,27
 213 869 213 869 277.5 944 c 128,-1,28
 342 1019 342 1019 424 1061 c 128,-1,29
 506 1103 506 1103 601 1103 c 0,30,31
 647 1103 647 1103 688.5 1092.5 c 128,-1,32
 730 1082 730 1082 764.5 1058.5 c 128,-1,33
 799 1035 799 1035 826 997.5 c 128,-1,34
 853 960 853 960 869 906 c 1,35,-1
 873 906 l 1,36,37
 877 927 877 927 884 954 c 128,-1,38
 891 981 891 981 898 1007 c 128,-1,39
 905 1033 905 1033 911.5 1054 c 128,-1,40
 918 1075 918 1075 922 1082 c 1,41,-1
 1194 1082 l 1,0,1
803 536 m 0,42,43
 819 619 819 619 819 684 c 256,44,45
 819 749 819 749 805 792.5 c 128,-1,46
 791 836 791 836 769 862 c 128,-1,47
 747 888 747 888 719 899.5 c 128,-1,48
 691 911 691 911 663 911 c 0,49,50
 567 911 567 911 496.5 819 c 128,-1,51
 426 727 426 727 391 543 c 0,52,53
 372 448 372 448 372 376 c 0,54,55
 372 268 372 268 411.5 219.5 c 128,-1,56
 451 171 451 171 521 171 c 0,57,58
 557 171 557 171 597.5 188 c 128,-1,59
 638 205 638 205 677 246.5 c 128,-1,60
 716 288 716 288 749 358.5 c 128,-1,61
 782 429 782 429 803 536 c 0,42,43
EndSplineSet
EndChar

StartChar: r
Encoding: 114 114 85
Width: 1229
Flags: W
LayerCount: 2
Fore
SplineSet
1141 848 m 1,0,1
 1096 856 1096 856 1045.5 861.5 c 128,-1,2
 995 867 995 867 933 867 c 0,3,4
 849 867 849 867 778.5 833 c 128,-1,5
 708 799 708 799 654 740.5 c 128,-1,6
 600 682 600 682 563.5 604 c 128,-1,7
 527 526 527 526 510 438 c 2,8,-1
 425 0 l 1,9,-1
 145 0 l 1,10,-1
 281 701 l 2,11,12
 295 777 295 777 300.5 853.5 c 128,-1,13
 306 930 306 930 306 990 c 0,14,15
 306 1019 306 1019 305 1042.5 c 128,-1,16
 304 1066 304 1066 303 1082 c 1,17,-1
 574 1082 l 1,18,19
 576 1056 576 1056 578 1023.5 c 128,-1,20
 580 991 580 991 580 955 c 0,21,22
 580 929 580 929 579 903 c 128,-1,23
 578 877 578 877 576 854 c 1,24,-1
 580 854 l 1,25,26
 612 911 612 911 649.5 957 c 128,-1,27
 687 1003 687 1003 735.5 1035 c 128,-1,28
 784 1067 784 1067 845 1084.5 c 128,-1,29
 906 1102 906 1102 984 1102 c 0,30,31
 1040 1102 1040 1102 1093.5 1097 c 128,-1,32
 1147 1092 1147 1092 1187 1085 c 1,33,-1
 1141 848 l 1,0,1
EndSplineSet
EndChar

StartChar: s
Encoding: 115 115 86
Width: 1229
Flags: W
LayerCount: 2
Fore
SplineSet
1060 316 m 0,0,1
 1045 238 1045 238 1000.5 176 c 128,-1,2
 956 114 956 114 885.5 70.5 c 128,-1,3
 815 27 815 27 720.5 3.5 c 128,-1,4
 626 -20 626 -20 511 -20 c 0,5,6
 408 -20 408 -20 328 -5 c 128,-1,7
 248 10 248 10 192 44.5 c 128,-1,8
 136 79 136 79 104.5 134 c 128,-1,9
 73 189 73 189 68 270 c 1,10,-1
 323 307 l 1,11,12
 326 262 326 262 341.5 234 c 128,-1,13
 357 206 357 206 385 191 c 128,-1,14
 413 176 413 176 453.5 171 c 128,-1,15
 494 166 494 166 547 166 c 0,16,17
 595 166 595 166 637.5 171.5 c 128,-1,18
 680 177 680 177 713 190.5 c 128,-1,19
 746 204 746 204 768 228.5 c 128,-1,20
 790 253 790 253 797 290 c 0,21,22
 805 332 805 332 785.5 356.5 c 128,-1,23
 766 381 766 381 726.5 396.5 c 128,-1,24
 687 412 687 412 632 423.5 c 128,-1,25
 577 435 577 435 514 450 c 0,26,27
 456 464 456 464 400 482 c 128,-1,28
 344 500 344 500 300.5 529 c 128,-1,29
 257 558 257 558 230 601 c 128,-1,30
 203 644 203 644 203 708 c 0,31,32
 203 723 203 723 204.5 740 c 128,-1,33
 206 757 206 757 210 775 c 0,34,35
 225 852 225 852 266.5 912.5 c 128,-1,36
 308 973 308 973 374 1015.5 c 128,-1,37
 440 1058 440 1058 530 1080.5 c 128,-1,38
 620 1103 620 1103 731 1103 c 0,39,40
 819 1103 819 1103 892 1086.5 c 128,-1,41
 965 1070 965 1070 1018 1034.5 c 128,-1,42
 1071 999 1071 999 1101 944 c 128,-1,43
 1131 889 1131 889 1132 811 c 1,44,-1
 878 785 l 1,45,46
 878 824 878 824 865.5 849.5 c 128,-1,47
 853 875 853 875 829 890 c 128,-1,48
 805 905 805 905 771 910.5 c 128,-1,49
 737 916 737 916 695 916 c 0,50,51
 595 916 595 916 540 890.5 c 128,-1,52
 485 865 485 865 473 805 c 0,53,54
 466 768 466 768 482.5 746 c 128,-1,55
 499 724 499 724 533.5 709.5 c 128,-1,56
 568 695 568 695 617.5 684.5 c 128,-1,57
 667 674 667 674 725 659 c 1,58,59
 790 645 790 645 851.5 626.5 c 128,-1,60
 913 608 913 608 961 577.5 c 128,-1,61
 1009 547 1009 547 1038 501 c 128,-1,62
 1067 455 1067 455 1067 386 c 0,63,64
 1067 351 1067 351 1060 316 c 0,0,1
EndSplineSet
EndChar

StartChar: t
Encoding: 116 116 87
Width: 1229
Flags: W
LayerCount: 2
Fore
SplineSet
396 892 m 1,0,-1
 229 892 l 1,1,-1
 266 1082 l 1,2,-1
 447 1082 l 1,3,-1
 590 1364 l 1,4,-1
 766 1364 l 1,5,-1
 711 1082 l 1,6,-1
 1096 1082 l 1,7,-1
 1059 892 l 1,8,-1
 674 892 l 1,9,-1
 571 362 l 2,10,11
 567 340 567 340 563.5 319 c 128,-1,12
 560 298 560 298 560 279 c 0,13,14
 560 257 560 257 566.5 238.5 c 128,-1,15
 573 220 573 220 589.5 206.5 c 128,-1,16
 606 193 606 193 635.5 185.5 c 128,-1,17
 665 178 665 178 710 178 c 0,18,19
 774 178 774 178 839 185 c 128,-1,20
 904 192 904 192 970 205 c 1,21,-1
 934 19 l 1,22,23
 895 13 895 13 857.5 7 c 128,-1,24
 820 1 820 1 780.5 -3.5 c 128,-1,25
 741 -8 741 -8 697.5 -10.5 c 128,-1,26
 654 -13 654 -13 603 -13 c 0,27,28
 503 -13 503 -13 439 6.5 c 128,-1,29
 375 26 375 26 338 58.5 c 128,-1,30
 301 91 301 91 287 134 c 128,-1,31
 273 177 273 177 273 224 c 0,32,33
 273 252 273 252 277 280 c 128,-1,34
 281 308 281 308 286 336 c 2,35,-1
 396 892 l 1,0,-1
EndSplineSet
EndChar

StartChar: u
Encoding: 117 117 88
Width: 1229
Flags: W
LayerCount: 2
Fore
SplineSet
521 1082 m 1,0,-1
 403 475 l 2,1,2
 391 412 391 412 391 360 c 0,3,4
 391 282 391 282 421 236 c 128,-1,5
 451 190 451 190 520 190 c 0,6,7
 563 190 563 190 605.5 212.5 c 128,-1,8
 648 235 648 235 684 276.5 c 128,-1,9
 720 318 720 318 747.5 375.5 c 128,-1,10
 775 433 775 433 788 502 c 2,11,-1
 900 1082 l 1,12,-1
 1181 1082 l 1,13,-1
 1018 242 l 2,14,15
 1011 208 1011 208 1004.5 170.5 c 128,-1,16
 998 133 998 133 993 99.5 c 128,-1,17
 988 66 988 66 984 39.5 c 128,-1,18
 980 13 980 13 979 0 c 1,19,-1
 711 0 l 1,20,21
 712 12 712 12 715 38.5 c 128,-1,22
 718 65 718 65 722.5 97 c 128,-1,23
 727 129 727 129 732 161 c 128,-1,24
 737 193 737 193 741 215 c 1,25,-1
 736 215 l 1,26,27
 656 92 656 92 561 36 c 128,-1,28
 466 -20 466 -20 362 -20 c 0,29,30
 288 -20 288 -20 236.5 0 c 128,-1,31
 185 20 185 20 153 56 c 128,-1,32
 121 92 121 92 106.5 142 c 128,-1,33
 92 192 92 192 92 253 c 0,34,35
 92 320 92 320 107 395 c 2,36,-1
 240 1082 l 1,37,-1
 521 1082 l 1,0,-1
EndSplineSet
EndChar

StartChar: v
Encoding: 118 118 89
Width: 1229
Flags: W
LayerCount: 2
Fore
SplineSet
669 0 m 1,0,-1
 333 0 l 1,1,-1
 136 1082 l 1,2,-1
 433 1082 l 1,3,-1
 521 460 l 2,4,5
 525 430 525 430 528 396.5 c 128,-1,6
 531 363 531 363 534 330 c 128,-1,7
 537 297 537 297 539.5 266 c 128,-1,8
 542 235 542 235 544 210 c 1,9,10
 555 234 555 234 569.5 264.5 c 128,-1,11
 584 295 584 295 600 328 c 128,-1,12
 616 361 616 361 633 394 c 128,-1,13
 650 427 650 427 666 457 c 2,14,-1
 1004 1082 l 1,15,-1
 1298 1082 l 1,16,-1
 669 0 l 1,0,-1
EndSplineSet
EndChar

StartChar: w
Encoding: 119 119 90
Width: 1229
Flags: W
LayerCount: 2
Fore
SplineSet
923 0 m 1,0,-1
 679 0 l 1,1,-1
 628 471 l 2,2,3
 625 498 625 498 623.5 517 c 128,-1,4
 622 536 622 536 621 549 c 0,5,6
 620 564 620 564 620 573 c 1,7,8
 617 564 617 564 611 550 c 0,9,10
 606 538 606 538 596.5 518 c 128,-1,11
 587 498 587 498 571 467 c 2,12,-1
 332 0 l 1,13,-1
 89 0 l 1,14,-1
 116 1082 l 1,15,-1
 344 1082 l 1,16,-1
 309 475 l 2,17,18
 306 427 306 427 301 367.5 c 128,-1,19
 296 308 296 308 284 249 c 1,20,21
 292 266 292 266 301 285 c 0,22,23
 309 302 309 302 318.5 322.5 c 128,-1,24
 328 343 328 343 339 363 c 2,25,-1
 572 817 l 1,26,-1
 765 817 l 1,27,-1
 816 362 l 2,28,29
 818 342 818 342 819.5 322.5 c 128,-1,30
 821 303 821 303 822 286 c 0,31,32
 823 267 823 267 823 249 c 1,33,34
 835 309 835 309 853 366.5 c 128,-1,35
 871 424 871 424 888 475 c 2,36,-1
 1097 1082 l 1,37,-1
 1323 1082 l 1,38,-1
 923 0 l 1,0,-1
EndSplineSet
EndChar

StartChar: x
Encoding: 120 120 91
Width: 1229
Flags: W
LayerCount: 2
Fore
SplineSet
769 0 m 1,0,-1
 583 392 l 1,1,-1
 243 0 l 1,2,-1
 -56 0 l 1,3,-1
 459 559 l 1,4,-1
 173 1082 l 1,5,-1
 476 1082 l 1,6,-1
 649 728 l 1,7,-1
 957 1082 l 1,8,-1
 1262 1082 l 1,9,-1
 774 562 l 1,10,-1
 1074 0 l 1,11,-1
 769 0 l 1,0,-1
EndSplineSet
EndChar

StartChar: y
Encoding: 121 121 92
Width: 1229
Flags: W
LayerCount: 2
Fore
SplineSet
626 -57 m 2,0,1
 570 -152 570 -152 516.5 -221.5 c 128,-1,2
 463 -291 463 -291 405.5 -336 c 128,-1,3
 348 -381 348 -381 282.5 -403 c 128,-1,4
 217 -425 217 -425 137 -425 c 0,5,6
 93 -425 93 -425 45 -422 c 128,-1,7
 -3 -419 -3 -419 -42 -412 c 1,8,-1
 -3 -212 l 1,9,10
 7 -214 7 -214 20 -215 c 128,-1,11
 33 -216 33 -216 46.5 -217.5 c 128,-1,12
 60 -219 60 -219 73.5 -219.5 c 128,-1,13
 87 -220 87 -220 97 -220 c 0,14,15
 138 -220 138 -220 171.5 -211 c 128,-1,16
 205 -202 205 -202 235.5 -181 c 128,-1,17
 266 -160 266 -160 295.5 -125 c 128,-1,18
 325 -90 325 -90 356 -37 c 1,19,-1
 383 11 l 1,20,-1
 143 1082 l 1,21,-1
 440 1082 l 1,22,-1
 528 555 l 2,23,24
 530 544 530 544 533.5 518 c 128,-1,25
 537 492 537 492 540.5 458.5 c 128,-1,26
 544 425 544 425 548 388 c 128,-1,27
 552 351 552 351 555.5 317.5 c 128,-1,28
 559 284 559 284 561.5 258 c 128,-1,29
 564 232 564 232 564 221 c 1,30,31
 569 232 569 232 580.5 257.5 c 128,-1,32
 592 283 592 283 607 315.5 c 128,-1,33
 622 348 622 348 639 384 c 128,-1,34
 656 420 656 420 671.5 453 c 128,-1,35
 687 486 687 486 699.5 512.5 c 128,-1,36
 712 539 712 539 718 551 c 2,37,-1
 1001 1082 l 1,38,-1
 1295 1082 l 1,39,-1
 626 -57 l 2,0,1
EndSplineSet
EndChar

StartChar: z
Encoding: 122 122 93
Width: 1229
Flags: W
LayerCount: 2
Fore
SplineSet
33 0 m 1,0,-1
 72 199 l 1,1,-1
 774 879 l 1,2,-1
 245 879 l 1,3,-1
 284 1082 l 1,4,-1
 1133 1082 l 1,5,-1
 1094 881 l 1,6,-1
 396 205 l 1,7,-1
 1012 205 l 1,8,-1
 972 0 l 1,9,-1
 33 0 l 1,0,-1
EndSplineSet
EndChar

StartChar: braceleft
Encoding: 123 123 94
Width: 1229
Flags: W
LayerCount: 2
Fore
SplineSet
530 -425 m 2,0,1
 412 -425 412 -425 349 -366.5 c 128,-1,2
 286 -308 286 -308 286 -203 c 0,3,4
 286 -169 286 -169 294 -126 c 2,5,-1
 357 202 l 2,6,7
 361 222 361 222 362.5 239 c 128,-1,8
 364 256 364 256 364 272 c 0,9,10
 364 315 364 315 350.5 345 c 128,-1,11
 337 375 337 375 312.5 394 c 128,-1,12
 288 413 288 413 252.5 421.5 c 128,-1,13
 217 430 217 430 173 431 c 1,14,-1
 211 626 l 1,15,16
 264 628 264 628 308.5 640.5 c 128,-1,17
 353 653 353 653 388.5 680 c 128,-1,18
 424 707 424 707 448.5 750.5 c 128,-1,19
 473 794 473 794 485 857 c 2,20,-1
 548 1185 l 2,21,22
 577 1332 577 1332 669.5 1408 c 128,-1,23
 762 1484 762 1484 901 1484 c 2,24,-1
 1228 1484 l 1,25,-1
 1192 1294 l 1,26,-1
 1004 1294 l 2,27,28
 913 1294 913 1294 862 1242 c 128,-1,29
 811 1190 811 1190 791 1085 c 2,30,-1
 732 784 l 2,31,32
 722 733 722 733 697.5 690.5 c 128,-1,33
 673 648 673 648 638.5 616 c 128,-1,34
 604 584 604 584 562 562.5 c 128,-1,35
 520 541 520 541 476 532 c 1,36,-1
 476 528 l 1,37,38
 511 519 511 519 541 502 c 128,-1,39
 571 485 571 485 593 459.5 c 128,-1,40
 615 434 615 434 627 401 c 128,-1,41
 639 368 639 368 639 328 c 0,42,43
 639 315 639 315 638 302.5 c 128,-1,44
 637 290 637 290 634 276 c 2,45,-1
 575 -25 l 2,46,47
 571 -46 571 -46 569 -65 c 128,-1,48
 567 -84 567 -84 567 -101 c 0,49,50
 567 -168 567 -168 600.5 -201 c 128,-1,51
 634 -234 634 -234 707 -234 c 2,52,-1
 895 -234 l 1,53,-1
 857 -425 l 1,54,-1
 530 -425 l 2,0,1
EndSplineSet
EndChar

StartChar: bar
Encoding: 124 124 95
Width: 1229
Flags: W
LayerCount: 2
Fore
SplineSet
483 -455 m 1,0,-1
 483 1484 l 1,1,-1
 745 1484 l 1,2,-1
 745 -455 l 1,3,-1
 483 -455 l 1,0,-1
EndSplineSet
EndChar

StartChar: braceright
Encoding: 125 125 96
Width: 1229
Flags: W
LayerCount: 2
Fore
SplineSet
-4 -425 m 1,0,-1
 34 -234 l 1,1,-1
 222 -234 l 2,2,3
 313 -234 313 -234 363.5 -182.5 c 128,-1,4
 414 -131 414 -131 434 -25 c 2,5,-1
 493 276 l 2,6,7
 503 327 503 327 527 368.5 c 128,-1,8
 551 410 551 410 585.5 442.5 c 128,-1,9
 620 475 620 475 662 496.5 c 128,-1,10
 704 518 704 518 749 528 c 1,11,-1
 749 532 l 1,12,13
 714 540 714 540 684 557 c 128,-1,14
 654 574 654 574 632.5 599.5 c 128,-1,15
 611 625 611 625 598.5 658.5 c 128,-1,16
 586 692 586 692 586 732 c 0,17,18
 586 745 586 745 587.5 757.5 c 128,-1,19
 589 770 589 770 591 784 c 2,20,-1
 650 1085 l 2,21,22
 655 1106 655 1106 656.5 1125.5 c 128,-1,23
 658 1145 658 1145 658 1162 c 0,24,25
 658 1228 658 1228 624.5 1261 c 128,-1,26
 591 1294 591 1294 519 1294 c 2,27,-1
 331 1294 l 1,28,-1
 367 1484 l 1,29,-1
 694 1484 l 2,30,31
 812 1484 812 1484 876 1429 c 128,-1,32
 940 1374 940 1374 940 1267 c 0,33,34
 940 1229 940 1229 931 1185 c 2,35,-1
 868 857 l 2,36,37
 864 837 864 837 862 819.5 c 128,-1,38
 860 802 860 802 860 786 c 0,39,40
 860 701 860 701 911.5 664.5 c 128,-1,41
 963 628 963 628 1052 626 c 1,42,-1
 1014 431 l 1,43,44
 962 430 962 430 917 418 c 128,-1,45
 872 406 872 406 837 379 c 128,-1,46
 802 352 802 352 777 308.5 c 128,-1,47
 752 265 752 265 740 202 c 2,48,-1
 677 -126 l 2,49,50
 664 -195 664 -195 632.5 -250.5 c 128,-1,51
 601 -306 601 -306 555.5 -344.5 c 128,-1,52
 510 -383 510 -383 451 -404 c 128,-1,53
 392 -425 392 -425 323 -425 c 2,54,-1
 -4 -425 l 1,0,-1
EndSplineSet
EndChar

StartChar: asciitilde
Encoding: 126 126 97
Width: 1229
Flags: W
LayerCount: 2
Fore
SplineSet
861 516 m 0,0,1
 786 516 786 516 718 537 c 128,-1,2
 650 558 650 558 580 584 c 0,3,4
 518 607 518 607 466 619 c 128,-1,5
 414 631 414 631 368 631 c 0,6,7
 329 631 329 631 294 625 c 128,-1,8
 259 619 259 619 226.5 607.5 c 128,-1,9
 194 596 194 596 162 580 c 128,-1,10
 130 564 130 564 96 543 c 1,11,-1
 137 756 l 1,12,13
 195 794 195 794 267.5 817 c 128,-1,14
 340 840 340 840 424 840 c 0,15,16
 465 840 465 840 504.5 833.5 c 128,-1,17
 544 827 544 827 582.5 816.5 c 128,-1,18
 621 806 621 806 657.5 792.5 c 128,-1,19
 694 779 694 779 729 766 c 0,20,21
 771 750 771 750 822 736.5 c 128,-1,22
 873 723 873 723 921 723 c 0,23,24
 989 723 989 723 1057.5 748 c 128,-1,25
 1126 773 1126 773 1186 815 c 1,26,-1
 1144 596 l 1,27,28
 1108 574 1108 574 1074.5 558.5 c 128,-1,29
 1041 543 1041 543 1007 533.5 c 128,-1,30
 973 524 973 524 937.5 520 c 128,-1,31
 902 516 902 516 861 516 c 0,0,1
EndSplineSet
EndChar

StartChar: exclamdown
Encoding: 161 161 98
Width: 1229
Flags: W
LayerCount: 2
Fore
SplineSet
522 653 m 1,0,-1
 752 653 l 1,1,-1
 605 -270 l 1,2,-1
 311 -270 l 1,3,-1
 522 653 l 1,0,-1
867 1079 m 1,4,-1
 814 809 l 1,5,-1
 526 809 l 1,6,-1
 579 1079 l 1,7,-1
 867 1079 l 1,4,-1
EndSplineSet
EndChar

StartChar: cent
Encoding: 162 162 99
Width: 1229
Flags: W
VStem: 107 285<375.678 773.534>
LayerCount: 2
Fore
SplineSet
672.729 324.319 m 1,0,1
 801.898 368.177 801.898 368.177 852 520 c 1,2,-1
 1133 508 l 1,3,4
 1051.98 275.072 1051.98 275.072 814.5 176 c 0,5,6
 733.059 142.025 733.059 142.025 635.142 131.016 c 1,7,-1
 598 -60 l 1,8,-1
 436 -60 l 1,9,-1
 472.755 129.024 l 1,10,11
 291.476 146.631 291.476 146.631 196.5 251 c 0,12,13
 107 349.352 107 349.352 107 517 c 0,14,15
 107 592.25 107 592.25 125.5 683.125 c 128,-1,16
 144 774 144 774 192.5 868.5 c 128,-1,17
 241 963 241 963 312.5 1032 c 0,18,19
 457.519 1171.95 457.519 1171.95 680 1196 c 1,20,-1
 716 1380 l 1,21,-1
 878 1380 l 1,22,-1
 842.217 1195.98 l 1,23,24
 1012.29 1176.59 1012.29 1176.59 1103 1078.5 c 0,25,26
 1188 986.581 1188 986.581 1188 845 c 2,27,-1
 1188 839 l 1,28,-1
 903 825 l 1,29,30
 906.242 961.18 906.242 961.18 804.501 1002 c 1,31,-1
 672.729 324.319 l 1,0,1
510.53 323.297 m 1,32,-1
 642.769 1003.39 l 1,33,34
 461.706 948.969 461.706 948.969 406 667 c 0,35,36
 392 596.135 392 596.135 392 540 c 0,37,38
 392 365.176 392 365.176 510.53 323.297 c 1,32,-1
EndSplineSet
EndChar

StartChar: sterling
Encoding: 163 163 100
Width: 1229
Flags: W
LayerCount: 2
Fore
SplineSet
1146 363 m 1,0,1
 1119 290 1119 290 1076 224 c 128,-1,2
 1033 158 1033 158 974.5 108.5 c 128,-1,3
 916 59 916 59 843 29.5 c 128,-1,4
 770 0 770 0 683 0 c 2,5,-1
 -21 0 l 1,6,-1
 19 205 l 1,7,8
 63 227 63 227 100.5 253 c 128,-1,9
 138 279 138 279 168 314.5 c 128,-1,10
 198 350 198 350 220.5 398 c 128,-1,11
 243 446 243 446 256 512 c 2,12,-1
 271 594 l 1,13,-1
 83 594 l 1,14,-1
 117 764 l 1,15,-1
 295 764 l 1,16,-1
 333 962 l 2,17,18
 351 1054 351 1054 389.5 1129.5 c 128,-1,19
 428 1205 428 1205 490 1258.5 c 128,-1,20
 552 1312 552 1312 638 1341 c 128,-1,21
 724 1370 724 1370 838 1370 c 0,22,23
 934 1370 934 1370 998 1349.5 c 128,-1,24
 1062 1329 1062 1329 1102.5 1291 c 128,-1,25
 1143 1253 1143 1253 1162.5 1199.5 c 128,-1,26
 1182 1146 1182 1146 1189 1079 c 1,27,-1
 947 1032 l 1,28,29
 940 1109 940 1109 906 1144 c 128,-1,30
 872 1179 872 1179 806 1179 c 0,31,32
 715 1179 715 1179 664 1121.5 c 128,-1,33
 613 1064 613 1064 589 939 c 2,34,-1
 555 764 l 1,35,-1
 841 764 l 1,36,-1
 807 594 l 1,37,-1
 521 594 l 1,38,-1
 506 514 l 2,39,40
 494 455 494 455 473 408.5 c 128,-1,41
 452 362 452 362 421.5 325.5 c 128,-1,42
 391 289 391 289 352 261 c 128,-1,43
 313 233 313 233 265 209 c 1,44,-1
 655 209 l 2,45,46
 759 209 759 209 822 258.5 c 128,-1,47
 885 308 885 308 920 402 c 1,48,-1
 1146 363 l 1,0,1
EndSplineSet
EndChar

StartChar: currency
Encoding: 164 164 101
Width: 1229
Flags: W
LayerCount: 2
Fore
SplineSet
207 684 m 0,0,1
 219 744 219 744 245 800 c 128,-1,2
 271 856 271 856 310 905 c 1,3,-1
 203 1038 l 1,4,-1
 390 1194 l 1,5,-1
 495 1061 l 1,6,7
 549 1089 549 1089 608 1104.5 c 128,-1,8
 667 1120 667 1120 727 1120 c 256,9,10
 787 1120 787 1120 839.5 1105 c 128,-1,11
 892 1090 892 1090 934 1061 c 1,12,-1
 1095 1196 l 1,13,-1
 1223 1038 l 1,14,-1
 1061 903 l 1,15,16
 1087 842 1087 842 1087 768 c 0,17,18
 1087 728 1087 728 1078 684 c 0,19,20
 1066 624 1066 624 1040.5 569.5 c 128,-1,21
 1015 515 1015 515 978 467 c 1,22,-1
 1086 334 l 1,23,-1
 897 174 l 1,24,-1
 790 309 l 1,25,26
 678 250 678 250 558 250 c 0,27,28
 498 250 498 250 444.5 264.5 c 128,-1,29
 391 279 391 279 349 307 c 1,30,-1
 187 170 l 1,31,-1
 61 328 l 1,32,-1
 222 465 l 1,33,34
 211 495 211 495 204.5 528.5 c 128,-1,35
 198 562 198 562 198 598 c 0,36,37
 198 641 198 641 207 684 c 0,0,1
433 686 m 0,38,39
 429 669 429 669 429 647 c 0,40,41
 429 611 429 611 441.5 580 c 128,-1,42
 454 549 454 549 477 526 c 128,-1,43
 500 503 500 503 532 490 c 128,-1,44
 564 477 564 477 602 477 c 0,45,46
 645 477 645 477 686 493.5 c 128,-1,47
 727 510 727 510 760.5 538.5 c 128,-1,48
 794 567 794 567 818 605 c 128,-1,49
 842 643 842 643 850 686 c 0,50,51
 854 705 854 705 854 727 c 0,52,53
 854 763 854 763 841.5 794 c 128,-1,54
 829 825 829 825 806 847.5 c 128,-1,55
 783 870 783 870 752 882.5 c 128,-1,56
 721 895 721 895 683 895 c 0,57,58
 640 895 640 895 598.5 878.5 c 128,-1,59
 557 862 557 862 523.5 833.5 c 128,-1,60
 490 805 490 805 466 767 c 128,-1,61
 442 729 442 729 433 686 c 0,38,39
EndSplineSet
EndChar

StartChar: yen
Encoding: 165 165 102
Width: 1229
Flags: W
LayerCount: 2
Fore
SplineSet
840 691 m 1,0,-1
 1116 691 l 1,1,-1
 1088 545 l 1,2,-1
 750 545 l 1,3,-1
 718 383 l 1,4,-1
 1056 383 l 1,5,-1
 1028 236 l 1,6,-1
 690 236 l 1,7,-1
 644 0 l 1,8,-1
 372 0 l 1,9,-1
 418 236 l 1,10,-1
 82 236 l 1,11,-1
 110 383 l 1,12,-1
 446 383 l 1,13,-1
 478 545 l 1,14,-1
 142 545 l 1,15,-1
 170 691 l 1,16,-1
 446 691 l 1,17,-1
 190 1349 l 1,18,-1
 479 1349 l 1,19,-1
 665 813 l 1,20,-1
 1063 1349 l 1,21,-1
 1352 1349 l 1,22,-1
 840 691 l 1,0,-1
EndSplineSet
EndChar

StartChar: brokenbar
Encoding: 166 166 103
Width: 1229
Flags: W
LayerCount: 2
Fore
SplineSet
483 676 m 1,0,-1
 483 1454 l 1,1,-1
 745 1454 l 1,2,-1
 745 676 l 1,3,-1
 483 676 l 1,0,-1
483 -455 m 1,4,-1
 483 324 l 1,5,-1
 745 324 l 1,6,-1
 745 -455 l 1,7,-1
 483 -455 l 1,4,-1
EndSplineSet
EndChar

StartChar: section
Encoding: 167 167 104
Width: 1229
Flags: W
LayerCount: 2
Fore
SplineSet
813 1485 m 0,0,1
 900 1485 900 1485 973.5 1469.5 c 128,-1,2
 1047 1454 1047 1454 1100.5 1421 c 128,-1,3
 1154 1388 1154 1388 1184 1336 c 128,-1,4
 1214 1284 1214 1284 1215 1211 c 1,5,-1
 972 1186 l 1,6,7
 971 1220 971 1220 956.5 1244.5 c 128,-1,8
 942 1269 942 1269 916.5 1284.5 c 128,-1,9
 891 1300 891 1300 856 1307.5 c 128,-1,10
 821 1315 821 1315 780 1315 c 0,11,12
 668 1315 668 1315 609.5 1285.5 c 128,-1,13
 551 1256 551 1256 539 1191 c 0,14,15
 531 1152 531 1152 548.5 1125.5 c 128,-1,16
 566 1099 566 1099 601.5 1080 c 128,-1,17
 637 1061 637 1061 685.5 1047.5 c 128,-1,18
 734 1034 734 1034 789 1021 c 0,19,20
 863 1003 863 1003 927.5 982.5 c 128,-1,21
 992 962 992 962 1041 931 c 128,-1,22
 1090 900 1090 900 1118 857 c 128,-1,23
 1146 814 1146 814 1146 751 c 0,24,25
 1146 724 1146 724 1140 692 c 0,26,27
 1131 648 1131 648 1110 607.5 c 128,-1,28
 1089 567 1089 567 1057 532.5 c 128,-1,29
 1025 498 1025 498 983 471 c 128,-1,30
 941 444 941 444 891 429 c 1,31,32
 954 398 954 398 991.5 351.5 c 128,-1,33
 1029 305 1029 305 1029 232 c 0,34,35
 1029 205 1029 205 1023 173 c 0,36,37
 1008 95 1008 95 966.5 31.5 c 128,-1,38
 925 -32 925 -32 856.5 -77 c 128,-1,39
 788 -122 788 -122 692 -146.5 c 128,-1,40
 596 -171 596 -171 472 -171 c 0,41,42
 369 -171 369 -171 288.5 -156 c 128,-1,43
 208 -141 208 -141 151 -107 c 128,-1,44
 94 -73 94 -73 62 -18 c 128,-1,45
 30 37 30 37 25 117 c 1,46,-1
 269 154 l 1,47,48
 271 109 271 109 288 79 c 128,-1,49
 305 49 305 49 336 31 c 128,-1,50
 367 13 367 13 409.5 6 c 128,-1,51
 452 -1 452 -1 505 -1 c 0,52,53
 627 -1 627 -1 696 31.5 c 128,-1,54
 765 64 765 64 781 144 c 0,55,56
 784 161 784 161 784 174 c 0,57,58
 784 210 784 210 764.5 233.5 c 128,-1,59
 745 257 745 257 706.5 275 c 128,-1,60
 668 293 668 293 612 308 c 128,-1,61
 556 323 556 323 483 341 c 0,62,63
 428 355 428 355 371.5 374.5 c 128,-1,64
 315 394 315 394 268.5 424.5 c 128,-1,65
 222 455 222 455 192.5 499 c 128,-1,66
 163 543 163 543 163 606 c 0,67,68
 163 618 163 618 164 631 c 128,-1,69
 165 644 165 644 168 658 c 0,70,71
 187 756 187 756 257 819 c 128,-1,72
 327 882 327 882 431 914 c 1,73,74
 401 928 401 928 374.5 948 c 128,-1,75
 348 968 348 968 329 994 c 128,-1,76
 310 1020 310 1020 299 1052 c 128,-1,77
 288 1084 288 1084 288 1121 c 0,78,79
 288 1133 288 1133 289 1145.5 c 128,-1,80
 290 1158 290 1158 293 1172 c 0,81,82
 307 1246 307 1246 348.5 1304 c 128,-1,83
 390 1362 390 1362 456 1402.5 c 128,-1,84
 522 1443 522 1443 612 1464 c 128,-1,85
 702 1485 702 1485 813 1485 c 0,0,1
895 658 m 0,86,87
 898 675 898 675 898 688 c 0,88,89
 898 718 898 718 882.5 740 c 128,-1,90
 867 762 867 762 835.5 779.5 c 128,-1,91
 804 797 804 797 755 810.5 c 128,-1,92
 706 824 706 824 638 838 c 1,93,94
 543 827 543 827 486 790.5 c 128,-1,95
 429 754 429 754 415 685 c 0,96,97
 408 646 408 646 427 619.5 c 128,-1,98
 446 593 446 593 482.5 574.5 c 128,-1,99
 519 556 519 556 568.5 542.5 c 128,-1,100
 618 529 618 529 672 516 c 1,101,102
 714 518 714 518 751 526.5 c 128,-1,103
 788 535 788 535 818 552 c 128,-1,104
 848 569 848 569 868 595 c 128,-1,105
 888 621 888 621 895 658 c 0,86,87
EndSplineSet
EndChar

StartChar: dieresis
Encoding: 168 168 105
Width: 1229
Flags: W
LayerCount: 2
Fore
SplineSet
845 1219 m 1,0,-1
 888 1438 l 1,1,-1
 1115 1438 l 1,2,-1
 1072 1219 l 1,3,-1
 845 1219 l 1,0,-1
421 1219 m 1,4,-1
 464 1438 l 1,5,-1
 688 1438 l 1,6,-1
 645 1219 l 1,7,-1
 421 1219 l 1,4,-1
EndSplineSet
EndChar

StartChar: copyright
Encoding: 169 169 106
Width: 1229
Flags: W
LayerCount: 2
Fore
SplineSet
628 333 m 0,0,1
 538 333 538 333 471.5 365 c 128,-1,2
 405 397 405 397 361.5 454 c 128,-1,3
 318 511 318 511 296.5 590 c 128,-1,4
 275 669 275 669 275 763 c 0,5,6
 275 861 275 861 296.5 939 c 128,-1,7
 318 1017 318 1017 361 1072.5 c 128,-1,8
 404 1128 404 1128 469 1157.5 c 128,-1,9
 534 1187 534 1187 621 1187 c 0,10,11
 688 1187 688 1187 737.5 1169 c 128,-1,12
 787 1151 787 1151 823 1121.5 c 128,-1,13
 859 1092 859 1092 883.5 1054.5 c 128,-1,14
 908 1017 908 1017 924 978 c 1,15,-1
 786 935 l 1,16,17
 763 995 763 995 724.5 1028.5 c 128,-1,18
 686 1062 686 1062 623 1062 c 0,19,20
 573 1062 573 1062 536 1041 c 128,-1,21
 499 1020 499 1020 475 981 c 128,-1,22
 451 942 451 942 439.5 886.5 c 128,-1,23
 428 831 428 831 428 763 c 0,24,25
 428 694 428 694 441 638 c 128,-1,26
 454 582 454 582 479.5 541.5 c 128,-1,27
 505 501 505 501 542 479 c 128,-1,28
 579 457 579 457 628 457 c 0,29,30
 662 457 662 457 688.5 469 c 128,-1,31
 715 481 715 481 735.5 502 c 128,-1,32
 756 523 756 523 771.5 551 c 128,-1,33
 787 579 787 579 799 611 c 1,34,-1
 928 569 l 1,35,36
 913 523 913 523 888 480.5 c 128,-1,37
 863 438 863 438 826.5 405 c 128,-1,38
 790 372 790 372 741 352.5 c 128,-1,39
 692 333 692 333 628 333 c 0,0,1
1197 761 m 256,40,41
 1197 574 1197 574 1151.5 437.5 c 128,-1,42
 1106 301 1106 301 1027 212 c 128,-1,43
 948 123 948 123 841.5 80.5 c 128,-1,44
 735 38 735 38 614 38 c 0,45,46
 494 38 494 38 388 80.5 c 128,-1,47
 282 123 282 123 202.5 212 c 128,-1,48
 123 301 123 301 77 437.5 c 128,-1,49
 31 574 31 574 31 761 c 256,50,51
 31 948 31 948 77 1084.5 c 128,-1,52
 123 1221 123 1221 202 1309.5 c 128,-1,53
 281 1398 281 1398 387 1441 c 128,-1,54
 493 1484 493 1484 614 1484 c 256,55,56
 735 1484 735 1484 841.5 1441 c 128,-1,57
 948 1398 948 1398 1027 1309.5 c 128,-1,58
 1106 1221 1106 1221 1151.5 1084.5 c 128,-1,59
 1197 948 1197 948 1197 761 c 256,40,41
1071 761 m 0,60,61
 1071 920 1071 920 1036 1034.5 c 128,-1,62
 1001 1149 1001 1149 939.5 1223.5 c 128,-1,63
 878 1298 878 1298 794.5 1333 c 128,-1,64
 711 1368 711 1368 614 1368 c 0,65,66
 518 1368 518 1368 435.5 1333 c 128,-1,67
 353 1298 353 1298 291.5 1223.5 c 128,-1,68
 230 1149 230 1149 195 1034.5 c 128,-1,69
 160 920 160 920 160 761 c 0,70,71
 160 601 160 601 195 486 c 128,-1,72
 230 371 230 371 291.5 297 c 128,-1,73
 353 223 353 223 435.5 188 c 128,-1,74
 518 153 518 153 614 153 c 0,75,76
 711 153 711 153 794.5 188 c 128,-1,77
 878 223 878 223 939.5 297 c 128,-1,78
 1001 371 1001 371 1036 486 c 128,-1,79
 1071 601 1071 601 1071 761 c 0,60,61
EndSplineSet
EndChar

StartChar: ordfeminine
Encoding: 170 170 107
Width: 1229
Flags: W
LayerCount: 2
Fore
SplineSet
465 643 m 0,0,1
 368 643 368 643 314.5 688 c 128,-1,2
 261 733 261 733 261 818 c 0,3,4
 261 845 261 845 267 875 c 0,5,6
 281 944 281 944 316 990 c 128,-1,7
 351 1036 351 1036 401.5 1064 c 128,-1,8
 452 1092 452 1092 513 1104.5 c 128,-1,9
 574 1117 574 1117 640 1118 c 2,10,-1
 810 1120 l 1,11,-1
 819 1168 l 2,12,13
 821 1182 821 1182 822.5 1193 c 128,-1,14
 824 1204 824 1204 824 1215 c 0,15,16
 824 1267 824 1267 796 1286 c 128,-1,17
 768 1305 768 1305 727 1305 c 0,18,19
 703 1305 703 1305 680.5 1300.5 c 128,-1,20
 658 1296 658 1296 638.5 1284 c 128,-1,21
 619 1272 619 1272 603 1251 c 128,-1,22
 587 1230 587 1230 577 1197 c 1,23,-1
 360 1208 l 1,24,25
 378 1257 378 1257 411.5 1299.5 c 128,-1,26
 445 1342 445 1342 494 1373.5 c 128,-1,27
 543 1405 543 1405 607.5 1423 c 128,-1,28
 672 1441 672 1441 751 1441 c 0,29,30
 816 1441 816 1441 868.5 1428.5 c 128,-1,31
 921 1416 921 1416 958 1390 c 128,-1,32
 995 1364 995 1364 1015 1325 c 128,-1,33
 1035 1286 1035 1286 1035 1233 c 0,34,35
 1035 1204 1035 1204 1029 1171 c 2,36,-1
 976 898 l 2,37,38
 972 879 972 879 970 864 c 128,-1,39
 968 849 968 849 968 836 c 0,40,41
 968 812 968 812 978 799.5 c 128,-1,42
 988 787 988 787 1013 787 c 0,43,44
 1018 787 1018 787 1026 787.5 c 128,-1,45
 1034 788 1034 788 1042.5 789 c 128,-1,46
 1051 790 1051 790 1058.5 790.5 c 128,-1,47
 1066 791 1066 791 1070 792 c 1,48,-1
 1046 667 l 1,49,50
 1011 657 1011 657 974 651.5 c 128,-1,51
 937 646 937 646 906 646 c 0,52,53
 825 646 825 646 786 688 c 128,-1,54
 747 730 747 730 755 800 c 1,55,-1
 752 800 l 1,56,57
 698 726 698 726 626 684.5 c 128,-1,58
 554 643 554 643 465 643 c 0,0,1
576 794 m 0,59,60
 616 794 616 794 651 811 c 128,-1,61
 686 828 686 828 713 854.5 c 128,-1,62
 740 881 740 881 758 914 c 128,-1,63
 776 947 776 947 782 979 c 2,64,-1
 788 1010 l 1,65,-1
 682 1007 l 2,66,67
 646 1006 646 1006 614 1002 c 128,-1,68
 582 998 582 998 556.5 986 c 128,-1,69
 531 974 531 974 513 951.5 c 128,-1,70
 495 929 495 929 487 891 c 0,71,72
 478 844 478 844 499 819 c 128,-1,73
 520 794 520 794 576 794 c 0,59,60
EndSplineSet
EndChar

StartChar: guillemotleft
Encoding: 171 171 108
Width: 1229
Flags: W
LayerCount: 2
Fore
SplineSet
779 141 m 1,0,-1
 594 502 l 1,1,-1
 607 573 l 1,2,-1
 935 940 l 1,3,-1
 1173 940 l 1,4,-1
 1166 903 l 1,5,-1
 840 537 l 1,6,-1
 1026 176 l 1,7,-1
 1019 141 l 1,8,-1
 779 141 l 1,0,-1
312 141 m 1,9,-1
 125 502 l 1,10,-1
 138 573 l 1,11,-1
 468 940 l 1,12,-1
 704 940 l 1,13,-1
 697 903 l 1,14,-1
 371 537 l 1,15,-1
 557 176 l 1,16,-1
 550 141 l 1,17,-1
 312 141 l 1,9,-1
EndSplineSet
EndChar

StartChar: logicalnot
Encoding: 172 172 109
Width: 1229
Flags: W
LayerCount: 2
Fore
SplineSet
887 141 m 1,0,-1
 887 569 l 1,1,-1
 84 569 l 1,2,-1
 84 793 l 1,3,-1
 1111 793 l 1,4,-1
 1111 141 l 1,5,-1
 887 141 l 1,0,-1
EndSplineSet
EndChar

StartChar: registered
Encoding: 174 174 110
Width: 1229
Flags: W
LayerCount: 2
Fore
SplineSet
1197 761 m 256,0,1
 1197 574 1197 574 1151.5 437.5 c 128,-1,2
 1106 301 1106 301 1027 212 c 128,-1,3
 948 123 948 123 841.5 80.5 c 128,-1,4
 735 38 735 38 614 38 c 0,5,6
 494 38 494 38 388 80.5 c 128,-1,7
 282 123 282 123 202.5 212 c 128,-1,8
 123 301 123 301 77 437.5 c 128,-1,9
 31 574 31 574 31 761 c 256,10,11
 31 948 31 948 77 1084.5 c 128,-1,12
 123 1221 123 1221 202 1309.5 c 128,-1,13
 281 1398 281 1398 387 1441 c 128,-1,14
 493 1484 493 1484 614 1484 c 256,15,16
 735 1484 735 1484 841.5 1441 c 128,-1,17
 948 1398 948 1398 1027 1309.5 c 128,-1,18
 1106 1221 1106 1221 1151.5 1084.5 c 128,-1,19
 1197 948 1197 948 1197 761 c 256,0,1
789 343 m 1,20,-1
 599 672 l 1,21,-1
 483 672 l 1,22,-1
 483 343 l 1,23,-1
 332 343 l 1,24,-1
 332 1174 l 1,25,-1
 639 1174 l 2,26,27
 781 1174 781 1174 856.5 1111 c 128,-1,28
 932 1048 932 1048 932 937 c 0,29,30
 932 835 932 835 881.5 770 c 128,-1,31
 831 705 831 705 746 686 c 1,32,-1
 964 343 l 1,33,-1
 789 343 l 1,20,-1
781 935 m 0,34,35
 781 1004 781 1004 733.5 1033 c 128,-1,36
 686 1062 686 1062 605 1062 c 2,37,-1
 483 1062 l 1,38,-1
 483 782 l 1,39,-1
 617 782 l 2,40,41
 697 782 697 782 739 821 c 128,-1,42
 781 860 781 860 781 935 c 0,34,35
1071 761 m 0,43,44
 1071 920 1071 920 1036 1034.5 c 128,-1,45
 1001 1149 1001 1149 939.5 1223.5 c 128,-1,46
 878 1298 878 1298 794.5 1333 c 128,-1,47
 711 1368 711 1368 614 1368 c 0,48,49
 518 1368 518 1368 435.5 1333 c 128,-1,50
 353 1298 353 1298 291.5 1223.5 c 128,-1,51
 230 1149 230 1149 195 1034.5 c 128,-1,52
 160 920 160 920 160 761 c 0,53,54
 160 601 160 601 195 486 c 128,-1,55
 230 371 230 371 291.5 297 c 128,-1,56
 353 223 353 223 435.5 188 c 128,-1,57
 518 153 518 153 614 153 c 0,58,59
 711 153 711 153 794.5 188 c 128,-1,60
 878 223 878 223 939.5 297 c 128,-1,61
 1001 371 1001 371 1036 486 c 128,-1,62
 1071 601 1071 601 1071 761 c 0,43,44
EndSplineSet
EndChar

StartChar: degree
Encoding: 176 176 112
Width: 1229
Flags: W
LayerCount: 2
Fore
SplineSet
935 1110 m 0,0,1
 935 1044 935 1044 909.5 986.5 c 128,-1,2
 884 929 884 929 840.5 886.5 c 128,-1,3
 797 844 797 844 738.5 819.5 c 128,-1,4
 680 795 680 795 614 795 c 256,5,6
 548 795 548 795 489.5 819.5 c 128,-1,7
 431 844 431 844 387.5 886.5 c 128,-1,8
 344 929 344 929 319 986.5 c 128,-1,9
 294 1044 294 1044 294 1110 c 0,10,11
 294 1177 294 1177 319 1234.5 c 128,-1,12
 344 1292 344 1292 387.5 1334.5 c 128,-1,13
 431 1377 431 1377 489.5 1401 c 128,-1,14
 548 1425 548 1425 614 1425 c 256,15,16
 680 1425 680 1425 738.5 1401 c 128,-1,17
 797 1377 797 1377 840.5 1334.5 c 128,-1,18
 884 1292 884 1292 909.5 1234.5 c 128,-1,19
 935 1177 935 1177 935 1110 c 0,0,1
777 1110 m 0,20,21
 777 1145 777 1145 764.5 1175.5 c 128,-1,22
 752 1206 752 1206 730 1228.5 c 128,-1,23
 708 1251 708 1251 678.5 1263.5 c 128,-1,24
 649 1276 649 1276 614 1276 c 256,25,26
 579 1276 579 1276 549 1263.5 c 128,-1,27
 519 1251 519 1251 496.5 1228.5 c 128,-1,28
 474 1206 474 1206 461 1175.5 c 128,-1,29
 448 1145 448 1145 448 1110 c 0,30,31
 448 1076 448 1076 461 1045.5 c 128,-1,32
 474 1015 474 1015 496.5 992 c 128,-1,33
 519 969 519 969 549 955.5 c 128,-1,34
 579 942 579 942 614 942 c 256,35,36
 649 942 649 942 678.5 955.5 c 128,-1,37
 708 969 708 969 730 992 c 128,-1,38
 752 1015 752 1015 764.5 1045.5 c 128,-1,39
 777 1076 777 1076 777 1110 c 0,20,21
EndSplineSet
EndChar

StartChar: plusminus
Encoding: 177 177 113
Width: 1229
Flags: W
LayerCount: 2
Fore
SplineSet
726 707 m 1,0,-1
 726 366 l 1,1,-1
 502 366 l 1,2,-1
 502 707 l 1,3,-1
 101 707 l 1,4,-1
 101 930 l 1,5,-1
 502 930 l 1,6,-1
 502 1270 l 1,7,-1
 726 1270 l 1,8,-1
 726 930 l 1,9,-1
 1128 930 l 1,10,-1
 1128 707 l 1,11,-1
 726 707 l 1,0,-1
101 0 m 1,12,-1
 101 223 l 1,13,-1
 1128 223 l 1,14,-1
 1128 0 l 1,15,-1
 101 0 l 1,12,-1
EndSplineSet
EndChar

StartChar: uni00B2
Encoding: 178 178 114
Width: 1229
Flags: W
LayerCount: 2
Fore
SplineSet
281 563 m 1,0,-1
 309 705 l 1,1,2
 351 768 351 768 404 815 c 128,-1,3
 457 862 457 862 513.5 900 c 128,-1,4
 570 938 570 938 625.5 969 c 128,-1,5
 681 1000 681 1000 726.5 1030.5 c 128,-1,6
 772 1061 772 1061 803 1093.5 c 128,-1,7
 834 1126 834 1126 842 1166 c 0,8,9
 845 1183 845 1183 845 1198 c 0,10,11
 845 1233 845 1233 826.5 1253 c 128,-1,12
 808 1273 808 1273 766 1273 c 0,13,14
 715 1273 715 1273 682.5 1244.5 c 128,-1,15
 650 1216 650 1216 633 1158 c 1,16,-1
 406 1164 l 1,17,18
 424 1218 424 1218 458 1265 c 128,-1,19
 492 1312 492 1312 541.5 1347 c 128,-1,20
 591 1382 591 1382 654.5 1402 c 128,-1,21
 718 1422 718 1422 795 1422 c 0,22,23
 869 1422 869 1422 922.5 1407.5 c 128,-1,24
 976 1393 976 1393 1011 1367.5 c 128,-1,25
 1046 1342 1046 1342 1063 1306 c 128,-1,26
 1080 1270 1080 1270 1080 1226 c 0,27,28
 1080 1203 1080 1203 1075 1175 c 0,29,30
 1063 1114 1063 1114 1028.5 1066.5 c 128,-1,31
 994 1019 994 1019 946.5 981.5 c 128,-1,32
 899 944 899 944 844 913 c 128,-1,33
 789 882 789 882 738 852.5 c 128,-1,34
 687 823 687 823 644.5 792.5 c 128,-1,35
 602 762 602 762 578 725 c 1,36,-1
 1003 725 l 1,37,-1
 971 563 l 1,38,-1
 281 563 l 1,0,-1
EndSplineSet
EndChar

StartChar: uni00B3
Encoding: 179 179 115
Width: 1229
Flags: W
LayerCount: 2
Fore
SplineSet
1012 799 m 0,0,1
 989 683 989 683 888.5 617 c 128,-1,2
 788 551 788 551 626 551 c 0,3,4
 533 551 533 551 472.5 569.5 c 128,-1,5
 412 588 412 588 376.5 618.5 c 128,-1,6
 341 649 341 649 327 689 c 128,-1,7
 313 729 313 729 313 771 c 0,8,9
 313 777 313 777 313 783 c 128,-1,10
 313 789 313 789 314 795 c 1,11,-1
 538 810 l 1,12,13
 534 756 534 756 561 728 c 128,-1,14
 588 700 588 700 651 700 c 0,15,16
 708 700 708 700 745 728 c 128,-1,17
 782 756 782 756 793 813 c 0,18,19
 800 849 800 849 788.5 870.5 c 128,-1,20
 777 892 777 892 755 903 c 128,-1,21
 733 914 733 914 705 917.5 c 128,-1,22
 677 921 677 921 651 921 c 2,23,-1
 585 921 l 1,24,-1
 614 1069 l 1,25,-1
 674 1069 l 2,26,27
 701 1069 701 1069 728.5 1073.5 c 128,-1,28
 756 1078 756 1078 779.5 1090 c 128,-1,29
 803 1102 803 1102 820 1122.5 c 128,-1,30
 837 1143 837 1143 843 1174 c 0,31,32
 852 1220 852 1220 830 1246 c 128,-1,33
 808 1272 808 1272 757 1272 c 0,34,35
 708 1272 708 1272 672.5 1245.5 c 128,-1,36
 637 1219 637 1219 622 1167 c 1,37,-1
 407 1181 l 1,38,39
 426 1241 426 1241 463.5 1286 c 128,-1,40
 501 1331 501 1331 552 1361 c 128,-1,41
 603 1391 603 1391 664.5 1406 c 128,-1,42
 726 1421 726 1421 792 1421 c 0,43,44
 863 1421 863 1421 916 1407 c 128,-1,45
 969 1393 969 1393 1003.5 1368.5 c 128,-1,46
 1038 1344 1038 1344 1055 1310.5 c 128,-1,47
 1072 1277 1072 1277 1072 1238 c 0,48,49
 1072 1229 1072 1229 1071 1219.5 c 128,-1,50
 1070 1210 1070 1210 1068 1200 c 0,51,52
 1054 1125 1054 1125 1000.5 1072 c 128,-1,53
 947 1019 947 1019 850 1000 c 1,54,-1
 850 998 l 1,55,56
 939 987 939 987 977.5 944 c 128,-1,57
 1016 901 1016 901 1016 841 c 0,58,59
 1016 818 1016 818 1012 799 c 0,0,1
EndSplineSet
EndChar

StartChar: acute
Encoding: 180 180 116
Width: 1229
Flags: W
LayerCount: 2
Fore
SplineSet
492 1184 m 1,0,-1
 498 1215 l 1,1,-1
 797 1458 l 1,2,-1
 1055 1458 l 1,3,-1
 1047 1415 l 1,4,-1
 662 1184 l 1,5,-1
 492 1184 l 1,0,-1
EndSplineSet
EndChar

StartChar: uni00B5
Encoding: 181 181 117
Width: 1229
Flags: W
LayerCount: 2
Fore
SplineSet
729 0 m 1,0,1
 730 12 730 12 732 34 c 128,-1,2
 734 56 734 56 737 82.5 c 128,-1,3
 740 109 740 109 744 136 c 128,-1,4
 748 163 748 163 752 184 c 1,5,-1
 749 184 l 1,6,7
 692 85 692 85 620.5 32.5 c 128,-1,8
 549 -20 549 -20 463 -20 c 0,9,10
 411 -20 411 -20 372.5 4 c 128,-1,11
 334 28 334 28 319 70 c 1,12,-1
 315 70 l 1,13,14
 311 38 311 38 306 10.5 c 128,-1,15
 301 -17 301 -17 296 -45 c 2,16,-1
 224 -416 l 1,17,-1
 -57 -416 l 1,18,-1
 234 1082 l 1,19,-1
 515 1082 l 1,20,-1
 398 477 l 2,21,22
 392 444 392 444 388.5 414 c 128,-1,23
 385 384 385 384 385 358 c 0,24,25
 385 282 385 282 417.5 237.5 c 128,-1,26
 450 193 450 193 527 193 c 0,27,28
 577 193 577 193 621.5 215.5 c 128,-1,29
 666 238 666 238 702.5 278.5 c 128,-1,30
 739 319 739 319 766 376.5 c 128,-1,31
 793 434 793 434 806 504 c 2,32,-1
 918 1082 l 1,33,-1
 1199 1082 l 1,34,-1
 1036 242 l 2,35,36
 1030 208 1030 208 1023.5 171.5 c 128,-1,37
 1017 135 1017 135 1011.5 101.5 c 128,-1,38
 1006 68 1006 68 1002 41 c 128,-1,39
 998 14 998 14 997 0 c 1,40,-1
 729 0 l 1,0,1
EndSplineSet
EndChar

StartChar: paragraph
Encoding: 182 182 118
Width: 1229
Flags: W
LayerCount: 2
Fore
SplineSet
1113 1206 m 1,0,-1
 816 -324 l 1,1,-1
 660 -324 l 1,2,-1
 957 1206 l 1,3,-1
 762 1206 l 1,4,-1
 465 -324 l 1,5,-1
 310 -324 l 1,6,-1
 496 634 l 1,7,8
 427 634 427 634 371 650.5 c 128,-1,9
 315 667 315 667 275.5 700 c 128,-1,10
 236 733 236 733 214.5 782 c 128,-1,11
 193 831 193 831 193 897 c 0,12,13
 193 940 193 940 202 989 c 0,14,15
 219 1073 219 1073 257 1139.5 c 128,-1,16
 295 1206 295 1206 351.5 1252.5 c 128,-1,17
 408 1299 408 1299 481.5 1324 c 128,-1,18
 555 1349 555 1349 643 1349 c 2,19,-1
 1272 1349 l 1,20,-1
 1244 1206 l 1,21,-1
 1113 1206 l 1,0,-1
EndSplineSet
EndChar

StartChar: cedilla
Encoding: 184 184 120
Width: 1229
Flags: W
LayerCount: 2
Fore
SplineSet
338 -255 m 0,0,1
 331 -294 331 -294 309 -329 c 128,-1,2
 287 -364 287 -364 246.5 -389.5 c 128,-1,3
 206 -415 206 -415 145 -430 c 128,-1,4
 84 -445 84 -445 -1 -445 c 0,5,6
 -47 -445 -47 -445 -101 -439 c 1,7,-1
 -78 -321 l 1,8,9
 -55 -326 -55 -326 -34 -327 c 128,-1,10
 -13 -328 -13 -328 4 -328 c 0,11,12
 79 -328 79 -328 113.5 -309.5 c 128,-1,13
 148 -291 148 -291 155 -259 c 0,14,15
 162 -224 162 -224 137 -207 c 128,-1,16
 112 -190 112 -190 46 -190 c 0,17,18
 33 -190 33 -190 20.5 -190 c 128,-1,19
 8 -190 8 -190 -6 -192 c 1,20,-1
 100 0 l 1,21,-1
 243 0 l 1,22,-1
 183 -102 l 1,23,24
 264 -107 264 -107 303 -138 c 128,-1,25
 342 -169 342 -169 342 -221 c 0,26,27
 342 -229 342 -229 341 -237.5 c 128,-1,28
 340 -246 340 -246 338 -255 c 0,0,1
EndSplineSet
EndChar

StartChar: uni00B9
Encoding: 185 185 121
Width: 1229
Flags: W
LayerCount: 2
Fore
SplineSet
279 563 m 1,0,-1
 307 705 l 1,1,-1
 543 705 l 1,2,-1
 646 1235 l 1,3,4
 628 1209 628 1209 597 1188 c 128,-1,5
 566 1167 566 1167 530 1152 c 128,-1,6
 494 1137 494 1137 457.5 1128.5 c 128,-1,7
 421 1120 421 1120 393 1120 c 1,8,-1
 423 1274 l 1,9,10
 456 1274 456 1274 493 1283 c 128,-1,11
 530 1292 530 1292 566 1309.5 c 128,-1,12
 602 1327 602 1327 634.5 1352 c 128,-1,13
 667 1377 667 1377 690 1410 c 1,14,-1
 894 1410 l 1,15,-1
 757 705 l 1,16,-1
 977 705 l 1,17,-1
 949 563 l 1,18,-1
 279 563 l 1,0,-1
EndSplineSet
EndChar

StartChar: ordmasculine
Encoding: 186 186 122
Width: 1229
Flags: W
LayerCount: 2
Fore
SplineSet
1101 1043 m 0,0,1
 1084 955 1084 955 1044.5 881 c 128,-1,2
 1005 807 1005 807 945 754.5 c 128,-1,3
 885 702 885 702 805.5 672.5 c 128,-1,4
 726 643 726 643 630 643 c 0,5,6
 552 643 552 643 493 664 c 128,-1,7
 434 685 434 685 394.5 723.5 c 128,-1,8
 355 762 355 762 334.5 817 c 128,-1,9
 314 872 314 872 314 939 c 0,10,11
 314 964 314 964 317 989.5 c 128,-1,12
 320 1015 320 1015 325 1043 c 0,13,14
 342 1130 342 1130 380.5 1203 c 128,-1,15
 419 1276 419 1276 477.5 1329 c 128,-1,16
 536 1382 536 1382 614.5 1411.5 c 128,-1,17
 693 1441 693 1441 790 1441 c 0,18,19
 874 1441 874 1441 935 1420 c 128,-1,20
 996 1399 996 1399 1035.5 1361 c 128,-1,21
 1075 1323 1075 1323 1093.5 1270 c 128,-1,22
 1112 1217 1112 1217 1112 1152 c 0,23,24
 1112 1126 1112 1126 1109 1099 c 128,-1,25
 1106 1072 1106 1072 1101 1043 c 0,0,1
871 1043 m 0,26,27
 883 1105 883 1105 883 1146 c 0,28,29
 883 1220 883 1220 851 1248.5 c 128,-1,30
 819 1277 819 1277 760 1277 c 0,31,32
 723 1277 723 1277 690.5 1265.5 c 128,-1,33
 658 1254 658 1254 632 1227 c 128,-1,34
 606 1200 606 1200 586 1155 c 128,-1,35
 566 1110 566 1110 553 1043 c 0,36,37
 547 1014 547 1014 544.5 989 c 128,-1,38
 542 964 542 964 542 943 c 0,39,40
 542 904 542 904 550.5 877.5 c 128,-1,41
 559 851 559 851 575 834.5 c 128,-1,42
 591 818 591 818 612.5 811 c 128,-1,43
 634 804 634 804 660 804 c 0,44,45
 698 804 698 804 730.5 815.5 c 128,-1,46
 763 827 763 827 790 854.5 c 128,-1,47
 817 882 817 882 837.5 928 c 128,-1,48
 858 974 858 974 871 1043 c 0,26,27
EndSplineSet
EndChar

StartChar: guillemotright
Encoding: 187 187 123
Width: 1229
Flags: W
LayerCount: 2
Fore
SplineSet
54 141 m 1,0,-1
 61 176 l 1,1,-1
 387 537 l 1,2,-1
 205 903 l 1,3,-1
 212 940 l 1,4,-1
 450 940 l 1,5,-1
 634 573 l 1,6,-1
 621 502 l 1,7,-1
 294 141 l 1,8,-1
 54 141 l 1,0,-1
523 141 m 1,9,-1
 530 176 l 1,10,-1
 856 537 l 1,11,-1
 674 903 l 1,12,-1
 681 940 l 1,13,-1
 917 940 l 1,14,-1
 1103 573 l 1,15,-1
 1090 502 l 1,16,-1
 761 141 l 1,17,-1
 523 141 l 1,9,-1
EndSplineSet
EndChar

StartChar: questiondown
Encoding: 191 191 127
Width: 1229
Flags: W
LayerCount: 2
Fore
SplineSet
38 96 m 0,0,1
 50 156 50 156 76.5 203 c 128,-1,2
 103 250 103 250 139.5 288.5 c 128,-1,3
 176 327 176 327 219 358.5 c 128,-1,4
 262 390 262 390 306.5 418.5 c 128,-1,5
 351 447 351 447 394 474 c 128,-1,6
 437 501 437 501 472.5 531.5 c 128,-1,7
 508 562 508 562 534 597 c 128,-1,8
 560 632 560 632 570 676 c 1,9,-1
 837 676 l 1,10,11
 816 591 816 591 772.5 530 c 128,-1,12
 729 469 729 469 675 423.5 c 128,-1,13
 621 378 621 378 563.5 343 c 128,-1,14
 506 308 506 308 456 273.5 c 128,-1,15
 406 239 406 239 369.5 200 c 128,-1,16
 333 161 333 161 323 108 c 0,17,18
 320 92 320 92 320 77 c 0,19,20
 320 17 320 17 368.5 -22.5 c 128,-1,21
 417 -62 417 -62 511 -62 c 0,22,23
 562 -62 562 -62 608 -46.5 c 128,-1,24
 654 -31 654 -31 692.5 -3 c 128,-1,25
 731 25 731 25 759.5 65 c 128,-1,26
 788 105 788 105 803 153 c 1,27,-1
 1085 141 l 1,28,29
 1057 53 1057 53 1004 -25.5 c 128,-1,30
 951 -104 951 -104 874.5 -162 c 128,-1,31
 798 -220 798 -220 697 -254 c 128,-1,32
 596 -288 596 -288 471 -288 c 0,33,34
 365 -288 365 -288 283 -266 c 128,-1,35
 201 -244 201 -244 144.5 -203.5 c 128,-1,36
 88 -163 88 -163 59 -105.5 c 128,-1,37
 30 -48 30 -48 30 22 c 0,38,39
 30 56 30 56 38 96 c 0,0,1
924 1082 m 1,40,-1
 872 812 l 1,41,-1
 583 812 l 1,42,-1
 635 1082 l 1,43,-1
 924 1082 l 1,40,-1
EndSplineSet
EndChar

StartChar: AE
Encoding: 198 198 134
Width: 1229
Flags: W
LayerCount: 2
Fore
SplineSet
586 387 m 1,0,-1
 333 387 l 1,1,-1
 156 0 l 1,2,-1
 -105 0 l 1,3,-1
 529 1349 l 1,4,-1
 1333 1349 l 1,5,-1
 1294 1147 l 1,6,-1
 985 1147 l 1,7,-1
 916 792 l 1,8,-1
 1213 792 l 1,9,-1
 1174 592 l 1,10,-1
 877 592 l 1,11,-1
 801 202 l 1,12,-1
 1149 202 l 1,13,-1
 1110 0 l 1,14,-1
 511 0 l 1,15,-1
 586 387 l 1,0,-1
735 1152 m 1,16,-1
 677 1152 l 1,17,18
 670 1136 670 1136 659 1109.5 c 128,-1,19
 648 1083 648 1083 636 1054 c 128,-1,20
 624 1025 624 1025 612 997.5 c 128,-1,21
 600 970 600 970 592 952 c 2,22,-1
 423 586 l 1,23,-1
 625 586 l 1,24,-1
 735 1152 l 1,16,-1
EndSplineSet
EndChar

StartChar: Eth
Encoding: 208 208 144
Width: 1229
Flags: W
LayerCount: 2
Fore
SplineSet
1190 685 m 0,0,1
 1157 517 1157 517 1092.5 389 c 128,-1,2
 1028 261 1028 261 935 174.5 c 128,-1,3
 842 88 842 88 723 44 c 128,-1,4
 604 0 604 0 464 0 c 2,5,-1
 43 0 l 1,6,-1
 153 564 l 1,7,-1
 19 564 l 1,8,-1
 61 783 l 1,9,-1
 195 783 l 1,10,-1
 305 1349 l 1,11,-1
 666 1349 l 2,12,13
 799 1349 799 1349 901 1321.5 c 128,-1,14
 1003 1294 1003 1294 1072 1237.5 c 128,-1,15
 1141 1181 1141 1181 1176.5 1094.5 c 128,-1,16
 1212 1008 1212 1008 1212 889 c 0,17,18
 1212 795 1212 795 1190 685 c 0,0,1
893 685 m 0,19,20
 911 778 911 778 911 849 c 0,21,22
 911 993 911 993 837.5 1057 c 128,-1,23
 764 1121 764 1121 617 1121 c 2,24,-1
 556 1121 l 1,25,-1
 490 783 l 1,26,-1
 697 783 l 1,27,-1
 655 564 l 1,28,-1
 448 564 l 1,29,-1
 382 228 l 1,30,-1
 484 228 l 2,31,32
 646 228 646 228 747 342.5 c 128,-1,33
 848 457 848 457 893 685 c 0,19,20
EndSplineSet
EndChar

StartChar: multiply
Encoding: 215 215 151
Width: 1229
Flags: W
LayerCount: 2
Fore
SplineSet
102 326 m 1,0,-1
 458 684 l 1,1,-1
 106 1036 l 1,2,-1
 264 1192 l 1,3,-1
 616 842 l 1,4,-1
 968 1194 l 1,5,-1
 1126 1036 l 1,6,-1
 774 682 l 1,7,-1
 1126 332 l 1,8,-1
 968 172 l 1,9,-1
 616 526 l 1,10,-1
 260 168 l 1,11,-1
 102 326 l 1,0,-1
EndSplineSet
EndChar

StartChar: Oslash
Encoding: 216 216 152
Width: 1229
Flags: W
LayerCount: 2
Fore
SplineSet
1184 679 m 0,0,1
 1117 334 1117 334 942.5 157 c 128,-1,2
 768 -20 768 -20 506 -20 c 0,3,4
 291 -20 291 -20 180 99 c 1,5,-1
 47 -43 l 1,6,-1
 -53 32 l 1,7,-1
 112 208 l 1,8,9
 73 304 73 304 73 439 c 0,10,11
 73 493 73 493 79.5 553 c 128,-1,12
 86 613 86 613 99 679 c 0,13,14
 166 1024 166 1024 340 1197 c 128,-1,15
 514 1370 514 1370 776 1370 c 0,16,17
 989 1370 989 1370 1099 1255 c 1,18,-1
 1233 1397 l 1,19,-1
 1332 1322 l 1,20,-1
 1168 1149 l 1,21,22
 1188 1100 1188 1100 1198.5 1042 c 128,-1,23
 1209 984 1209 984 1209 915 c 0,24,25
 1209 862 1209 862 1203 803.5 c 128,-1,26
 1197 745 1197 745 1184 679 c 0,0,1
885 679 m 0,27,28
 896 734 896 734 901.5 782 c 128,-1,29
 907 830 907 830 908 872 c 1,30,-1
 394 326 l 1,31,32
 435 212 435 212 551 212 c 0,33,34
 672 212 672 212 756 330.5 c 128,-1,35
 840 449 840 449 885 679 c 0,27,28
398 679 m 0,36,37
 387 624 387 624 381 576 c 128,-1,38
 375 528 375 528 374 486 c 1,39,-1
 887 1031 l 1,40,41
 848 1138 848 1138 731 1138 c 0,42,43
 610 1138 610 1138 526.5 1023.5 c 128,-1,44
 443 909 443 909 398 679 c 0,36,37
EndSplineSet
EndChar

StartChar: Thorn
Encoding: 222 222 158
Width: 1229
Flags: W
LayerCount: 2
Fore
SplineSet
1191 693 m 0,0,1
 1175 609 1175 609 1129 530.5 c 128,-1,2
 1083 452 1083 452 1008 391 c 128,-1,3
 933 330 933 330 829 293 c 128,-1,4
 725 256 725 256 592 256 c 2,5,-1
 377 256 l 1,6,-1
 327 0 l 1,7,-1
 32 0 l 1,8,-1
 294 1349 l 1,9,-1
 589 1349 l 1,10,-1
 544 1114 l 1,11,-1
 747 1114 l 2,12,13
 864 1114 864 1114 949.5 1090 c 128,-1,14
 1035 1066 1035 1066 1090.5 1022.5 c 128,-1,15
 1146 979 1146 979 1173 918.5 c 128,-1,16
 1200 858 1200 858 1200 784 c 0,17,18
 1200 741 1200 741 1191 693 c 0,0,1
893 689 m 0,19,20
 895 701 895 701 896.5 712.5 c 128,-1,21
 898 724 898 724 898 735 c 0,22,23
 898 811 898 811 842.5 858 c 128,-1,24
 787 905 787 905 673 905 c 2,25,-1
 503 905 l 1,26,-1
 417 465 l 1,27,-1
 595 465 l 2,28,29
 661 465 661 465 712.5 483.5 c 128,-1,30
 764 502 764 502 801 532.5 c 128,-1,31
 838 563 838 563 861 603.5 c 128,-1,32
 884 644 884 644 893 689 c 0,19,20
EndSplineSet
EndChar

StartChar: germandbls
Encoding: 223 223 159
Width: 1229
Flags: W
LayerCount: 2
Fore
SplineSet
1134 312 m 0,0,1
 1120 239 1120 239 1085.5 178 c 128,-1,2
 1051 117 1051 117 995.5 73 c 128,-1,3
 940 29 940 29 862 4.5 c 128,-1,4
 784 -20 784 -20 682 -20 c 0,5,6
 611 -20 611 -20 548 -10 c 128,-1,7
 485 0 485 0 428 23 c 1,8,-1
 469 229 l 1,9,10
 491 218 491 218 519 207.5 c 128,-1,11
 547 197 547 197 576 188.5 c 128,-1,12
 605 180 605 180 634.5 175 c 128,-1,13
 664 170 664 170 689 170 c 0,14,15
 770 170 770 170 814 204.5 c 128,-1,16
 858 239 858 239 869 296 c 0,17,18
 877 339 877 339 861.5 371 c 128,-1,19
 846 403 846 403 818 431 c 128,-1,20
 790 459 790 459 754.5 485 c 128,-1,21
 719 511 719 511 688.5 542.5 c 128,-1,22
 658 574 658 574 637 613 c 128,-1,23
 616 652 616 652 616 706 c 0,24,25
 616 719 616 719 617 732.5 c 128,-1,26
 618 746 618 746 621 760 c 0,27,28
 630 806 630 806 653 840.5 c 128,-1,29
 676 875 676 875 706.5 904 c 128,-1,30
 737 933 737 933 770.5 958 c 128,-1,31
 804 983 804 983 834 1009.5 c 128,-1,32
 864 1036 864 1036 886.5 1067 c 128,-1,33
 909 1098 909 1098 917 1138 c 0,34,35
 920 1153 920 1153 920 1168 c 0,36,37
 920 1220 920 1220 881 1250.5 c 128,-1,38
 842 1281 842 1281 764 1281 c 0,39,40
 661 1281 661 1281 594.5 1217.5 c 128,-1,41
 528 1154 528 1154 501 1013 c 2,42,-1
 304 0 l 1,43,-1
 23 0 l 1,44,-1
 219 1007 l 2,45,46
 240 1118 240 1118 287.5 1206.5 c 128,-1,47
 335 1295 335 1295 408 1356.5 c 128,-1,48
 481 1418 481 1418 580.5 1451 c 128,-1,49
 680 1484 680 1484 806 1484 c 0,50,51
 907 1484 907 1484 979.5 1463 c 128,-1,52
 1052 1442 1052 1442 1099.5 1405.5 c 128,-1,53
 1147 1369 1147 1369 1169.5 1319.5 c 128,-1,54
 1192 1270 1192 1270 1192 1213 c 0,55,56
 1192 1197 1192 1197 1190 1181.5 c 128,-1,57
 1188 1166 1188 1166 1185 1149 c 0,58,59
 1175 1095 1175 1095 1150 1052.5 c 128,-1,60
 1125 1010 1125 1010 1093.5 976 c 128,-1,61
 1062 942 1062 942 1027.5 915 c 128,-1,62
 993 888 993 888 963.5 865.5 c 128,-1,63
 934 843 934 843 913.5 822.5 c 128,-1,64
 893 802 893 802 889 782 c 0,65,66
 884 756 884 756 900.5 733.5 c 128,-1,67
 917 711 917 711 945 686.5 c 128,-1,68
 973 662 973 662 1007.5 633.5 c 128,-1,69
 1042 605 1042 605 1071.5 569 c 128,-1,70
 1101 533 1101 533 1121 487 c 128,-1,71
 1141 441 1141 441 1141 381 c 0,72,73
 1141 347 1141 347 1134 312 c 0,0,1
EndSplineSet
EndChar

StartChar: ae
Encoding: 230 230 166
Width: 1229
Flags: W
LayerCount: 2
Fore
SplineSet
688 484 m 1,0,-1
 688 482 l 1,1,2
 673 409 673 409 673 345 c 0,3,4
 673 304 673 304 680 270 c 128,-1,5
 687 236 687 236 701 211.5 c 128,-1,6
 715 187 715 187 737.5 173.5 c 128,-1,7
 760 160 760 160 790 160 c 0,8,9
 850 160 850 160 889.5 198 c 128,-1,10
 929 236 929 236 958 301 c 1,11,-1
 1127 256 l 1,12,13
 1106 211 1106 211 1075 162.5 c 128,-1,14
 1044 114 1044 114 999.5 73.5 c 128,-1,15
 955 33 955 33 895.5 6.5 c 128,-1,16
 836 -20 836 -20 759 -20 c 0,17,18
 705 -20 705 -20 663.5 -8 c 128,-1,19
 622 4 622 4 592.5 31.5 c 128,-1,20
 563 59 563 59 545.5 103.5 c 128,-1,21
 528 148 528 148 522 212 c 1,22,23
 492 163 492 163 455 120.5 c 128,-1,24
 418 78 418 78 373.5 47 c 128,-1,25
 329 16 329 16 278 -2 c 128,-1,26
 227 -20 227 -20 169 -20 c 0,27,28
 68 -20 68 -20 16 38 c 128,-1,29
 -36 96 -36 96 -36 202 c 0,30,31
 -36 225 -36 225 -33.5 250 c 128,-1,32
 -31 275 -31 275 -26 302 c 0,33,34
 -5 409 -5 409 36.5 478 c 128,-1,35
 78 547 78 547 132 587 c 128,-1,36
 186 627 186 627 248.5 643 c 128,-1,37
 311 659 311 659 373 660 c 2,38,-1
 521 664 l 1,39,-1
 532 719 l 2,40,41
 541 763 541 763 541 799 c 0,42,43
 541 855 541 855 520 887.5 c 128,-1,44
 499 920 499 920 455 920 c 0,45,46
 406 920 406 920 373 883 c 128,-1,47
 340 846 340 846 318 773 c 1,48,-1
 114 790 l 1,49,50
 134 854 134 854 165 910.5 c 128,-1,51
 196 967 196 967 241.5 1009.5 c 128,-1,52
 287 1052 287 1052 348 1077 c 128,-1,53
 409 1102 409 1102 489 1102 c 0,54,55
 580 1102 580 1102 634 1067 c 128,-1,56
 688 1032 688 1032 709 963 c 1,57,58
 768 1037 768 1037 837 1069.5 c 128,-1,59
 906 1102 906 1102 982 1102 c 0,60,61
 1051 1102 1051 1102 1099 1079 c 128,-1,62
 1147 1056 1147 1056 1177 1013.5 c 128,-1,63
 1207 971 1207 971 1220.5 912 c 128,-1,64
 1234 853 1234 853 1234 781 c 0,65,66
 1234 724 1234 724 1226.5 660 c 128,-1,67
 1219 596 1219 596 1205 527 c 1,68,-1
 1197 484 l 1,69,-1
 688 484 l 1,0,-1
182 299 m 0,70,71
 176 271 176 271 176 244 c 0,72,73
 176 209 176 209 189 185.5 c 128,-1,74
 202 162 202 162 234 162 c 0,75,76
 279 162 279 162 319.5 189 c 128,-1,77
 360 216 360 216 392.5 258 c 128,-1,78
 425 300 425 300 447 350 c 128,-1,79
 469 400 469 400 478 445 c 2,80,-1
 489 499 l 1,81,-1
 386 496 l 2,82,83
 349 495 349 495 317 487 c 128,-1,84
 285 479 285 479 259 457.5 c 128,-1,85
 233 436 233 436 213.5 398 c 128,-1,86
 194 360 194 360 182 299 c 0,70,71
934 924 m 0,87,88
 913 924 913 924 884 911 c 128,-1,89
 855 898 855 898 825 867.5 c 128,-1,90
 795 837 795 837 768 786.5 c 128,-1,91
 741 736 741 736 724 660 c 1,92,-1
 1025 660 l 1,93,94
 1029 691 1029 691 1031 718 c 128,-1,95
 1033 745 1033 745 1033 769 c 0,96,97
 1033 844 1033 844 1010.5 884 c 128,-1,98
 988 924 988 924 934 924 c 0,87,88
EndSplineSet
EndChar

StartChar: eth
Encoding: 240 240 176
Width: 1229
Flags: W
LayerCount: 2
Fore
SplineSet
961 1266 m 1,0,1
 1048 1157 1048 1157 1101 1022.5 c 128,-1,2
 1154 888 1154 888 1154 728 c 0,3,4
 1154 636 1154 636 1135 541 c 1,5,-1
 1134 537 l 1,6,7
 1110 415 1110 415 1059.5 312.5 c 128,-1,8
 1009 210 1009 210 930 136 c 128,-1,9
 851 62 851 62 743 21 c 128,-1,10
 635 -20 635 -20 498 -20 c 0,11,12
 386 -20 386 -20 303.5 7 c 128,-1,13
 221 34 221 34 166.5 83 c 128,-1,14
 112 132 112 132 85.5 201 c 128,-1,15
 59 270 59 270 59 354 c 0,16,17
 59 383 59 383 62.5 414.5 c 128,-1,18
 66 446 66 446 72 479 c 0,19,20
 93 586 93 586 141 677.5 c 128,-1,21
 189 769 189 769 266.5 836 c 128,-1,22
 344 903 344 903 451 941 c 128,-1,23
 558 979 558 979 696 979 c 0,24,25
 731 979 731 979 765.5 974 c 128,-1,26
 800 969 800 969 826 959 c 1,27,28
 807 1025 807 1025 784 1075 c 128,-1,29
 761 1125 761 1125 728 1176 c 1,30,-1
 473 1074 l 1,31,-1
 426 1229 l 1,32,-1
 627 1308 l 1,33,34
 579 1354 579 1354 521 1398 c 128,-1,35
 463 1442 463 1442 403 1484 c 1,36,-1
 696 1484 l 1,37,38
 732 1464 732 1464 768 1441 c 128,-1,39
 804 1418 804 1418 838 1390 c 1,40,-1
 1108 1499 l 1,41,-1
 1161 1345 l 1,42,-1
 961 1266 l 1,0,1
829 477 m 0,43,44
 836 513 836 513 839.5 545 c 128,-1,45
 843 577 843 577 843 604 c 0,46,47
 843 698 843 698 800 742 c 128,-1,48
 757 786 757 786 663 786 c 0,49,50
 538 786 538 786 467.5 710.5 c 128,-1,51
 397 635 397 635 367 477 c 0,52,53
 354 412 354 412 354 359 c 0,54,55
 354 261 354 261 398.5 215.5 c 128,-1,56
 443 170 443 170 530 170 c 0,57,58
 592 170 592 170 640.5 187.5 c 128,-1,59
 689 205 689 205 726 242.5 c 128,-1,60
 763 280 763 280 788 338 c 128,-1,61
 813 396 813 396 829 477 c 0,43,44
EndSplineSet
EndChar

StartChar: divide
Encoding: 247 247 183
Width: 1229
Flags: W
LayerCount: 2
Fore
SplineSet
495 961 m 1,0,-1
 495 1194 l 1,1,-1
 734 1194 l 1,2,-1
 734 961 l 1,3,-1
 495 961 l 1,0,-1
101 569 m 1,4,-1
 101 793 l 1,5,-1
 1128 793 l 1,6,-1
 1128 569 l 1,7,-1
 101 569 l 1,4,-1
495 170 m 1,8,-1
 495 403 l 1,9,-1
 734 403 l 1,10,-1
 734 170 l 1,11,-1
 495 170 l 1,8,-1
EndSplineSet
EndChar

StartChar: oslash
Encoding: 248 248 184
Width: 1229
Flags: W
LayerCount: 2
Fore
SplineSet
1137 542 m 0,0,1
 1113 418 1113 418 1062 315 c 128,-1,2
 1011 212 1011 212 932 137.5 c 128,-1,3
 853 63 853 63 745.5 21.5 c 128,-1,4
 638 -20 638 -20 501 -20 c 0,5,6
 398 -20 398 -20 321.5 5 c 128,-1,7
 245 30 245 30 192 77 c 1,8,-1
 88 -20 l 1,9,-1
 7 58 l 1,10,-1
 123 165 l 1,11,12
 76 255 76 255 76 382 c 0,13,14
 76 459 76 459 92 542 c 0,15,16
 116 663 116 663 166 765.5 c 128,-1,17
 216 868 216 868 294 943 c 128,-1,18
 372 1018 372 1018 479.5 1060 c 128,-1,19
 587 1102 587 1102 725 1102 c 0,20,21
 832 1102 832 1102 909 1079.5 c 128,-1,22
 986 1057 986 1057 1037 1015 c 1,23,-1
 1134 1104 l 1,24,-1
 1216 1026 l 1,25,-1
 1110 928 l 1,26,27
 1134 884 1134 884 1145 831 c 128,-1,28
 1156 778 1156 778 1156 718 c 0,29,30
 1156 676 1156 676 1151 632.5 c 128,-1,31
 1146 589 1146 589 1137 542 c 0,0,1
843 542 m 0,32,33
 852 587 852 587 856.5 626 c 128,-1,34
 861 665 861 665 863 698 c 1,35,-1
 388 259 l 1,36,37
 426 172 426 172 535 172 c 0,38,39
 597 172 597 172 646 193.5 c 128,-1,40
 695 215 695 215 732.5 260 c 128,-1,41
 770 305 770 305 797 375 c 128,-1,42
 824 445 824 445 843 542 c 0,32,33
387 542 m 0,43,44
 371 458 371 458 369 394 c 1,45,-1
 841 832 l 1,46,47
 803 909 803 909 692 909 c 0,48,49
 630 909 630 909 581.5 887.5 c 128,-1,50
 533 866 533 866 496 821 c 128,-1,51
 459 776 459 776 432.5 707 c 128,-1,52
 406 638 406 638 387 542 c 0,43,44
EndSplineSet
EndChar

StartChar: thorn
Encoding: 254 254 190
Width: 1229
Flags: W
LayerCount: 2
Fore
SplineSet
326 1484 m 1,0,-1
 607 1484 l 1,1,-1
 527 1072 l 2,2,3
 522 1042 522 1042 515 1012 c 128,-1,4
 508 982 508 982 503 958 c 0,5,6
 497 930 497 930 491 904 c 1,7,-1
 495 904 l 1,8,9
 570 1004 570 1004 660.5 1053.5 c 128,-1,10
 751 1103 751 1103 854 1103 c 0,11,12
 929 1103 929 1103 984.5 1077.5 c 128,-1,13
 1040 1052 1040 1052 1076.5 1004.5 c 128,-1,14
 1113 957 1113 957 1131 890 c 128,-1,15
 1149 823 1149 823 1149 740 c 0,16,17
 1149 650 1149 650 1128 545 c 0,18,19
 1104 420 1104 420 1058.5 316 c 128,-1,20
 1013 212 1013 212 948.5 137.5 c 128,-1,21
 884 63 884 63 801 21.5 c 128,-1,22
 718 -20 718 -20 618 -20 c 0,23,24
 578 -20 578 -20 537.5 -10 c 128,-1,25
 497 0 497 0 461.5 22.5 c 128,-1,26
 426 45 426 45 397.5 81.5 c 128,-1,27
 369 118 369 118 352 172 c 1,28,-1
 346 172 l 1,29,30
 346 167 346 167 343.5 147 c 128,-1,31
 341 127 341 127 336.5 100.5 c 128,-1,32
 332 74 332 74 327 44.5 c 128,-1,33
 322 15 322 15 317 -10 c 2,34,-1
 236 -425 l 1,35,-1
 -45 -425 l 1,36,-1
 326 1484 l 1,0,-1
845 545 m 0,37,38
 863 637 863 637 863 706 c 0,39,40
 863 803 863 803 826 855.5 c 128,-1,41
 789 908 789 908 707 908 c 0,42,43
 665 908 665 908 622 888 c 128,-1,44
 579 868 579 868 540.5 824 c 128,-1,45
 502 780 502 780 470.5 709 c 128,-1,46
 439 638 439 638 419 537 c 0,47,48
 411 495 411 495 407.5 459.5 c 128,-1,49
 404 424 404 424 404 393 c 0,50,51
 404 334 404 334 416 292 c 128,-1,52
 428 250 428 250 449.5 223.5 c 128,-1,53
 471 197 471 197 500 184.5 c 128,-1,54
 529 172 529 172 562 172 c 0,55,56
 671 172 671 172 740.5 266.5 c 128,-1,57
 810 361 810 361 845 545 c 0,37,38
EndSplineSet
EndChar

StartChar: dcaron
Encoding: 271 271 207
Width: 1229
Flags: W
LayerCount: 2
Fore
SplineSet
535 0 m 1,0,1
 534 8 534 8 535.5 28.5 c 128,-1,2
 537 49 537 49 540 75 c 128,-1,3
 543 101 543 101 546.5 128 c 128,-1,4
 550 155 550 155 554 176 c 1,5,-1
 550 176 l 1,6,7
 513 122 513 122 476.5 85 c 128,-1,8
 440 48 440 48 403 24.5 c 128,-1,9
 366 1 366 1 327 -9.5 c 128,-1,10
 288 -20 288 -20 246 -20 c 0,11,12
 187 -20 187 -20 142 5.5 c 128,-1,13
 97 31 97 31 67 77.5 c 128,-1,14
 37 124 37 124 22 189 c 128,-1,15
 7 254 7 254 7 334 c 0,16,17
 7 430 7 430 28 539 c 0,18,19
 52 662 52 662 94 765 c 128,-1,20
 136 868 136 868 193 942.5 c 128,-1,21
 250 1017 250 1017 321.5 1058.5 c 128,-1,22
 393 1100 393 1100 475 1100 c 0,23,24
 513 1100 513 1100 547 1090 c 128,-1,25
 581 1080 581 1080 609.5 1057.5 c 128,-1,26
 638 1035 638 1035 660 998.5 c 128,-1,27
 682 962 682 962 695 909 c 1,28,-1
 697 909 l 1,29,30
 699 919 699 919 702.5 938.5 c 128,-1,31
 706 958 706 958 710 983 c 128,-1,32
 714 1008 714 1008 719 1035 c 128,-1,33
 724 1062 724 1062 729 1087 c 2,34,-1
 806 1484 l 1,35,-1
 1077 1484 l 1,36,-1
 835 236 l 2,37,38
 819 157 819 157 810.5 95.5 c 128,-1,39
 802 34 802 34 797 0 c 1,40,-1
 535 0 l 1,0,1
628 546 m 0,41,42
 647 644 647 644 647 715 c 0,43,44
 647 771 647 771 637 808 c 128,-1,45
 627 845 627 845 611.5 867.5 c 128,-1,46
 596 890 596 890 576.5 899.5 c 128,-1,47
 557 909 557 909 538 909 c 0,48,49
 507 909 507 909 475 888 c 128,-1,50
 443 867 443 867 413.5 822.5 c 128,-1,51
 384 778 384 778 358 708 c 128,-1,52
 332 638 332 638 313 539 c 0,53,54
 292 433 292 433 292 356 c 0,55,56
 292 264 292 264 318.5 218 c 128,-1,57
 345 172 345 172 392 172 c 0,58,59
 416 172 416 172 448 190 c 128,-1,60
 480 208 480 208 513 251 c 128,-1,61
 546 294 546 294 576.5 366 c 128,-1,62
 607 438 607 438 628 546 c 0,41,42
1085 1129 m 1,63,-1
 1092 1162 l 1,64,-1
 1183 1484 l 1,65,-1
 1414 1484 l 1,66,-1
 1407 1447 l 1,67,-1
 1224 1129 l 1,68,-1
 1085 1129 l 1,63,-1
EndSplineSet
EndChar

StartChar: dcroat
Encoding: 273 273 209
Width: 1229
Flags: W
LayerCount: 2
Fore
SplineSet
1333 1180 m 1,0,-1
 1200 1180 l 1,1,-1
 1017 236 l 2,2,3
 1001 157 1001 157 992.5 95.5 c 128,-1,4
 984 34 984 34 979 0 c 1,5,-1
 707 0 l 1,6,7
 706 8 706 8 707.5 28.5 c 128,-1,8
 709 49 709 49 712 75 c 128,-1,9
 715 101 715 101 718.5 128 c 128,-1,10
 722 155 722 155 726 176 c 1,11,-1
 722 176 l 1,12,13
 685 122 685 122 645 85 c 128,-1,14
 605 48 605 48 561 24.5 c 128,-1,15
 517 1 517 1 469 -9.5 c 128,-1,16
 421 -20 421 -20 368 -20 c 0,17,18
 292 -20 292 -20 236 5.5 c 128,-1,19
 180 31 180 31 143 77.5 c 128,-1,20
 106 124 106 124 87.5 190 c 128,-1,21
 69 256 69 256 69 338 c 0,22,23
 69 381 69 381 74 427 c 128,-1,24
 79 473 79 473 89 523 c 0,25,26
 113 646 113 646 156.5 746.5 c 128,-1,27
 200 847 200 847 263 918.5 c 128,-1,28
 326 990 326 990 408 1029 c 128,-1,29
 490 1068 490 1068 591 1068 c 0,30,31
 636 1068 636 1068 679 1058 c 128,-1,32
 722 1048 722 1048 758 1025.5 c 128,-1,33
 794 1003 794 1003 820.5 966.5 c 128,-1,34
 847 930 847 930 860 877 c 1,35,-1
 862 877 l 1,36,37
 864 887 864 887 868.5 911.5 c 128,-1,38
 873 936 873 936 878.5 967 c 128,-1,39
 884 998 884 998 890 1030 c 128,-1,40
 896 1062 896 1062 901 1087 c 2,41,-1
 919 1180 l 1,42,-1
 637 1180 l 1,43,-1
 670 1349 l 1,44,-1
 952 1349 l 1,45,-1
 978 1484 l 1,46,-1
 1259 1484 l 1,47,-1
 1233 1349 l 1,48,-1
 1366 1349 l 1,49,-1
 1333 1180 l 1,0,-1
797 530 m 0,50,51
 813 610 813 610 813 672 c 256,52,53
 813 734 813 734 799 773.5 c 128,-1,54
 785 813 785 813 762 836 c 128,-1,55
 739 859 739 859 710.5 868 c 128,-1,56
 682 877 682 877 653 877 c 0,57,58
 607 877 607 877 566 858.5 c 128,-1,59
 525 840 525 840 490.5 798.5 c 128,-1,60
 456 757 456 757 428.5 689.5 c 128,-1,61
 401 622 401 622 382 523 c 0,62,63
 373 478 373 478 369 439.5 c 128,-1,64
 365 401 365 401 365 368 c 0,65,66
 365 266 365 266 403.5 219 c 128,-1,67
 442 172 442 172 514 172 c 0,68,69
 549 172 549 172 589.5 187.5 c 128,-1,70
 630 203 630 203 669 243 c 128,-1,71
 708 283 708 283 742 352.5 c 128,-1,72
 776 422 776 422 797 530 c 0,50,51
EndSplineSet
EndChar

StartChar: hcircumflex
Encoding: 293 293 229
Width: 1229
Flags: W
LayerCount: 2
Fore
SplineSet
483 866 m 1,0,1
 564 990 564 990 661 1046 c 128,-1,2
 758 1102 758 1102 877 1102 c 0,3,4
 952 1102 952 1102 1004 1082.5 c 128,-1,5
 1056 1063 1056 1063 1088 1028 c 128,-1,6
 1120 993 1120 993 1134 943.5 c 128,-1,7
 1148 894 1148 894 1148 835 c 0,8,9
 1148 800 1148 800 1144 763 c 128,-1,10
 1140 726 1140 726 1132 686 c 2,11,-1
 999 0 l 1,12,-1
 719 0 l 1,13,-1
 840 621 l 2,14,15
 847 657 847 657 851 689 c 128,-1,16
 855 721 855 721 855 749 c 0,17,18
 855 818 855 818 825 854.5 c 128,-1,19
 795 891 795 891 719 891 c 0,20,21
 668 891 668 891 622 868.5 c 128,-1,22
 576 846 576 846 538.5 804.5 c 128,-1,23
 501 763 501 763 473.5 705.5 c 128,-1,24
 446 648 446 648 432 579 c 2,25,-1
 319 0 l 1,26,-1
 38 0 l 1,27,-1
 300 1349 l 1,28,-1
 581 1349 l 1,29,-1
 529 1079 l 2,30,31
 523 1047 523 1047 515.5 1014.5 c 128,-1,32
 508 982 508 982 501 953.5 c 128,-1,33
 494 925 494 925 488 902 c 128,-1,34
 482 879 482 879 479 866 c 1,35,-1
 483 866 l 1,0,1
1161 1455 m 1,36,-1
 1155 1427 l 1,37,-1
 996 1427 l 1,38,-1
 819 1561 l 1,39,-1
 815 1561 l 1,40,-1
 578 1427 l 1,41,-1
 418 1427 l 1,42,-1
 424 1455 l 1,43,-1
 730 1705 l 1,44,-1
 959 1705 l 1,45,-1
 1161 1455 l 1,36,-1
EndSplineSet
EndChar

StartChar: Hbar
Encoding: 294 294 230
Width: 1229
Flags: W
LayerCount: 2
Fore
SplineSet
691 0 m 1,0,-1
 803 574 l 1,1,-1
 440 574 l 1,2,-1
 328 0 l 1,3,-1
 33 0 l 1,4,-1
 228 1004 l 1,5,-1
 92 1004 l 1,6,-1
 125 1172 l 1,7,-1
 261 1172 l 1,8,-1
 295 1349 l 1,9,-1
 590 1349 l 1,10,-1
 556 1172 l 1,11,-1
 919 1172 l 1,12,-1
 953 1349 l 1,13,-1
 1248 1349 l 1,14,-1
 1214 1172 l 1,15,-1
 1349 1172 l 1,16,-1
 1316 1004 l 1,17,-1
 1181 1004 l 1,18,-1
 986 0 l 1,19,-1
 691 0 l 1,0,-1
850 818 m 1,20,-1
 886 1004 l 1,21,-1
 523 1004 l 1,22,-1
 487 818 l 1,23,-1
 850 818 l 1,20,-1
EndSplineSet
EndChar

StartChar: hbar
Encoding: 295 295 231
Width: 1229
Flags: W
LayerCount: 2
Fore
SplineSet
476 826 m 1,0,1
 556 949 556 949 653.5 1005.5 c 128,-1,2
 751 1062 751 1062 869 1062 c 0,3,4
 945 1062 945 1062 997 1042.5 c 128,-1,5
 1049 1023 1049 1023 1081 987.5 c 128,-1,6
 1113 952 1113 952 1127 903 c 128,-1,7
 1141 854 1141 854 1141 794 c 0,8,9
 1141 759 1141 759 1137 722 c 128,-1,10
 1133 685 1133 685 1125 646 c 2,11,-1
 999 0 l 1,12,-1
 719 0 l 1,13,-1
 832 581 l 2,14,15
 847 653 847 653 847 709 c 0,16,17
 847 777 847 777 817 814 c 128,-1,18
 787 851 787 851 711 851 c 0,19,20
 660 851 660 851 614 828.5 c 128,-1,21
 568 806 568 806 530.5 764.5 c 128,-1,22
 493 723 493 723 465.5 665.5 c 128,-1,23
 438 608 438 608 424 539 c 2,24,-1
 319 0 l 1,25,-1
 38 0 l 1,26,-1
 267 1180 l 1,27,-1
 133 1180 l 1,28,-1
 166 1349 l 1,29,-1
 300 1349 l 1,30,-1
 326 1484 l 1,31,-1
 607 1484 l 1,32,-1
 581 1349 l 1,33,-1
 881 1349 l 1,34,-1
 848 1180 l 1,35,-1
 548 1180 l 1,36,-1
 521 1039 l 2,37,38
 515 1007 515 1007 507.5 974.5 c 128,-1,39
 500 942 500 942 493 913.5 c 128,-1,40
 486 885 486 885 480.5 862 c 128,-1,41
 475 839 475 839 472 826 c 1,42,-1
 476 826 l 1,0,1
EndSplineSet
EndChar

StartChar: dotlessi
Encoding: 305 305 241
Width: 1229
Flags: W
LayerCount: 2
Fore
SplineSet
726 190 m 1,0,-1
 1079 190 l 1,1,-1
 1042 0 l 1,2,-1
 13 0 l 1,3,-1
 50 190 l 1,4,-1
 445 190 l 1,5,-1
 581 892 l 1,6,-1
 291 892 l 1,7,-1
 328 1082 l 1,8,-1
 899 1082 l 1,9,-1
 726 190 l 1,0,-1
EndSplineSet
EndChar

StartChar: IJ
Encoding: 306 306 242
Width: 1229
Flags: W
LayerCount: 2
Fore
SplineSet
230 1349 m 1,0,-1
 514 1349 l 1,1,-1
 252 0 l 1,2,-1
 -32 0 l 1,3,-1
 230 1349 l 1,0,-1
675 -20 m 0,4,5
 520 -20 520 -20 448 49.5 c 128,-1,6
 376 119 376 119 376 268 c 0,7,8
 376 311 376 311 382 360 c 1,9,-1
 653 398 l 1,10,11
 651 378 651 378 650 361 c 128,-1,12
 649 344 649 344 649 329 c 0,13,14
 649 293 649 293 654.5 270.5 c 128,-1,15
 660 248 660 248 670 234.5 c 128,-1,16
 680 221 680 221 694.5 216 c 128,-1,17
 709 211 709 211 727 211 c 0,18,19
 773 211 773 211 800 258 c 128,-1,20
 827 305 827 305 848 414 c 2,21,-1
 985 1118 l 1,22,-1
 731 1118 l 1,23,-1
 776 1349 l 1,24,-1
 1316 1349 l 1,25,-1
 1141 446 l 2,26,27
 1120 339 1120 339 1082.5 252.5 c 128,-1,28
 1045 166 1045 166 988 105.5 c 128,-1,29
 931 45 931 45 853.5 12.5 c 128,-1,30
 776 -20 776 -20 675 -20 c 0,4,5
EndSplineSet
EndChar

StartChar: ij
Encoding: 307 307 243
Width: 1229
Flags: W
LayerCount: 2
Fore
SplineSet
346 0 m 1,0,-1
 65 0 l 1,1,-1
 275 1082 l 1,2,-1
 556 1082 l 1,3,-1
 346 0 l 1,0,-1
313 1277 m 1,4,-1
 353 1484 l 1,5,-1
 634 1484 l 1,6,-1
 594 1277 l 1,7,-1
 313 1277 l 1,4,-1
945 -13 m 2,8,9
 924 -122 924 -122 870.5 -200 c 128,-1,10
 817 -278 817 -278 743.5 -328 c 128,-1,11
 670 -378 670 -378 582.5 -401.5 c 128,-1,12
 495 -425 495 -425 406 -425 c 0,13,14
 365 -425 365 -425 324.5 -421.5 c 128,-1,15
 284 -418 284 -418 247.5 -412 c 128,-1,16
 211 -406 211 -406 180 -398.5 c 128,-1,17
 149 -391 149 -391 127 -382 c 1,18,-1
 168 -172 l 1,19,20
 210 -183 210 -183 276.5 -194.5 c 128,-1,21
 343 -206 343 -206 424 -206 c 0,22,23
 467 -206 467 -206 505.5 -197.5 c 128,-1,24
 544 -189 544 -189 575.5 -165 c 128,-1,25
 607 -141 607 -141 631 -99 c 128,-1,26
 655 -57 655 -57 668 10 c 2,27,-1
 876 1082 l 1,28,-1
 1158 1082 l 1,29,-1
 945 -13 l 2,8,9
915 1277 m 1,30,-1
 955 1484 l 1,31,-1
 1236 1484 l 1,32,-1
 1196 1277 l 1,33,-1
 915 1277 l 1,30,-1
EndSplineSet
EndChar

StartChar: kgreenlandic
Encoding: 312 312 248
Width: 1229
Flags: W
LayerCount: 2
Fore
SplineSet
759 0 m 1,0,-1
 561 470 l 1,1,-1
 424 386 l 1,2,-1
 349 0 l 1,3,-1
 68 0 l 1,4,-1
 278 1082 l 1,5,-1
 559 1082 l 1,6,-1
 468 614 l 1,7,-1
 945 1082 l 1,8,-1
 1247 1082 l 1,9,-1
 781 640 l 1,10,-1
 1066 0 l 1,11,-1
 759 0 l 1,0,-1
EndSplineSet
EndChar

StartChar: lacute
Encoding: 314 314 250
Width: 1229
Flags: W
LayerCount: 2
Fore
SplineSet
726 190 m 1,0,-1
 1079 190 l 1,1,-1
 1042 0 l 1,2,-1
 13 0 l 1,3,-1
 50 190 l 1,4,-1
 445 190 l 1,5,-1
 633 1159 l 1,6,-1
 343 1159 l 1,7,-1
 380 1349 l 1,8,-1
 951 1349 l 1,9,-1
 726 190 l 1,0,-1
669 1431 m 1,10,-1
 675 1462 l 1,11,-1
 974 1705 l 1,12,-1
 1232 1705 l 1,13,-1
 1224 1662 l 1,14,-1
 839 1431 l 1,15,-1
 669 1431 l 1,10,-1
EndSplineSet
EndChar

StartChar: Lslash
Encoding: 321 321 257
Width: 1229
Flags: W
LayerCount: 2
Fore
SplineSet
244 657 m 1,0,-1
 378 1349 l 1,1,-1
 673 1349 l 1,2,-1
 568 810 l 1,3,-1
 839 938 l 1,4,-1
 896 757 l 1,5,-1
 524 580 l 1,6,-1
 455 228 l 1,7,-1
 1071 228 l 1,8,-1
 1027 0 l 1,9,-1
 116 0 l 1,10,-1
 199 426 l 1,11,-1
 62 362 l 1,12,-1
 1 543 l 1,13,-1
 244 657 l 1,0,-1
EndSplineSet
EndChar

StartChar: lslash
Encoding: 322 322 258
Width: 1229
Flags: W
LayerCount: 2
Fore
SplineSet
874 950 m 1,0,-1
 1108 1071 l 1,1,-1
 1161 916 l 1,2,-1
 834 748 l 1,3,-1
 726 190 l 1,4,-1
 1079 190 l 1,5,-1
 1042 0 l 1,6,-1
 13 0 l 1,7,-1
 50 190 l 1,8,-1
 445 190 l 1,9,-1
 522 587 l 1,10,-1
 304 475 l 1,11,-1
 249 629 l 1,12,-1
 561 789 l 1,13,-1
 660 1294 l 1,14,-1
 370 1294 l 1,15,-1
 406 1484 l 1,16,-1
 977 1484 l 1,17,-1
 874 950 l 1,0,-1
EndSplineSet
EndChar

StartChar: napostrophe
Encoding: 329 329 265
Width: 1229
Flags: W
LayerCount: 2
Fore
SplineSet
800 0 m 1,0,-1
 920 619 l 2,1,2
 935 696 935 696 935 750 c 0,3,4
 935 823 935 823 907 857.5 c 128,-1,5
 879 892 879 892 822 892 c 0,6,7
 779 892 779 892 736.5 869.5 c 128,-1,8
 694 847 694 847 658 805.5 c 128,-1,9
 622 764 622 764 594.5 706.5 c 128,-1,10
 567 649 567 649 553 580 c 2,11,-1
 440 0 l 1,12,-1
 159 0 l 1,13,-1
 322 840 l 2,14,15
 329 875 329 875 335.5 912 c 128,-1,16
 342 949 342 949 347.5 982.5 c 128,-1,17
 353 1016 353 1016 356.5 1042.5 c 128,-1,18
 360 1069 360 1069 361 1082 c 1,19,-1
 629 1082 l 1,20,21
 629 1070 629 1070 626 1043.5 c 128,-1,22
 623 1017 623 1017 619 985 c 128,-1,23
 615 953 615 953 610 921 c 128,-1,24
 605 889 605 889 601 867 c 1,25,-1
 605 867 l 1,26,27
 686 991 686 991 780 1047 c 128,-1,28
 874 1103 874 1103 978 1103 c 0,29,30
 1107 1103 1107 1103 1168 1032.5 c 128,-1,31
 1229 962 1229 962 1229 832 c 0,32,33
 1229 767 1229 767 1214 687 c 2,34,-1
 1080 0 l 1,35,-1
 800 0 l 1,0,-1
88 995 m 1,36,-1
 95 1028 l 1,37,-1
 246 1350 l 1,38,-1
 503 1350 l 1,39,-1
 496 1313 l 1,40,-1
 253 995 l 1,41,-1
 88 995 l 1,36,-1
EndSplineSet
EndChar

StartChar: Eng
Encoding: 330 330 266
Width: 1229
Flags: W
LayerCount: 2
Fore
SplineSet
665 -20 m 0,0,1
 595 -20 595 -20 546.5 -1.5 c 128,-1,2
 498 17 498 17 467.5 50.5 c 128,-1,3
 437 84 437 84 421.5 131 c 128,-1,4
 406 178 406 178 401 234 c 1,5,-1
 624 302 l 1,6,7
 629 244 629 244 644 223 c 128,-1,8
 659 202 659 202 693 202 c 0,9,10
 716 202 716 202 735.5 216 c 128,-1,11
 755 230 755 230 771.5 262.5 c 128,-1,12
 788 295 788 295 802.5 347 c 128,-1,13
 817 399 817 399 832 475 c 2,14,-1
 905 848 l 2,15,16
 915 898 915 898 920 937.5 c 128,-1,17
 925 977 925 977 925 1008 c 0,18,19
 925 1084 925 1084 894 1112 c 128,-1,20
 863 1140 863 1140 800 1140 c 0,21,22
 770 1140 770 1140 735.5 1125 c 128,-1,23
 701 1110 701 1110 665.5 1082.5 c 128,-1,24
 630 1055 630 1055 595.5 1016 c 128,-1,25
 561 977 561 977 531.5 929 c 128,-1,26
 502 881 502 881 479.5 825.5 c 128,-1,27
 457 770 457 770 445 709 c 2,28,-1
 307 0 l 1,29,-1
 12 0 l 1,30,-1
 213 1032 l 2,31,32
 220 1069 220 1069 228.5 1115 c 128,-1,33
 237 1161 237 1161 245 1206 c 128,-1,34
 253 1251 253 1251 260 1289 c 128,-1,35
 267 1327 267 1327 270 1349 c 1,36,-1
 558 1349 l 1,37,38
 556 1327 556 1327 552 1295.5 c 128,-1,39
 548 1264 548 1264 542.5 1229.5 c 128,-1,40
 537 1195 537 1195 531.5 1160.5 c 128,-1,41
 526 1126 526 1126 520 1098 c 1,42,-1
 524 1098 l 1,43,44
 565 1163 565 1163 616.5 1213.5 c 128,-1,45
 668 1264 668 1264 724 1298.5 c 128,-1,46
 780 1333 780 1333 837 1351 c 128,-1,47
 894 1369 894 1369 945 1369 c 0,48,49
 1082 1369 1082 1369 1151.5 1298 c 128,-1,50
 1221 1227 1221 1227 1221 1071 c 0,51,52
 1221 982 1221 982 1199 869 c 2,53,-1
 1128 502 l 2,54,55
 1104 380 1104 380 1065.5 283 c 128,-1,56
 1027 186 1027 186 971 118.5 c 128,-1,57
 915 51 915 51 839 15.5 c 128,-1,58
 763 -20 763 -20 665 -20 c 0,0,1
EndSplineSet
EndChar

StartChar: eng
Encoding: 331 331 267
Width: 1229
Flags: W
LayerCount: 2
Fore
SplineSet
839 619 m 2,0,1
 854 693 854 693 854 746 c 0,2,3
 854 821 854 821 822 856.5 c 128,-1,4
 790 892 790 892 721 892 c 0,5,6
 670 892 670 892 624 869.5 c 128,-1,7
 578 847 578 847 539.5 805.5 c 128,-1,8
 501 764 501 764 473.5 706.5 c 128,-1,9
 446 649 446 649 432 580 c 2,10,-1
 319 0 l 1,11,-1
 38 0 l 1,12,-1
 201 840 l 2,13,14
 208 875 208 875 214.5 912 c 128,-1,15
 221 949 221 949 226.5 982.5 c 128,-1,16
 232 1016 232 1016 235.5 1042.5 c 128,-1,17
 239 1069 239 1069 240 1082 c 1,18,-1
 508 1082 l 1,19,20
 508 1070 508 1070 505 1043.5 c 128,-1,21
 502 1017 502 1017 498 985 c 128,-1,22
 494 953 494 953 489 921 c 128,-1,23
 484 889 484 889 480 867 c 1,24,-1
 484 867 l 1,25,26
 564 990 564 990 661.5 1046.5 c 128,-1,27
 759 1103 759 1103 877 1103 c 0,28,29
 1018 1103 1018 1103 1083 1031.5 c 128,-1,30
 1148 960 1148 960 1148 830 c 0,31,32
 1148 765 1148 765 1133 687 c 2,33,-1
 974 -128 l 2,34,35
 962 -193 962 -193 935 -247 c 128,-1,36
 908 -301 908 -301 866 -341 c 128,-1,37
 824 -381 824 -381 765 -403 c 128,-1,38
 706 -425 706 -425 629 -425 c 0,39,40
 573 -425 573 -425 532 -422.5 c 128,-1,41
 491 -420 491 -420 461 -416 c 1,42,-1
 500 -218 l 1,43,44
 512 -220 512 -220 525 -221 c 128,-1,45
 538 -222 538 -222 550 -222 c 0,46,47
 589 -222 589 -222 615 -214 c 128,-1,48
 641 -206 641 -206 658.5 -187 c 128,-1,49
 676 -168 676 -168 687 -137 c 128,-1,50
 698 -106 698 -106 707 -60 c 2,51,-1
 839 619 l 2,0,1
EndSplineSet
EndChar

StartChar: OE
Encoding: 338 338 274
Width: 1229
Flags: W
LayerCount: 2
Fore
SplineSet
494 0 m 1,0,1
 470 -2 470 -2 451.5 -3.5 c 128,-1,2
 433 -5 433 -5 415 -5 c 0,3,4
 216 -5 216 -5 121.5 96 c 128,-1,5
 27 197 27 197 27 406 c 0,6,7
 27 527 27 527 57 681 c 0,8,9
 92 861 92 861 147.5 989 c 128,-1,10
 203 1117 203 1117 280.5 1198 c 128,-1,11
 358 1279 358 1279 457.5 1317 c 128,-1,12
 557 1355 557 1355 681 1355 c 0,13,14
 720 1355 720 1355 769 1349 c 1,15,-1
 1327 1349 l 1,16,-1
 1288 1147 l 1,17,-1
 975 1147 l 1,18,-1
 906 792 l 1,19,-1
 1193 792 l 1,20,-1
 1154 592 l 1,21,-1
 867 592 l 1,22,-1
 791 202 l 1,23,-1
 1145 202 l 1,24,-1
 1106 0 l 1,25,-1
 494 0 l 1,0,1
454 190 m 0,26,27
 468 190 468 190 493.5 191 c 128,-1,28
 519 192 519 192 539 196 c 1,29,-1
 725 1153 l 1,30,31
 707 1156 707 1156 682 1157.5 c 128,-1,32
 657 1159 657 1159 643 1159 c 0,33,34
 591 1159 591 1159 544.5 1138 c 128,-1,35
 498 1117 498 1117 457 1063 c 128,-1,36
 416 1009 416 1009 381.5 916.5 c 128,-1,37
 347 824 347 824 319 681 c 0,38,39
 304 604 304 604 297 542.5 c 128,-1,40
 290 481 290 481 290 431 c 0,41,42
 290 364 290 364 302 317.5 c 128,-1,43
 314 271 314 271 335.5 243 c 128,-1,44
 357 215 357 215 387.5 202.5 c 128,-1,45
 418 190 418 190 454 190 c 0,26,27
EndSplineSet
EndChar

StartChar: oe
Encoding: 339 339 275
Width: 1229
Flags: W
LayerCount: 2
Fore
SplineSet
721 484 m 1,0,1
 713 443 713 443 709 407 c 128,-1,2
 705 371 705 371 705 339 c 0,3,4
 705 260 705 260 730 215 c 128,-1,5
 755 170 755 170 808 170 c 0,6,7
 859 170 859 170 891.5 203 c 128,-1,8
 924 236 924 236 951 301 c 1,9,-1
 1120 256 l 1,10,11
 1100 211 1100 211 1070.5 162.5 c 128,-1,12
 1041 114 1041 114 999 73.5 c 128,-1,13
 957 33 957 33 901 6.5 c 128,-1,14
 845 -20 845 -20 773 -20 c 0,15,16
 591 -20 591 -20 546 163 c 1,17,18
 486 70 486 70 410.5 25 c 128,-1,19
 335 -20 335 -20 244 -20 c 0,20,21
 129 -20 129 -20 65.5 60.5 c 128,-1,22
 2 141 2 141 2 307 c 0,23,24
 2 358 2 358 8.5 416.5 c 128,-1,25
 15 475 15 475 28 542 c 0,26,27
 83 821 83 821 195 961.5 c 128,-1,28
 307 1102 307 1102 469 1102 c 0,29,30
 656 1102 656 1102 701 925 c 1,31,32
 764 1019 764 1019 838.5 1060.5 c 128,-1,33
 913 1102 913 1102 994 1102 c 0,34,35
 1059 1102 1059 1102 1103.5 1079.5 c 128,-1,36
 1148 1057 1148 1057 1176.5 1015.5 c 128,-1,37
 1205 974 1205 974 1217.5 916 c 128,-1,38
 1230 858 1230 858 1230 787 c 0,39,40
 1230 672 1230 672 1201 527 c 1,41,-1
 1193 484 l 1,42,-1
 721 484 l 1,0,1
523 542 m 0,43,44
 536 608 536 608 542 659.5 c 128,-1,45
 548 711 548 711 548 751 c 0,46,47
 548 798 548 798 540.5 829.5 c 128,-1,48
 533 861 533 861 519.5 879.5 c 128,-1,49
 506 898 506 898 487 906 c 128,-1,50
 468 914 468 914 446 914 c 0,51,52
 414 914 414 914 385.5 896.5 c 128,-1,53
 357 879 357 879 331 836 c 128,-1,54
 305 793 305 793 281.5 721.5 c 128,-1,55
 258 650 258 650 237 542 c 0,56,57
 223 470 223 470 216.5 415 c 128,-1,58
 210 360 210 360 210 318 c 0,59,60
 210 275 210 275 216.5 246.5 c 128,-1,61
 223 218 223 218 234 200.5 c 128,-1,62
 245 183 245 183 260.5 175.5 c 128,-1,63
 276 168 276 168 295 168 c 0,64,65
 327 168 327 168 359 184.5 c 128,-1,66
 391 201 391 201 420 243.5 c 128,-1,67
 449 286 449 286 475.5 358.5 c 128,-1,68
 502 431 502 431 523 542 c 0,43,44
948 914 m 0,69,70
 927 914 927 914 901 905.5 c 128,-1,71
 875 897 875 897 849 870 c 128,-1,72
 823 843 823 843 799 793 c 128,-1,73
 775 743 775 743 757 660 c 1,74,-1
 1021 660 l 1,75,76
 1026 699 1026 699 1029 731 c 128,-1,77
 1032 763 1032 763 1032 789 c 0,78,79
 1032 858 1032 858 1012 886 c 128,-1,80
 992 914 992 914 948 914 c 0,69,70
EndSplineSet
EndChar

StartChar: Tbar
Encoding: 358 358 294
Width: 1229
Flags: W
LayerCount: 2
Fore
SplineSet
875 1121 m 1,0,-1
 808 776 l 1,1,-1
 1036 776 l 1,2,-1
 999 586 l 1,3,-1
 771 586 l 1,4,-1
 657 0 l 1,5,-1
 362 0 l 1,6,-1
 476 586 l 1,7,-1
 249 586 l 1,8,-1
 286 776 l 1,9,-1
 513 776 l 1,10,-1
 580 1121 l 1,11,-1
 175 1121 l 1,12,-1
 219 1349 l 1,13,-1
 1325 1349 l 1,14,-1
 1281 1121 l 1,15,-1
 875 1121 l 1,0,-1
EndSplineSet
EndChar

StartChar: tbar
Encoding: 359 359 295
Width: 1229
Flags: W
LayerCount: 2
Fore
SplineSet
331 492 m 1,0,-1
 166 492 l 1,1,-1
 203 682 l 1,2,-1
 368 682 l 1,3,-1
 408 892 l 1,4,-1
 243 892 l 1,5,-1
 280 1082 l 1,6,-1
 461 1082 l 1,7,-1
 604 1364 l 1,8,-1
 780 1364 l 1,9,-1
 725 1082 l 1,10,-1
 1110 1082 l 1,11,-1
 1073 892 l 1,12,-1
 688 892 l 1,13,-1
 648 682 l 1,14,-1
 1033 682 l 1,15,-1
 996 492 l 1,16,-1
 611 492 l 1,17,-1
 585 362 l 2,18,19
 581 340 581 340 577.5 319 c 128,-1,20
 574 298 574 298 574 279 c 0,21,22
 574 257 574 257 580.5 238.5 c 128,-1,23
 587 220 587 220 603.5 206.5 c 128,-1,24
 620 193 620 193 649.5 185.5 c 128,-1,25
 679 178 679 178 724 178 c 0,26,27
 788 178 788 178 853 185 c 128,-1,28
 918 192 918 192 984 205 c 1,29,-1
 948 19 l 1,30,31
 909 13 909 13 871.5 7 c 128,-1,32
 834 1 834 1 794.5 -3.5 c 128,-1,33
 755 -8 755 -8 711.5 -10.5 c 128,-1,34
 668 -13 668 -13 617 -13 c 0,35,36
 517 -13 517 -13 453 6.5 c 128,-1,37
 389 26 389 26 352 58.5 c 128,-1,38
 315 91 315 91 301 134 c 128,-1,39
 287 177 287 177 287 224 c 0,40,41
 287 252 287 252 291 280 c 128,-1,42
 295 308 295 308 300 336 c 2,43,-1
 331 492 l 1,0,-1
EndSplineSet
EndChar

StartChar: longs
Encoding: 383 383 319
Width: 1229
Flags: W
LayerCount: 2
Fore
SplineSet
494 1165 m 2,0,1
 506 1227 506 1227 535.5 1289 c 128,-1,2
 565 1351 565 1351 622 1401 c 128,-1,3
 679 1451 679 1451 767 1482.5 c 128,-1,4
 855 1514 855 1514 984 1514 c 0,5,6
 1086 1514 1086 1514 1167 1505 c 128,-1,7
 1248 1496 1248 1496 1306 1486 c 1,8,-1
 1270 1302 l 1,9,10
 1208 1310 1208 1310 1138 1315.5 c 128,-1,11
 1068 1321 1068 1321 996 1321 c 0,12,13
 938 1321 938 1321 898.5 1308 c 128,-1,14
 859 1295 859 1295 833 1271.5 c 128,-1,15
 807 1248 807 1248 792 1214.5 c 128,-1,16
 777 1181 777 1181 769 1139 c 2,17,-1
 548 0 l 1,18,-1
 268 0 l 1,19,-1
 494 1165 l 2,0,1
EndSplineSet
EndChar

StartChar: florin
Encoding: 402 402 320
Width: 1229
Flags: W
LayerCount: 2
Fore
SplineSet
1186 1158 m 1,0,1
 1177 1161 1177 1161 1160.5 1165 c 128,-1,2
 1144 1169 1144 1169 1123.5 1172 c 128,-1,3
 1103 1175 1103 1175 1080 1177.5 c 128,-1,4
 1057 1180 1057 1180 1035 1180 c 0,5,6
 991 1180 991 1180 960.5 1172.5 c 128,-1,7
 930 1165 930 1165 909 1149 c 128,-1,8
 888 1133 888 1133 873.5 1109 c 128,-1,9
 859 1085 859 1085 847 1053 c 2,10,-1
 806 946 l 1,11,-1
 1108 946 l 1,12,-1
 1035 756 l 1,13,-1
 732 756 l 1,14,-1
 270 -425 l 1,15,-1
 -11 -425 l 1,16,-1
 451 756 l 1,17,-1
 243 756 l 1,18,-1
 317 946 l 1,19,-1
 525 946 l 1,20,-1
 578 1081 l 1,21,22
 601 1143 601 1143 636 1195.5 c 128,-1,23
 671 1248 671 1248 724.5 1287 c 128,-1,24
 778 1326 778 1326 853.5 1348 c 128,-1,25
 929 1370 929 1370 1032 1370 c 0,26,27
 1067 1370 1067 1370 1102.5 1367 c 128,-1,28
 1138 1364 1138 1364 1170 1358.5 c 128,-1,29
 1202 1353 1202 1353 1227.5 1347 c 128,-1,30
 1253 1341 1253 1341 1267 1335 c 1,31,-1
 1186 1158 l 1,0,1
EndSplineSet
EndChar

StartChar: Aringacute
Encoding: 506 506 321
Width: 1229
Flags: W
LayerCount: 2
Fore
SplineSet
988 1218 m 0,0,1
 974 1146 974 1146 915 1091 c 1,2,-1
 1124 0 l 1,3,-1
 830 0 l 1,4,-1
 793 263 l 1,5,-1
 327 263 l 1,6,-1
 190 0 l 1,7,-1
 -105 0 l 1,8,-1
 528 1090 l 1,9,10
 514 1109 514 1109 507 1132 c 128,-1,11
 500 1155 500 1155 500 1180 c 0,12,13
 500 1190 500 1190 501 1199 c 128,-1,14
 502 1208 502 1208 504 1218 c 0,15,16
 512 1257 512 1257 533.5 1293 c 128,-1,17
 555 1329 555 1329 590.5 1356.5 c 128,-1,18
 626 1384 626 1384 674.5 1400.5 c 128,-1,19
 723 1417 723 1417 784 1417 c 0,20,21
 838 1417 838 1417 877 1404 c 128,-1,22
 916 1391 916 1391 941.5 1369 c 128,-1,23
 967 1347 967 1347 979.5 1317.5 c 128,-1,24
 992 1288 992 1288 992 1255 c 0,25,26
 992 1246 992 1246 991 1237 c 128,-1,27
 990 1228 990 1228 988 1218 c 0,0,1
703 992 m 1,28,29
 699 983 699 983 689.5 962 c 128,-1,30
 680 941 680 941 666.5 913.5 c 128,-1,31
 653 886 653 886 637.5 854.5 c 128,-1,32
 622 823 622 823 606 792 c 2,33,-1
 443 485 l 1,34,-1
 764 485 l 1,35,-1
 722 792 l 2,36,37
 718 823 718 823 714.5 854.5 c 128,-1,38
 711 886 711 886 708.5 913.5 c 128,-1,39
 706 941 706 941 704.5 962 c 128,-1,40
 703 983 703 983 703 992 c 1,28,29
689 1459 m 1,41,-1
 695 1490 l 1,42,-1
 968 1705 l 1,43,-1
 1226 1705 l 1,44,-1
 1218 1662 l 1,45,-1
 839 1459 l 1,46,-1
 689 1459 l 1,41,-1
849 1218 m 0,47,48
 851 1230 851 1230 848 1243 c 128,-1,49
 845 1256 845 1256 835 1266 c 128,-1,50
 825 1276 825 1276 806.5 1282.5 c 128,-1,51
 788 1289 788 1289 760 1289 c 0,52,53
 704 1289 704 1289 675.5 1266 c 128,-1,54
 647 1243 647 1243 642 1218 c 0,55,56
 639 1205 639 1205 642.5 1192.5 c 128,-1,57
 646 1180 646 1180 656.5 1170 c 128,-1,58
 667 1160 667 1160 685.5 1153.5 c 128,-1,59
 704 1147 704 1147 732 1147 c 0,60,61
 761 1147 761 1147 781.5 1153.5 c 128,-1,62
 802 1160 802 1160 816.5 1170 c 128,-1,63
 831 1180 831 1180 838.5 1193 c 128,-1,64
 846 1206 846 1206 849 1218 c 0,47,48
EndSplineSet
EndChar

StartChar: circumflex
Encoding: 710 710 327
Width: 1229
Flags: W
LayerCount: 2
Fore
SplineSet
1113 1211 m 1,0,-1
 1108 1183 l 1,1,-1
 949 1183 l 1,2,-1
 772 1317 l 1,3,-1
 768 1317 l 1,4,-1
 531 1183 l 1,5,-1
 371 1183 l 1,6,-1
 376 1211 l 1,7,-1
 683 1461 l 1,8,-1
 912 1461 l 1,9,-1
 1113 1211 l 1,0,-1
EndSplineSet
EndChar

StartChar: caron
Encoding: 711 711 328
Width: 1229
Flags: W
LayerCount: 2
Fore
SplineSet
858 1183 m 1,0,-1
 629 1183 l 1,1,-1
 419 1432 l 1,2,-1
 425 1461 l 1,3,-1
 585 1461 l 1,4,-1
 770 1327 l 1,5,-1
 774 1327 l 1,6,-1
 1003 1461 l 1,7,-1
 1162 1461 l 1,8,-1
 1156 1432 l 1,9,-1
 858 1183 l 1,0,-1
EndSplineSet
EndChar

StartChar: uni02C9
Encoding: 713 713 329
Width: 1229
Flags: W
LayerCount: 2
Fore
SplineSet
469 1371 m 1,0,-1
 1081 1371 l 1,1,-1
 1049 1203 l 1,2,-1
 437 1203 l 1,3,-1
 469 1371 l 1,0,-1
EndSplineSet
EndChar

StartChar: breve
Encoding: 728 728 330
Width: 1229
Flags: W
LayerCount: 2
Fore
SplineSet
737 1183 m 0,0,1
 589 1183 589 1183 513 1244.5 c 128,-1,2
 437 1306 437 1306 437 1420 c 0,3,4
 437 1430 437 1430 437 1440 c 128,-1,5
 437 1450 437 1450 439 1461 c 1,6,-1
 602 1461 l 1,7,8
 598 1398 598 1398 641 1369 c 128,-1,9
 684 1340 684 1340 769 1340 c 0,10,11
 857 1340 857 1340 907 1369 c 128,-1,12
 957 1398 957 1398 983 1461 c 1,13,-1
 1147 1461 l 1,14,15
 1105 1329 1105 1329 1004.5 1256 c 128,-1,16
 904 1183 904 1183 737 1183 c 0,0,1
EndSplineSet
EndChar

StartChar: dotaccent
Encoding: 729 729 331
Width: 1229
Flags: W
LayerCount: 2
Fore
SplineSet
615 1277 m 1,0,-1
 656 1484 l 1,1,-1
 937 1484 l 1,2,-1
 896 1277 l 1,3,-1
 615 1277 l 1,0,-1
EndSplineSet
EndChar

StartChar: ring
Encoding: 730 730 332
Width: 1229
Flags: W
LayerCount: 2
Fore
SplineSet
1013 1348 m 0,0,1
 1006 1309 1006 1309 984 1273 c 128,-1,2
 962 1237 962 1237 926.5 1209 c 128,-1,3
 891 1181 891 1181 842 1164.5 c 128,-1,4
 793 1148 793 1148 732 1148 c 0,5,6
 678 1148 678 1148 639 1161 c 128,-1,7
 600 1174 600 1174 574.5 1196 c 128,-1,8
 549 1218 549 1218 537 1247.5 c 128,-1,9
 525 1277 525 1277 525 1310 c 0,10,11
 525 1319 525 1319 526 1328.5 c 128,-1,12
 527 1338 527 1338 529 1348 c 0,13,14
 537 1387 537 1387 558.5 1423 c 128,-1,15
 580 1459 580 1459 615.5 1486.5 c 128,-1,16
 651 1514 651 1514 700 1530.5 c 128,-1,17
 749 1547 749 1547 810 1547 c 0,18,19
 864 1547 864 1547 903 1534 c 128,-1,20
 942 1521 942 1521 967.5 1499.5 c 128,-1,21
 993 1478 993 1478 1005 1448.5 c 128,-1,22
 1017 1419 1017 1419 1017 1386 c 0,23,24
 1017 1377 1017 1377 1016 1367.5 c 128,-1,25
 1015 1358 1015 1358 1013 1348 c 0,0,1
874 1348 m 0,26,27
 876 1360 876 1360 873 1373 c 128,-1,28
 870 1386 870 1386 860 1396 c 128,-1,29
 850 1406 850 1406 831.5 1412.5 c 128,-1,30
 813 1419 813 1419 785 1419 c 0,31,32
 729 1419 729 1419 700.5 1396 c 128,-1,33
 672 1373 672 1373 667 1348 c 0,34,35
 664 1335 664 1335 667.5 1322.5 c 128,-1,36
 671 1310 671 1310 681.5 1300 c 128,-1,37
 692 1290 692 1290 710.5 1283.5 c 128,-1,38
 729 1277 729 1277 757 1277 c 256,39,40
 785 1277 785 1277 806 1283.5 c 128,-1,41
 827 1290 827 1290 841 1300 c 128,-1,42
 855 1310 855 1310 863 1322.5 c 128,-1,43
 871 1335 871 1335 874 1348 c 0,26,27
EndSplineSet
EndChar

StartChar: ogonek
Encoding: 731 731 333
Width: 1229
Flags: W
LayerCount: 2
Fore
SplineSet
469 -425 m 0,0,1
 378 -425 378 -425 322.5 -385.5 c 128,-1,2
 267 -346 267 -346 267 -268 c 0,3,4
 267 -245 267 -245 271 -225 c 0,5,6
 280 -177 280 -177 304 -136.5 c 128,-1,7
 328 -96 328 -96 358 -65 c 128,-1,8
 388 -34 388 -34 420 -12.5 c 128,-1,9
 452 9 452 9 477 21 c 1,10,-1
 630 21 l 1,11,12
 558 -21 558 -21 514.5 -78.5 c 128,-1,13
 471 -136 471 -136 460 -189 c 0,14,15
 452 -231 452 -231 471.5 -256.5 c 128,-1,16
 491 -282 491 -282 536 -282 c 0,17,18
 567 -282 567 -282 595 -275 c 128,-1,19
 623 -268 623 -268 653 -255 c 1,20,-1
 627 -392 l 1,21,22
 558 -425 558 -425 469 -425 c 0,0,1
EndSplineSet
EndChar

StartChar: tilde
Encoding: 732 732 334
Width: 1229
Flags: W
LayerCount: 2
Fore
SplineSet
906 1183 m 0,0,1
 862 1183 862 1183 821 1200.5 c 128,-1,2
 780 1218 780 1218 742 1239.5 c 128,-1,3
 704 1261 704 1261 670 1278.5 c 128,-1,4
 636 1296 636 1296 606 1296 c 0,5,6
 580 1296 580 1296 561.5 1289 c 128,-1,7
 543 1282 543 1282 529.5 1268 c 128,-1,8
 516 1254 516 1254 505.5 1233 c 128,-1,9
 495 1212 495 1212 486 1183 c 1,10,-1
 349 1183 l 1,11,12
 356 1210 356 1210 366 1241.5 c 128,-1,13
 376 1273 376 1273 391 1304.5 c 128,-1,14
 406 1336 406 1336 426.5 1365 c 128,-1,15
 447 1394 447 1394 476 1416.5 c 128,-1,16
 505 1439 505 1439 542.5 1452.5 c 128,-1,17
 580 1466 580 1466 629 1466 c 0,18,19
 674 1466 674 1466 716 1448.5 c 128,-1,20
 758 1431 758 1431 795.5 1409.5 c 128,-1,21
 833 1388 833 1388 866 1370.5 c 128,-1,22
 899 1353 899 1353 928 1353 c 0,23,24
 978 1353 978 1353 1003.5 1381 c 128,-1,25
 1029 1409 1029 1409 1049 1466 c 1,26,-1
 1184 1466 l 1,27,28
 1174 1425 1174 1425 1156.5 1375.5 c 128,-1,29
 1139 1326 1139 1326 1107.5 1283.5 c 128,-1,30
 1076 1241 1076 1241 1027.5 1212 c 128,-1,31
 979 1183 979 1183 906 1183 c 0,0,1
EndSplineSet
EndChar

StartChar: hungarumlaut
Encoding: 733 733 335
Width: 1229
Flags: W
LayerCount: 2
Fore
SplineSet
267 1182 m 1,0,-1
 125 1182 l 1,1,-1
 131 1216 l 1,2,-1
 404 1461 l 1,3,-1
 639 1461 l 1,4,-1
 631 1418 l 1,5,-1
 267 1182 l 1,0,-1
673 1182 m 1,6,-1
 531 1182 l 1,7,-1
 537 1216 l 1,8,-1
 810 1461 l 1,9,-1
 1045 1461 l 1,10,-1
 1037 1418 l 1,11,-1
 673 1182 l 1,6,-1
EndSplineSet
EndChar

StartChar: tonos
Encoding: 900 900 336
Width: 1229
Flags: W
LayerCount: 2
Fore
SplineSet
603 1201 m 1,0,-1
 610 1234 l 1,1,-1
 726 1556 l 1,2,-1
 983 1556 l 1,3,-1
 976 1519 l 1,4,-1
 708 1201 l 1,5,-1
 603 1201 l 1,0,-1
EndSplineSet
EndChar

StartChar: dieresistonos
Encoding: 901 901 337
Width: 1229
Flags: W
LayerCount: 2
Fore
SplineSet
644 1201 m 1,0,-1
 651 1234 l 1,1,-1
 787 1632 l 1,2,-1
 1024 1632 l 1,3,-1
 1017 1595 l 1,4,-1
 759 1201 l 1,5,-1
 644 1201 l 1,0,-1
383 1231 m 1,6,-1
 426 1453 l 1,7,-1
 626 1453 l 1,8,-1
 583 1231 l 1,9,-1
 383 1231 l 1,6,-1
915 1231 m 1,10,-1
 958 1453 l 1,11,-1
 1158 1453 l 1,12,-1
 1115 1231 l 1,13,-1
 915 1231 l 1,10,-1
EndSplineSet
EndChar

StartChar: anoteleia
Encoding: 903 903 339
Width: 1229
Flags: W
LayerCount: 2
Fore
SplineSet
446 417 m 1,0,-1
 505 722 l 1,1,-1
 793 722 l 1,2,-1
 734 417 l 1,3,-1
 446 417 l 1,0,-1
EndSplineSet
EndChar

StartChar: Epsilontonos
Encoding: 904 904 340
Width: 1229
Flags: W
LayerCount: 2
Fore
SplineSet
222 0 m 1,0,-1
 484 1349 l 1,1,-1
 1292 1349 l 1,2,-1
 1247 1121 l 1,3,-1
 734 1121 l 1,4,-1
 671 797 l 1,5,-1
 1123 797 l 1,6,-1
 1079 569 l 1,7,-1
 627 569 l 1,8,-1
 561 228 l 1,9,-1
 1115 228 l 1,10,-1
 1071 0 l 1,11,-1
 222 0 l 1,0,-1
33 994 m 1,12,-1
 40 1027 l 1,13,-1
 156 1349 l 1,14,-1
 413 1349 l 1,15,-1
 406 1312 l 1,16,-1
 138 994 l 1,17,-1
 33 994 l 1,12,-1
EndSplineSet
EndChar

StartChar: Etatonos
Encoding: 905 905 341
Width: 1229
Flags: W
LayerCount: 2
Fore
SplineSet
785 0 m 1,0,-1
 896 574 l 1,1,-1
 613 574 l 1,2,-1
 502 0 l 1,3,-1
 222 0 l 1,4,-1
 484 1349 l 1,5,-1
 764 1349 l 1,6,-1
 661 818 l 1,7,-1
 944 818 l 1,8,-1
 1047 1349 l 1,9,-1
 1327 1349 l 1,10,-1
 1065 0 l 1,11,-1
 785 0 l 1,0,-1
33 994 m 1,12,-1
 40 1027 l 1,13,-1
 156 1349 l 1,14,-1
 413 1349 l 1,15,-1
 406 1312 l 1,16,-1
 138 994 l 1,17,-1
 33 994 l 1,12,-1
EndSplineSet
EndChar

StartChar: Omicrontonos
Encoding: 908 908 343
Width: 1229
Flags: W
LayerCount: 2
Fore
SplineSet
1227 679 m 0,0,1
 1194 507 1194 507 1135 376 c 128,-1,2
 1076 245 1076 245 995 157 c 128,-1,3
 914 69 914 69 812 24.5 c 128,-1,4
 710 -20 710 -20 590 -20 c 0,5,6
 398 -20 398 -20 296.5 93 c 128,-1,7
 195 206 195 206 195 430 c 0,8,9
 195 541 195 541 222 679 c 0,10,11
 256 852 256 852 315 981.5 c 128,-1,12
 374 1111 374 1111 455 1197 c 128,-1,13
 536 1283 536 1283 638 1326.5 c 128,-1,14
 740 1370 740 1370 860 1370 c 0,15,16
 1051 1370 1051 1370 1152.5 1260 c 128,-1,17
 1254 1150 1254 1150 1254 929 c 0,18,19
 1254 819 1254 819 1227 679 c 0,0,1
928 679 m 0,20,21
 955 817 955 817 955 913 c 0,22,23
 955 1027 955 1027 919.5 1082.5 c 128,-1,24
 884 1138 884 1138 815 1138 c 0,25,26
 717 1138 717 1138 641.5 1023.5 c 128,-1,27
 566 909 566 909 521 679 c 0,28,29
 508 611 508 611 501.5 553 c 128,-1,30
 495 495 495 495 495 446 c 0,31,32
 495 330 495 330 530.5 271 c 128,-1,33
 566 212 566 212 635 212 c 0,34,35
 733 212 733 212 808 330.5 c 128,-1,36
 883 449 883 449 928 679 c 0,20,21
33 994 m 1,37,-1
 40 1027 l 1,38,-1
 156 1349 l 1,39,-1
 413 1349 l 1,40,-1
 406 1312 l 1,41,-1
 138 994 l 1,42,-1
 33 994 l 1,37,-1
EndSplineSet
EndChar

StartChar: Upsilontonos
Encoding: 910 910 344
Width: 1229
Flags: W
LayerCount: 2
Fore
SplineSet
877 446 m 1,0,-1
 791 0 l 1,1,-1
 505 0 l 1,2,-1
 591 446 l 1,3,-1
 434 1349 l 1,4,-1
 721 1349 l 1,5,-1
 791 747 l 1,6,-1
 1099 1349 l 1,7,-1
 1386 1349 l 1,8,-1
 877 446 l 1,0,-1
33 994 m 1,9,-1
 40 1027 l 1,10,-1
 156 1349 l 1,11,-1
 413 1349 l 1,12,-1
 406 1312 l 1,13,-1
 138 994 l 1,14,-1
 33 994 l 1,9,-1
EndSplineSet
EndChar

StartChar: Omegatonos
Encoding: 911 911 345
Width: 1229
Flags: W
LayerCount: 2
Fore
SplineSet
33 994 m 1,0,-1
 40 1027 l 1,1,-1
 156 1349 l 1,2,-1
 413 1349 l 1,3,-1
 406 1312 l 1,4,-1
 138 994 l 1,5,-1
 33 994 l 1,0,-1
781 1143 m 0,6,7
 728 1143 728 1143 685 1119 c 128,-1,8
 642 1095 642 1095 608.5 1054 c 128,-1,9
 575 1013 575 1013 551 960 c 128,-1,10
 527 907 527 907 511 849 c 128,-1,11
 495 791 495 791 487.5 732.5 c 128,-1,12
 480 674 480 674 480 622 c 0,13,14
 480 577 480 577 482 535.5 c 128,-1,15
 484 494 484 494 490.5 455.5 c 128,-1,16
 497 417 497 417 508.5 379.5 c 128,-1,17
 520 342 520 342 539 304 c 1,18,-1
 480 0 l 1,19,-1
 45 0 l 1,20,-1
 89 228 l 1,21,-1
 175 228 l 2,22,23
 201 228 201 228 226.5 226 c 128,-1,24
 252 224 252 224 272 222 c 2,25,-1
 317 217 l 1,26,27
 250 297 250 297 226 403.5 c 128,-1,28
 202 510 202 510 202 638 c 0,29,30
 202 800 202 800 251.5 935 c 128,-1,31
 301 1070 301 1070 386 1166.5 c 128,-1,32
 471 1263 471 1263 584 1316.5 c 128,-1,33
 697 1370 697 1370 825 1370 c 0,34,35
 913 1370 913 1370 986 1342 c 128,-1,36
 1059 1314 1059 1314 1112 1259.5 c 128,-1,37
 1165 1205 1165 1205 1194.5 1123.5 c 128,-1,38
 1224 1042 1224 1042 1224 934 c 0,39,40
 1224 828 1224 828 1200 727 c 128,-1,41
 1176 626 1176 626 1130 534.5 c 128,-1,42
 1084 443 1084 443 1017 362.5 c 128,-1,43
 950 282 950 282 865 217 c 1,44,45
 892 219 892 219 919 222 c 0,46,47
 942 224 942 224 970.5 226 c 128,-1,48
 999 228 999 228 1025 228 c 2,49,-1
 1117 228 l 1,50,-1
 1073 0 l 1,51,-1
 618 0 l 1,52,-1
 677 304 l 1,53,54
 798 419 798 419 865 562.5 c 128,-1,55
 932 706 932 706 932 890 c 0,56,57
 932 956 932 956 920.5 1003.5 c 128,-1,58
 909 1051 909 1051 888.5 1082 c 128,-1,59
 868 1113 868 1113 840.5 1128 c 128,-1,60
 813 1143 813 1143 781 1143 c 0,6,7
EndSplineSet
EndChar

StartChar: Gamma
Encoding: 915 915 349
Width: 1229
Flags: W
LayerCount: 2
Fore
SplineSet
1301 1349 m 1,0,-1
 1257 1121 l 1,1,-1
 585 1121 l 1,2,-1
 367 1 l 1,3,-1
 72 1 l 1,4,-1
 334 1349 l 1,5,-1
 1301 1349 l 1,0,-1
EndSplineSet
EndChar

StartChar: Delta
Encoding: 916 916 350
Width: 1229
Flags: W
LayerCount: 2
Fore
SplineSet
-43 226 m 1,0,-1
 603 1349 l 1,1,-1
 948 1349 l 1,2,-1
 1151 226 l 1,3,-1
 1107 0 l 1,4,-1
 -87 0 l 1,5,-1
 -43 226 l 1,0,-1
860 244 m 1,6,-1
 758 862 l 2,7,8
 752 903 752 903 748 952 c 128,-1,9
 744 1001 744 1001 741.5 1044.5 c 128,-1,10
 739 1088 739 1088 737.5 1120 c 128,-1,11
 736 1152 736 1152 736 1159 c 1,12,13
 733 1152 733 1152 719 1119.5 c 128,-1,14
 705 1087 705 1087 685.5 1043 c 128,-1,15
 666 999 666 999 643 950 c 128,-1,16
 620 901 620 901 599 860 c 1,17,-1
 259 244 l 1,18,-1
 860 244 l 1,6,-1
EndSplineSet
EndChar

StartChar: Theta
Encoding: 920 920 354
Width: 1229
Flags: W
LayerCount: 2
Fore
SplineSet
840 787 m 1,0,-1
 798 573 l 1,1,-1
 443 573 l 1,2,-1
 485 787 l 1,3,-1
 840 787 l 1,0,-1
1194 679 m 0,4,5
 1161 507 1161 507 1098 376 c 128,-1,6
 1035 245 1035 245 947.5 157 c 128,-1,7
 860 69 860 69 748.5 24.5 c 128,-1,8
 637 -20 637 -20 506 -20 c 0,9,10
 291 -20 291 -20 178 97.5 c 128,-1,11
 65 215 65 215 65 447 c 0,12,13
 65 552 65 552 89 679 c 0,14,15
 122 852 122 852 184.5 981.5 c 128,-1,16
 247 1111 247 1111 335 1197 c 128,-1,17
 423 1283 423 1283 534 1326.5 c 128,-1,18
 645 1370 645 1370 776 1370 c 0,19,20
 990 1370 990 1370 1104 1255 c 128,-1,21
 1218 1140 1218 1140 1218 910 c 0,22,23
 1218 807 1218 807 1194 679 c 0,4,5
905 679 m 0,24,25
 926 787 926 787 926 870 c 0,26,27
 926 1006 926 1006 875 1072 c 128,-1,28
 824 1138 824 1138 731 1138 c 0,29,30
 671 1138 671 1138 616.5 1109 c 128,-1,31
 562 1080 562 1080 516.5 1022.5 c 128,-1,32
 471 965 471 965 435.5 879 c 128,-1,33
 400 793 400 793 378 679 c 0,34,35
 367 625 367 625 362.5 577.5 c 128,-1,36
 358 530 358 530 358 488 c 0,37,38
 358 351 358 351 408 281.5 c 128,-1,39
 458 212 458 212 551 212 c 0,40,41
 672 212 672 212 766 330.5 c 128,-1,42
 860 449 860 449 905 679 c 0,24,25
EndSplineSet
EndChar

StartChar: Lambda
Encoding: 923 923 357
Width: 1229
Flags: W
LayerCount: 2
Fore
SplineSet
-85 0 m 1,0,-1
 620 1349 l 1,1,-1
 924 1349 l 1,2,-1
 1104 0 l 1,3,-1
 800 0 l 1,4,-1
 720 865 l 2,5,6
 718 893 718 893 716 935 c 128,-1,7
 714 977 714 977 714 1014 c 0,8,9
 714 1026 714 1026 714 1036.5 c 128,-1,10
 714 1047 714 1047 715 1055 c 1,11,12
 709 1037 709 1037 699.5 1012 c 128,-1,13
 690 987 690 987 678.5 960.5 c 128,-1,14
 667 934 667 934 656 908.5 c 128,-1,15
 645 883 645 883 636 865 c 2,16,-1
 220 0 l 1,17,-1
 -85 0 l 1,0,-1
EndSplineSet
EndChar

StartChar: Xi
Encoding: 926 926 360
Width: 1229
Flags: W
LayerCount: 2
Fore
SplineSet
245 1105 m 1,0,-1
 292 1349 l 1,1,-1
 1251 1349 l 1,2,-1
 1204 1105 l 1,3,-1
 245 1105 l 1,0,-1
10 0 m 1,4,-1
 57 244 l 1,5,-1
 1056 244 l 1,6,-1
 1009 0 l 1,7,-1
 10 0 l 1,4,-1
1021 808 m 1,8,-1
 977 580 l 1,9,-1
 268 580 l 1,10,-1
 312 808 l 1,11,-1
 1021 808 l 1,8,-1
EndSplineSet
EndChar

StartChar: Pi
Encoding: 928 928 362
Width: 1229
Flags: W
LayerCount: 2
Fore
SplineSet
691 0 m 1,0,-1
 906 1105 l 1,1,-1
 543 1105 l 1,2,-1
 328 0 l 1,3,-1
 33 0 l 1,4,-1
 295 1349 l 1,5,-1
 1248 1349 l 1,6,-1
 986 0 l 1,7,-1
 691 0 l 1,0,-1
EndSplineSet
EndChar

StartChar: Sigma
Encoding: 931 931 364
Width: 1229
Flags: W
LayerCount: 2
Fore
SplineSet
-5 0 m 1,0,-1
 40 234 l 1,1,-1
 591 711 l 1,2,-1
 229 1116 l 1,3,-1
 274 1349 l 1,4,-1
 1253 1349 l 1,5,-1
 1206 1105 l 1,6,-1
 564 1105 l 1,7,-1
 861 778 l 1,8,-1
 835 644 l 1,9,-1
 363 244 l 1,10,-1
 1099 244 l 1,11,-1
 1052 0 l 1,12,-1
 -5 0 l 1,0,-1
EndSplineSet
EndChar

StartChar: Phi
Encoding: 934 934 367
Width: 1229
Flags: W
LayerCount: 2
Fore
SplineSet
995 700 m 0,0,1
 1000 726 1000 726 1002.5 750 c 128,-1,2
 1005 774 1005 774 1005 795 c 0,3,4
 1005 846 1005 846 992 883 c 128,-1,5
 979 920 979 920 957 944.5 c 128,-1,6
 935 969 935 969 905 980.5 c 128,-1,7
 875 992 875 992 841 992 c 2,8,-1
 822 992 l 1,9,-1
 706 397 l 1,10,-1
 732 397 l 2,11,12
 774 397 774 397 815.5 417.5 c 128,-1,13
 857 438 857 438 892 477 c 128,-1,14
 927 516 927 516 954 572 c 128,-1,15
 981 628 981 628 995 700 c 0,0,1
389 -11 m 1,16,-1
 429 198 l 1,17,-1
 405 198 l 2,18,19
 317 198 317 198 247 226 c 128,-1,20
 177 254 177 254 128.5 304.5 c 128,-1,21
 80 355 80 355 54.5 426 c 128,-1,22
 29 497 29 497 29 582 c 0,23,24
 29 641 29 641 41 704 c 0,25,26
 64 823 64 823 116.5 914 c 128,-1,27
 169 1005 169 1005 244 1066.5 c 128,-1,28
 319 1128 319 1128 412.5 1159.5 c 128,-1,29
 506 1191 506 1191 611 1191 c 2,30,-1
 623 1191 l 1,31,-1
 655 1359 l 1,32,-1
 893 1359 l 1,33,-1
 861 1191 l 1,34,-1
 873 1191 l 2,35,36
 963 1191 963 1191 1035.5 1168 c 128,-1,37
 1108 1145 1108 1145 1159.5 1099.5 c 128,-1,38
 1211 1054 1211 1054 1238.5 987 c 128,-1,39
 1266 920 1266 920 1266 831 c 0,40,41
 1266 802 1266 802 1263 770.5 c 128,-1,42
 1260 739 1260 739 1253 704 c 0,43,44
 1232 594 1232 594 1180 501.5 c 128,-1,45
 1128 409 1128 409 1054 341.5 c 128,-1,46
 980 274 980 274 887.5 236 c 128,-1,47
 795 198 795 198 691 198 c 2,48,-1
 667 198 l 1,49,-1
 627 -11 l 1,50,-1
 389 -11 l 1,16,-1
297 700 m 0,51,52
 287 650 287 650 287 603 c 0,53,54
 287 504 287 504 330 450.5 c 128,-1,55
 373 397 373 397 442 397 c 2,56,-1
 468 397 l 1,57,-1
 584 992 l 1,58,-1
 565 992 l 2,59,60
 524 992 524 992 482.5 975 c 128,-1,61
 441 958 441 958 405 922 c 128,-1,62
 369 886 369 886 340.5 831 c 128,-1,63
 312 776 312 776 297 700 c 0,51,52
EndSplineSet
EndChar

StartChar: Psi
Encoding: 936 936 369
Width: 1229
Flags: W
LayerCount: 2
Fore
SplineSet
706 397 m 1,0,-1
 629 0 l 1,1,-1
 390 0 l 1,2,-1
 467 397 l 1,3,-1
 457 397 l 2,4,5
 276 397 276 397 188 484.5 c 128,-1,6
 100 572 100 572 100 743 c 0,7,8
 100 782 100 782 105 825 c 128,-1,9
 110 868 110 868 119 916 c 2,10,-1
 203 1349 l 1,11,-1
 442 1349 l 1,12,-1
 357 912 l 2,13,14
 342 836 342 836 342 781 c 0,15,16
 342 690 342 690 382.5 654 c 128,-1,17
 423 618 423 618 501 618 c 2,18,-1
 510 618 l 1,19,-1
 652 1349 l 1,20,-1
 891 1349 l 1,21,-1
 749 618 l 1,22,-1
 758 618 l 2,23,24
 809 618 809 618 849.5 632.5 c 128,-1,25
 890 647 890 647 921.5 681 c 128,-1,26
 953 715 953 715 976.5 771.5 c 128,-1,27
 1000 828 1000 828 1016 912 c 2,28,-1
 1101 1349 l 1,29,-1
 1340 1349 l 1,30,-1
 1256 916 l 2,31,32
 1207 663 1207 663 1072 530 c 128,-1,33
 937 397 937 397 716 397 c 2,34,-1
 706 397 l 1,0,-1
EndSplineSet
EndChar

StartChar: Omega
Encoding: 937 937 370
Width: 1229
Flags: W
LayerCount: 2
Fore
SplineSet
731 1143 m 0,0,1
 678 1143 678 1143 626 1120 c 128,-1,2
 574 1097 574 1097 529 1049.5 c 128,-1,3
 484 1002 484 1002 449 928.5 c 128,-1,4
 414 855 414 855 394 754 c 0,5,6
 380 681 380 681 380 622 c 0,7,8
 380 531 380 531 410 455.5 c 128,-1,9
 440 380 440 380 499 304 c 1,10,-1
 440 0 l 1,11,-1
 -55 0 l 1,12,-1
 -11 228 l 1,13,-1
 105 228 l 2,14,15
 131 228 131 228 161 226.5 c 128,-1,16
 191 225 191 225 217 223 c 0,17,18
 247 220 247 220 277 217 c 1,19,20
 192 297 192 297 147 401.5 c 128,-1,21
 102 506 102 506 102 638 c 0,22,23
 102 676 102 676 106 716 c 128,-1,24
 110 756 110 756 118 798 c 0,25,26
 145 939 145 939 212 1046 c 128,-1,27
 279 1153 279 1153 369 1225 c 128,-1,28
 459 1297 459 1297 564.5 1333.5 c 128,-1,29
 670 1370 670 1370 775 1370 c 0,30,31
 867 1370 867 1370 948.5 1342 c 128,-1,32
 1030 1314 1030 1314 1091 1259.5 c 128,-1,33
 1152 1205 1152 1205 1188 1123.5 c 128,-1,34
 1224 1042 1224 1042 1224 934 c 0,35,36
 1224 902 1224 902 1220.5 868 c 128,-1,37
 1217 834 1217 834 1210 798 c 0,38,39
 1173 609 1173 609 1073.5 464.5 c 128,-1,40
 974 320 974 320 825 217 c 1,41,42
 857 220 857 220 889 223 c 0,43,44
 916 225 916 225 947.5 226.5 c 128,-1,45
 979 228 979 228 1005 228 c 2,46,-1
 1117 228 l 1,47,-1
 1073 0 l 1,48,-1
 578 0 l 1,49,-1
 637 304 l 1,50,51
 696 355 696 355 742 405 c 128,-1,52
 788 455 788 455 822.5 509 c 128,-1,53
 857 563 857 563 880.5 623.5 c 128,-1,54
 904 684 904 684 918 754 c 0,55,56
 926 792 926 792 929 826 c 128,-1,57
 932 860 932 860 932 890 c 0,58,59
 932 956 932 956 917 1003.5 c 128,-1,60
 902 1051 902 1051 875 1082 c 128,-1,61
 848 1113 848 1113 811 1128 c 128,-1,62
 774 1143 774 1143 731 1143 c 0,0,1
EndSplineSet
EndChar

StartChar: alpha
Encoding: 945 945 378
Width: 1229
Flags: W
LayerCount: 2
Fore
SplineSet
791 237 m 1,0,1
 754 181 754 181 712.5 134 c 128,-1,2
 671 87 671 87 621.5 52.5 c 128,-1,3
 572 18 572 18 513 -1 c 128,-1,4
 454 -20 454 -20 382 -20 c 0,5,6
 47 -20 47 -20 47 331 c 0,7,8
 47 376 47 376 52.5 427.5 c 128,-1,9
 58 479 58 479 69 536 c 0,10,11
 125 820 125 820 265.5 961 c 128,-1,12
 406 1102 406 1102 626 1102 c 0,13,14
 699 1102 699 1102 754 1082.5 c 128,-1,15
 809 1063 809 1063 848 1028.5 c 128,-1,16
 887 994 887 994 910.5 947.5 c 128,-1,17
 934 901 934 901 945 847 c 1,18,-1
 948 847 l 1,19,20
 970 902 970 902 1002 965.5 c 128,-1,21
 1034 1029 1034 1029 1068 1082 c 1,22,-1
 1333 1082 l 1,23,24
 1298 1035 1298 1035 1258 968.5 c 128,-1,25
 1218 902 1218 902 1180.5 830 c 128,-1,26
 1143 758 1143 758 1111.5 686 c 128,-1,27
 1080 614 1080 614 1062 556 c 1,28,29
 1053 459 1053 459 1053 365 c 0,30,31
 1053 263 1053 263 1063 170.5 c 128,-1,32
 1073 78 1073 78 1090 0 c 1,33,-1
 820 0 l 1,34,35
 813 32 813 32 808 65 c 128,-1,36
 803 98 803 98 800 129.5 c 128,-1,37
 797 161 797 161 796 188.5 c 128,-1,38
 795 216 795 216 795 237 c 1,39,-1
 791 237 l 1,0,1
365 539 m 0,40,41
 342 421 342 421 342 347 c 0,42,43
 342 256 342 256 374.5 214.5 c 128,-1,44
 407 173 407 173 475 173 c 0,45,46
 514 173 514 173 556 195.5 c 128,-1,47
 598 218 598 218 638.5 264 c 128,-1,48
 679 310 679 310 716 379.5 c 128,-1,49
 753 449 753 449 781 542 c 1,50,51
 784 584 784 584 784 623 c 0,52,53
 784 683 784 683 775.5 735.5 c 128,-1,54
 767 788 767 788 748.5 826 c 128,-1,55
 730 864 730 864 699.5 886 c 128,-1,56
 669 908 669 908 625 908 c 0,57,58
 577 908 577 908 537.5 888 c 128,-1,59
 498 868 498 868 466 824 c 128,-1,60
 434 780 434 780 409.5 710 c 128,-1,61
 385 640 385 640 365 539 c 0,40,41
EndSplineSet
EndChar

StartChar: beta
Encoding: 946 946 379
Width: 1229
Flags: W
LayerCount: 2
Fore
SplineSet
1145 405 m 0,0,1
 1128 317 1128 317 1088 239.5 c 128,-1,2
 1048 162 1048 162 983.5 104 c 128,-1,3
 919 46 919 46 828.5 13 c 128,-1,4
 738 -20 738 -20 619 -20 c 0,5,6
 519 -20 519 -20 450 7.5 c 128,-1,7
 381 35 381 35 334 74 c 1,8,-1
 325 74 l 1,9,10
 319 17 319 17 312 -29 c 128,-1,11
 305 -75 305 -75 294 -128 c 2,12,-1
 236 -425 l 1,13,-1
 -46 -425 l 1,14,-1
 237 1027 l 2,15,16
 283 1264 283 1264 428.5 1374 c 128,-1,17
 574 1484 574 1484 821 1484 c 0,18,19
 1011 1484 1011 1484 1103.5 1413.5 c 128,-1,20
 1196 1343 1196 1343 1196 1215 c 0,21,22
 1196 1196 1196 1196 1194 1176 c 128,-1,23
 1192 1156 1192 1156 1188 1135 c 0,24,25
 1174 1062 1174 1062 1145.5 1006.5 c 128,-1,26
 1117 951 1117 951 1079.5 910 c 128,-1,27
 1042 869 1042 869 998 841 c 128,-1,28
 954 813 954 813 909 795 c 1,29,30
 954 785 954 785 997.5 763.5 c 128,-1,31
 1041 742 1041 742 1076 706 c 128,-1,32
 1111 670 1111 670 1132.5 618.5 c 128,-1,33
 1154 567 1154 567 1154 497 c 0,34,35
 1154 455 1154 455 1145 405 c 0,0,1
873 419 m 0,36,37
 879 449 879 449 879 478 c 0,38,39
 879 522 879 522 863.5 558.5 c 128,-1,40
 848 595 848 595 814 621 c 128,-1,41
 780 647 780 647 728 661.5 c 128,-1,42
 676 676 676 676 602 676 c 1,43,-1
 641 874 l 1,44,45
 765 896 765 896 831.5 953 c 128,-1,46
 898 1010 898 1010 917 1109 c 0,47,48
 922 1137 922 1137 922 1157 c 0,49,50
 922 1212 922 1212 890 1246.5 c 128,-1,51
 858 1281 858 1281 781 1281 c 0,52,53
 727 1281 727 1281 684 1265.5 c 128,-1,54
 641 1250 641 1250 608 1215.5 c 128,-1,55
 575 1181 575 1181 551 1125.5 c 128,-1,56
 527 1070 527 1070 512 991 c 2,57,-1
 369 255 l 1,58,59
 388 238 388 238 413.5 223 c 128,-1,60
 439 208 439 208 469 196.5 c 128,-1,61
 499 185 499 185 532.5 178.5 c 128,-1,62
 566 172 566 172 600 172 c 0,63,64
 658 172 658 172 703.5 189.5 c 128,-1,65
 749 207 749 207 783 239.5 c 128,-1,66
 817 272 817 272 839.5 317.5 c 128,-1,67
 862 363 862 363 873 419 c 0,36,37
EndSplineSet
EndChar

StartChar: gamma
Encoding: 947 947 380
Width: 1229
Flags: W
LayerCount: 2
Fore
SplineSet
542 442 m 2,0,1
 543 436 543 436 544 417.5 c 128,-1,2
 545 399 545 399 546.5 374 c 128,-1,3
 548 349 548 349 549 320 c 128,-1,4
 550 291 550 291 550 263 c 0,5,6
 550 241 550 241 549.5 222 c 128,-1,7
 549 203 549 203 547 188 c 1,8,9
 557 219 557 219 572 255.5 c 128,-1,10
 587 292 587 292 602.5 327.5 c 128,-1,11
 618 363 618 363 633.5 394.5 c 128,-1,12
 649 426 649 426 660 447 c 2,13,-1
 999 1082 l 1,14,-1
 1294 1082 l 1,15,-1
 684 54 l 2,16,17
 652 -1 652 -1 622.5 -56 c 128,-1,18
 593 -111 593 -111 566.5 -169.5 c 128,-1,19
 540 -228 540 -228 516 -291 c 128,-1,20
 492 -354 492 -354 469 -424 c 1,21,-1
 179 -424 l 1,22,23
 224 -290 224 -290 271.5 -183.5 c 128,-1,24
 319 -77 319 -77 364 11 c 1,25,-1
 141 1082 l 1,26,-1
 439 1082 l 1,27,-1
 542 442 l 2,0,1
EndSplineSet
EndChar

StartChar: delta
Encoding: 948 948 381
Width: 1229
Flags: W
LayerCount: 2
Fore
SplineSet
846 487 m 4,0,1
 855 538 855 538 855 583 c 4,2,3
 855 633 855 633 845 677 c 132,-1,4
 835 721 835 721 817.5 760.5 c 132,-1,5
 800 800 800 800 777 835.5 c 132,-1,6
 754 871 754 871 728 903 c 5,7,8
 656 879 656 879 595 841 c 132,-1,9
 534 803 534 803 485.5 750.5 c 132,-1,10
 437 698 437 698 403.5 631 c 132,-1,11
 370 564 370 564 354 481 c 4,12,13
 349 455 349 455 346.5 430.5 c 132,-1,14
 344 406 344 406 344 383 c 4,15,16
 344 337 344 337 355 298.5 c 132,-1,17
 366 260 366 260 389 233 c 132,-1,18
 412 206 412 206 447 191 c 132,-1,19
 482 176 482 176 531 176 c 4,20,21
 601 176 601 176 654 199.5 c 132,-1,22
 707 223 707 223 745.5 264 c 132,-1,23
 784 305 784 305 808.5 362.5 c 132,-1,24
 833 420 833 420 846 487 c 4,0,1
871 1294 m 6,25,26
 858 1294 858 1294 838.5 1295 c 132,-1,27
 819 1296 819 1296 798 1297 c 132,-1,28
 777 1298 777 1298 757.5 1299 c 132,-1,29
 738 1300 738 1300 725 1301 c 5,30,-1
 991 1008 l 6,31,32
 1066 925 1066 925 1107.5 832 c 132,-1,33
 1149 739 1149 739 1149 622 c 4,34,35
 1149 589 1149 589 1146 554.5 c 132,-1,36
 1143 520 1143 520 1135 483 c 4,37,38
 1114 375 1114 375 1060.5 282.5 c 132,-1,39
 1007 190 1007 190 925 123 c 132,-1,40
 843 56 843 56 735 18 c 132,-1,41
 627 -20 627 -20 498 -20 c 4,42,43
 389 -20 389 -20 305.5 5.5 c 132,-1,44
 222 31 222 31 165.5 79.5 c 132,-1,45
 109 128 109 128 80 198 c 132,-1,46
 51 268 51 268 51 357 c 4,47,48
 51 386 51 386 54.5 417 c 132,-1,49
 58 448 58 448 64 481 c 4,50,51
 86 591 86 591 139.5 677 c 132,-1,52
 193 763 193 763 269 829 c 132,-1,53
 345 895 345 895 439 942.5 c 132,-1,54
 533 990 533 990 635 1023 c 5,55,-1
 384 1337 l 5,56,-1
 412 1484 l 5,57,-1
 1265 1484 l 5,58,-1
 1229 1294 l 5,59,-1
 871 1294 l 6,25,26
EndSplineSet
EndChar

StartChar: epsilon
Encoding: 949 949 382
Width: 1229
Flags: W
LayerCount: 2
Fore
SplineSet
558 168 m 0,0,1
 614 168 614 168 666 181.5 c 128,-1,2
 718 195 718 195 764.5 216.5 c 128,-1,3
 811 238 811 238 852.5 266.5 c 128,-1,4
 894 295 894 295 928 325 c 1,5,-1
 1064 185 l 1,6,7
 1024 151 1024 151 970.5 115 c 128,-1,8
 917 79 917 79 848 49 c 128,-1,9
 779 19 779 19 695.5 -0.5 c 128,-1,10
 612 -20 612 -20 512 -20 c 0,11,12
 403 -20 403 -20 321.5 -1 c 128,-1,13
 240 18 240 18 186 52 c 128,-1,14
 132 86 132 86 105 134.5 c 128,-1,15
 78 183 78 183 78 241 c 0,16,17
 78 269 78 269 84 297 c 0,18,19
 95 354 95 354 131.5 400.5 c 128,-1,20
 168 447 168 447 220 480 c 128,-1,21
 272 513 272 513 335 533 c 128,-1,22
 398 553 398 553 462 558 c 1,23,-1
 463 560 l 1,24,25
 409 565 409 565 363.5 583 c 128,-1,26
 318 601 318 601 284.5 628.5 c 128,-1,27
 251 656 251 656 232 693 c 128,-1,28
 213 730 213 730 213 773 c 0,29,30
 213 795 213 795 217 812 c 0,31,32
 229 875 229 875 272.5 928 c 128,-1,33
 316 981 316 981 387 1019.5 c 128,-1,34
 458 1058 458 1058 553.5 1080 c 128,-1,35
 649 1102 649 1102 766 1102 c 0,36,37
 922 1102 922 1102 1028 1053 c 128,-1,38
 1134 1004 1134 1004 1189 913 c 1,39,-1
 984 790 l 1,40,41
 968 818 968 818 943 842.5 c 128,-1,42
 918 867 918 867 885 885 c 128,-1,43
 852 903 852 903 812 913 c 128,-1,44
 772 923 772 923 727 923 c 0,45,46
 621 923 621 923 557 889.5 c 128,-1,47
 493 856 493 856 482 801 c 0,48,49
 473 758 473 758 498.5 729 c 128,-1,50
 524 700 524 700 575 683 c 128,-1,51
 626 666 626 666 699.5 659 c 128,-1,52
 773 652 773 652 861 652 c 1,53,-1
 826 475 l 1,54,55
 733 475 733 475 654.5 465.5 c 128,-1,56
 576 456 576 456 516.5 436.5 c 128,-1,57
 457 417 457 417 420.5 386.5 c 128,-1,58
 384 356 384 356 376 314 c 0,59,60
 363 245 363 245 412 206.5 c 128,-1,61
 461 168 461 168 558 168 c 0,0,1
EndSplineSet
EndChar

StartChar: zeta
Encoding: 950 950 383
Width: 1229
Flags: W
LayerCount: 2
Fore
SplineSet
441 422 m 0,0,1
 435 394 435 394 435 371 c 0,2,3
 435 334 435 334 450.5 309 c 128,-1,4
 466 284 466 284 499 266 c 128,-1,5
 532 248 532 248 582.5 234 c 128,-1,6
 633 220 633 220 702 204 c 0,7,8
 773 188 773 188 830 167.5 c 128,-1,9
 887 147 887 147 927.5 118 c 128,-1,10
 968 89 968 89 990 49.5 c 128,-1,11
 1012 10 1012 10 1012 -43 c 0,12,13
 1012 -71 1012 -71 1006 -102 c 0,14,15
 998 -144 998 -144 979.5 -187.5 c 128,-1,16
 961 -231 961 -231 939 -271.5 c 128,-1,17
 917 -312 917 -312 894 -346 c 128,-1,18
 871 -380 871 -380 854 -401 c 1,19,-1
 685 -327 l 1,20,21
 697 -312 697 -312 710 -293.5 c 128,-1,22
 723 -275 723 -275 735.5 -255 c 128,-1,23
 748 -235 748 -235 757.5 -214 c 128,-1,24
 767 -193 767 -193 771 -172 c 0,25,26
 776 -144 776 -144 768 -124.5 c 128,-1,27
 760 -105 760 -105 731 -88 c 128,-1,28
 702 -71 702 -71 648.5 -55 c 128,-1,29
 595 -39 595 -39 509 -19 c 0,30,31
 424 1 424 1 353.5 25.5 c 128,-1,32
 283 50 283 50 232.5 86 c 128,-1,33
 182 122 182 122 154.5 171.5 c 128,-1,34
 127 221 127 221 127 291 c 0,35,36
 127 310 127 310 128.5 329.5 c 128,-1,37
 130 349 130 349 135 371 c 0,38,39
 152 456 152 456 195.5 540 c 128,-1,40
 239 624 239 624 303 705.5 c 128,-1,41
 367 787 367 787 446.5 865.5 c 128,-1,42
 526 944 526 944 613.5 1018.5 c 128,-1,43
 701 1093 701 1093 793 1162 c 128,-1,44
 885 1231 885 1231 974 1294 c 1,45,-1
 975 1301 l 1,46,47
 963 1300 963 1300 936 1299 c 128,-1,48
 909 1298 909 1298 876.5 1297 c 128,-1,49
 844 1296 844 1296 811.5 1295 c 128,-1,50
 779 1294 779 1294 757 1294 c 2,51,-1
 412 1294 l 1,52,-1
 448 1484 l 1,53,-1
 1279 1484 l 1,54,-1
 1243 1294 l 1,55,56
 1156 1231 1156 1231 1066.5 1161 c 128,-1,57
 977 1091 977 1091 892.5 1016.5 c 128,-1,58
 808 942 808 942 731.5 865 c 128,-1,59
 655 788 655 788 595 712 c 128,-1,60
 535 636 535 636 494.5 562.5 c 128,-1,61
 454 489 454 489 441 422 c 0,0,1
EndSplineSet
EndChar

StartChar: eta
Encoding: 951 951 384
Width: 1229
Flags: W
LayerCount: 2
Fore
SplineSet
642 -424 m 1,0,-1
 846 629 l 2,1,2
 861 707 861 707 861 758 c 0,3,4
 861 832 861 832 829 862 c 128,-1,5
 797 892 797 892 731 892 c 0,6,7
 678 892 678 892 631 871.5 c 128,-1,8
 584 851 584 851 545.5 811 c 128,-1,9
 507 771 507 771 479.5 713.5 c 128,-1,10
 452 656 452 656 437 581 c 2,11,-1
 324 0 l 1,12,-1
 42 0 l 1,13,-1
 207 851 l 2,14,15
 215 890 215 890 218 927.5 c 128,-1,16
 221 965 221 965 221 998 c 0,17,18
 221 1022 221 1022 219.5 1043.5 c 128,-1,19
 218 1065 218 1065 216 1082 c 1,20,-1
 485 1082 l 1,21,22
 490 1060 490 1060 492.5 1035.5 c 128,-1,23
 495 1011 495 1011 495 985 c 0,24,25
 495 937 495 937 487 897 c 1,26,-1
 490 897 l 1,27,28
 526 944 526 944 565.5 982 c 128,-1,29
 605 1020 605 1020 652 1046.5 c 128,-1,30
 699 1073 699 1073 756 1087.5 c 128,-1,31
 813 1102 813 1102 885 1102 c 0,32,33
 1024 1102 1024 1102 1091 1044 c 128,-1,34
 1158 986 1158 986 1158 858 c 0,35,36
 1158 798 1158 798 1143 721 c 2,37,-1
 921 -424 l 1,38,-1
 642 -424 l 1,0,-1
EndSplineSet
EndChar

StartChar: theta
Encoding: 952 952 385
Width: 1229
Flags: W
LayerCount: 2
Fore
SplineSet
1134 733 m 0,0,1
 1097 543 1097 543 1036 401.5 c 128,-1,2
 975 260 975 260 894 166 c 128,-1,3
 813 72 813 72 713.5 26 c 128,-1,4
 614 -20 614 -20 500 -20 c 0,5,6
 415 -20 415 -20 347.5 8.5 c 128,-1,7
 280 37 280 37 233 94 c 128,-1,8
 186 151 186 151 161 238 c 128,-1,9
 136 325 136 325 136 442 c 0,10,11
 136 572 136 572 167 733 c 0,12,13
 240 1107 240 1107 403 1295 c 128,-1,14
 566 1483 566 1483 798 1483 c 0,15,16
 1168 1483 1168 1483 1168 1043 c 0,17,18
 1168 906 1168 906 1134 733 c 0,0,1
536 162 m 0,19,20
 575 162 575 162 617 185.5 c 128,-1,21
 659 209 659 209 699.5 264.5 c 128,-1,22
 740 320 740 320 777 413 c 128,-1,23
 814 506 814 506 843 644 c 1,24,-1
 426 644 l 1,25,26
 414 575 414 575 408.5 518.5 c 128,-1,27
 403 462 403 462 403 415 c 0,28,29
 403 345 403 345 414 296.5 c 128,-1,30
 425 248 425 248 443.5 218 c 128,-1,31
 462 188 462 188 486 175 c 128,-1,32
 510 162 510 162 536 162 c 0,19,20
765 1300 m 0,33,34
 726 1300 726 1300 684.5 1277.5 c 128,-1,35
 643 1255 643 1255 603 1201 c 128,-1,36
 563 1147 563 1147 527 1057.5 c 128,-1,37
 491 968 491 968 462 834 c 1,38,-1
 880 834 l 1,39,40
 892 902 892 902 897.5 957.5 c 128,-1,41
 903 1013 903 1013 903 1059 c 0,42,43
 903 1127 903 1127 892 1173 c 128,-1,44
 881 1219 881 1219 862.5 1247 c 128,-1,45
 844 1275 844 1275 819 1287.5 c 128,-1,46
 794 1300 794 1300 765 1300 c 0,33,34
EndSplineSet
EndChar

StartChar: iota
Encoding: 953 953 386
Width: 1229
Flags: W
LayerCount: 2
Fore
SplineSet
693 -20 m 0,0,1
 600 -20 600 -20 536 -0.5 c 128,-1,2
 472 19 472 19 432 55 c 128,-1,3
 392 91 392 91 374.5 141 c 128,-1,4
 357 191 357 191 357 252 c 0,5,6
 357 280 357 280 360.5 309 c 128,-1,7
 364 338 364 338 370 369 c 2,8,-1
 471 892 l 1,9,-1
 187 892 l 1,10,-1
 224 1082 l 1,11,-1
 788 1082 l 1,12,-1
 648 358 l 2,13,14
 641 326 641 326 641 295 c 0,15,16
 641 187 641 187 745 187 c 0,17,18
 802 187 802 187 853.5 216 c 128,-1,19
 905 245 905 245 948 295 c 1,20,-1
 1083 168 l 1,21,22
 1046 125 1046 125 1004.5 90.5 c 128,-1,23
 963 56 963 56 915.5 31.5 c 128,-1,24
 868 7 868 7 813 -6.5 c 128,-1,25
 758 -20 758 -20 693 -20 c 0,0,1
EndSplineSet
EndChar

StartChar: lambda
Encoding: 955 955 388
Width: 1229
Flags: W
LayerCount: 2
Fore
SplineSet
1061 0 m 1,0,-1
 767 0 l 1,1,-1
 717 461 l 2,2,3
 714 489 714 489 711 524.5 c 128,-1,4
 708 560 708 560 705.5 596.5 c 128,-1,5
 703 633 703 633 701.5 667 c 128,-1,6
 700 701 700 701 700 727 c 0,7,8
 700 737 700 737 700 744.5 c 128,-1,9
 700 752 700 752 701 759 c 1,10,11
 689 732 689 732 667 688.5 c 128,-1,12
 645 645 645 645 619.5 597.5 c 128,-1,13
 594 550 594 550 568.5 504.5 c 128,-1,14
 543 459 543 459 524 429 c 2,15,-1
 259 0 l 1,16,-1
 -38 0 l 1,17,-1
 632 1006 l 1,18,-1
 624 1029 l 1,19,20
 610 1098 610 1098 598 1145.5 c 128,-1,21
 586 1193 586 1193 571 1223 c 128,-1,22
 556 1253 556 1253 534.5 1266 c 128,-1,23
 513 1279 513 1279 481 1279 c 0,24,25
 461 1279 461 1279 432.5 1273.5 c 128,-1,26
 404 1268 404 1268 384 1260 c 1,27,-1
 374 1454 l 1,28,29
 406 1465 406 1465 457.5 1474.5 c 128,-1,30
 509 1484 509 1484 566 1484 c 0,31,32
 647 1484 647 1484 700.5 1462.5 c 128,-1,33
 754 1441 754 1441 789.5 1396 c 128,-1,34
 825 1351 825 1351 846.5 1280.5 c 128,-1,35
 868 1210 868 1210 883 1112 c 2,36,-1
 1061 0 l 1,0,-1
EndSplineSet
EndChar

StartChar: mu
Encoding: 956 956 389
Width: 1229
Flags: W
LayerCount: 2
Fore
SplineSet
734 0 m 1,0,1
 735 12 735 12 737 34 c 128,-1,2
 739 56 739 56 742 82.5 c 128,-1,3
 745 109 745 109 749 136 c 128,-1,4
 753 163 753 163 757 184 c 1,5,-1
 754 184 l 1,6,7
 697 85 697 85 625.5 32.5 c 128,-1,8
 554 -20 554 -20 468 -20 c 0,9,10
 416 -20 416 -20 377.5 4 c 128,-1,11
 339 28 339 28 324 70 c 1,12,-1
 320 70 l 1,13,14
 316 38 316 38 311 10.5 c 128,-1,15
 306 -17 306 -17 301 -45 c 2,16,-1
 227 -425 l 1,17,-1
 -54 -425 l 1,18,-1
 239 1082 l 1,19,-1
 520 1082 l 1,20,-1
 403 477 l 2,21,22
 397 444 397 444 393.5 414 c 128,-1,23
 390 384 390 384 390 358 c 0,24,25
 390 282 390 282 422.5 237.5 c 128,-1,26
 455 193 455 193 532 193 c 0,27,28
 582 193 582 193 626.5 215.5 c 128,-1,29
 671 238 671 238 707.5 278.5 c 128,-1,30
 744 319 744 319 771 376.5 c 128,-1,31
 798 434 798 434 811 504 c 2,32,-1
 923 1082 l 1,33,-1
 1204 1082 l 1,34,-1
 1041 242 l 2,35,36
 1035 208 1035 208 1028.5 171.5 c 128,-1,37
 1022 135 1022 135 1016.5 101.5 c 128,-1,38
 1011 68 1011 68 1007 41 c 128,-1,39
 1003 14 1003 14 1002 0 c 1,40,-1
 734 0 l 1,0,1
EndSplineSet
EndChar

StartChar: nu
Encoding: 957 957 390
Width: 1229
Flags: W
LayerCount: 2
Fore
SplineSet
1159 846 m 0,0,1
 1140 747 1140 747 1087 638 c 128,-1,2
 1034 529 1034 529 959 418.5 c 128,-1,3
 884 308 884 308 792.5 201 c 128,-1,4
 701 94 701 94 605 0 c 1,5,-1
 338 0 l 1,6,-1
 145 1082 l 1,7,-1
 442 1082 l 1,8,-1
 552 239 l 1,9,10
 624 319 624 319 678 393 c 128,-1,11
 732 467 732 467 771 539.5 c 128,-1,12
 810 612 810 612 836 685.5 c 128,-1,13
 862 759 862 759 877 837 c 0,14,15
 890 905 890 905 890 961 c 0,16,17
 890 996 890 996 886 1026 c 128,-1,18
 882 1056 882 1056 875 1082 c 1,19,-1
 1155 1082 l 1,20,21
 1163 1057 1163 1057 1168 1029 c 128,-1,22
 1173 1001 1173 1001 1173 968 c 0,23,24
 1173 942 1173 942 1169.5 911.5 c 128,-1,25
 1166 881 1166 881 1159 846 c 0,0,1
EndSplineSet
EndChar

StartChar: xi
Encoding: 958 958 391
Width: 1229
Flags: W
LayerCount: 2
Fore
SplineSet
427 423 m 0,0,1
 425 411 425 411 423.5 400 c 128,-1,2
 422 389 422 389 422 378 c 0,3,4
 422 338 422 338 438.5 310.5 c 128,-1,5
 455 283 455 283 487.5 264 c 128,-1,6
 520 245 520 245 567.5 232.5 c 128,-1,7
 615 220 615 220 676 210 c 0,8,9
 748 198 748 198 809.5 179 c 128,-1,10
 871 160 871 160 916 130.5 c 128,-1,11
 961 101 961 101 986.5 58.5 c 128,-1,12
 1012 16 1012 16 1012 -43 c 0,13,14
 1012 -71 1012 -71 1006 -102 c 0,15,16
 998 -144 998 -144 979.5 -187.5 c 128,-1,17
 961 -231 961 -231 939 -271.5 c 128,-1,18
 917 -312 917 -312 894 -346 c 128,-1,19
 871 -380 871 -380 854 -401 c 1,20,-1
 685 -327 l 1,21,22
 697 -312 697 -312 710 -293.5 c 128,-1,23
 723 -275 723 -275 735.5 -255 c 128,-1,24
 748 -235 748 -235 757.5 -214 c 128,-1,25
 767 -193 767 -193 771 -172 c 0,26,27
 777 -139 777 -139 763.5 -116 c 128,-1,28
 750 -93 750 -93 714.5 -75.5 c 128,-1,29
 679 -58 679 -58 619.5 -43.5 c 128,-1,30
 560 -29 560 -29 475 -11 c 0,31,32
 401 4 401 4 335 24.5 c 128,-1,33
 269 45 269 45 219.5 77.5 c 128,-1,34
 170 110 170 110 141.5 158 c 128,-1,35
 113 206 113 206 113 278 c 0,36,37
 113 297 113 297 114.5 317 c 128,-1,38
 116 337 116 337 121 359 c 0,39,40
 136 435 136 435 179 506 c 128,-1,41
 222 577 222 577 295 636 c 128,-1,42
 368 695 368 695 471.5 737.5 c 128,-1,43
 575 780 575 780 710 799 c 1,44,-1
 712 806 l 1,45,46
 643 810 643 810 581.5 826 c 128,-1,47
 520 842 520 842 473.5 869 c 128,-1,48
 427 896 427 896 399.5 934 c 128,-1,49
 372 972 372 972 372 1020 c 0,50,51
 372 1036 372 1036 375 1052 c 0,52,53
 386 1109 386 1109 428 1150 c 128,-1,54
 470 1191 470 1191 525.5 1220 c 128,-1,55
 581 1249 581 1249 642 1266.5 c 128,-1,56
 703 1284 703 1284 751 1293 c 1,57,-1
 753 1301 l 1,58,59
 745 1300 745 1300 724.5 1299.5 c 128,-1,60
 704 1299 704 1299 676.5 1298.5 c 128,-1,61
 649 1298 649 1298 617.5 1297 c 128,-1,62
 586 1296 586 1296 557 1295.5 c 128,-1,63
 528 1295 528 1295 504 1294.5 c 128,-1,64
 480 1294 480 1294 468 1294 c 2,65,-1
 372 1294 l 1,66,-1
 408 1484 l 1,67,-1
 1205 1484 l 1,68,-1
 1170 1299 l 1,69,70
 1070 1292 1070 1292 982 1278 c 128,-1,71
 894 1264 894 1264 827 1240 c 128,-1,72
 760 1216 760 1216 717.5 1179 c 128,-1,73
 675 1142 675 1142 664 1087 c 0,74,75
 654 1036 654 1036 679.5 1003.5 c 128,-1,76
 705 971 705 971 757 951.5 c 128,-1,77
 809 932 809 932 884.5 922 c 128,-1,78
 960 912 960 912 1050 907 c 1,79,-1
 1013 716 l 1,80,81
 895 700 895 700 794 679.5 c 128,-1,82
 693 659 693 659 616.5 626 c 128,-1,83
 540 593 540 593 490.5 544 c 128,-1,84
 441 495 441 495 427 423 c 0,0,1
EndSplineSet
EndChar

